<svg id="Layer_1" data-name="Layer 1" xmlns="http://www.w3.org/2000/svg" width="86.05" height="53.09" viewBox="0 0 86.05 53.09"><title>coors</title><path d="M47.09,36.23c0,.14-.1.23-.16.34a16.63,16.63,0,0,0-1.84,4.34,8.78,8.78,0,0,0-.27,4,4.74,4.74,0,0,0,3.67,4,6.8,6.8,0,0,0,3.14,0,9.75,9.75,0,0,0,4.69-2.58,17,17,0,0,0,3.85-5.59,20.37,20.37,0,0,0,1.4-4.43c0-.19,0-.35.29-.45a11,11,0,0,0,3.79-2.65,15.93,15.93,0,0,0,1.62-2c.31.62.76,1.09,1.1,1.65a2,2,0,0,1,.11,2,10,10,0,0,1-.84,1.46c-.63.89-1.28,1.77-1.92,2.66a21.3,21.3,0,0,0-2.08,3.38,6.6,6.6,0,0,0-.72,3.24,3.54,3.54,0,0,0,3.13,3.41,6.36,6.36,0,0,0,3-.36,10.13,10.13,0,0,0,3.67-2.42,24.75,24.75,0,0,0,3-3.57c1.59-2.26,3.16-4.54,4.74-6.8a42.31,42.31,0,0,1,3.06-4c.09-.1.16-.23.3-.27a.65.65,0,0,1,0,.31c-.11.65-.17,1.29-.22,1.94-.1,1.36-.09,2.72-.14,4.08A18.58,18.58,0,0,1,83,41.3a5.42,5.42,0,0,1-.86,2.11,2.28,2.28,0,0,1-1.76,1,1.46,1.46,0,0,1-1.65-1.5,3.13,3.13,0,0,1,.32-1.44c0-.12.14-.21.13-.38a1.27,1.27,0,0,0-.55.13,4.26,4.26,0,0,0-1.88,1.39,3.87,3.87,0,0,0,2,6.28A6.84,6.84,0,0,0,86.19,46a1.3,1.3,0,0,1,.4-.41,4.9,4.9,0,0,1,2.78-.78c.24,0,.34-.06.41-.28.23-.69.48-1.37.72-2a.38.38,0,0,0,0-.28,5.14,5.14,0,0,0-3.33,1.25c0-.16,0-.26,0-.36a9.62,9.62,0,0,0,.14-1.41A17.46,17.46,0,0,0,87,37.9c-.28-1.59-.66-3.17-.92-4.76a5.48,5.48,0,0,1,.78-4.35c.09-.13,0-.2-.07-.27-.28-.18-.56-.35-.83-.54a.26.26,0,0,0-.34,0c-.23.18-.46.33-.68.5a29.53,29.53,0,0,0-4.34,4.39c-1.4,1.67-2.67,3.45-4,5.19a50.73,50.73,0,0,1-3.48,4.25,10.6,10.6,0,0,1-1.74,1.54,3.32,3.32,0,0,1-1.44.59,1,1,0,0,1-1.17-1,2.51,2.51,0,0,1,.1-.61,7.29,7.29,0,0,1,.6-1.48c.49-1,1-1.89,1.56-2.84a16.17,16.17,0,0,0,1.28-2.81,3.29,3.29,0,0,0-.44-2.95c-.15-.22-.31-.43-.48-.64-.34-.41-.73-.78-1.1-1.17a7.09,7.09,0,0,1-1-1.23A1.55,1.55,0,0,1,69,28.39c.17-.53-.05-.77-.48-.95-.2-.09-.38-.33-.56-.29s-.25.35-.35.55a18.24,18.24,0,0,1-3.68,5A9.43,9.43,0,0,1,62.12,34c-.12.06-.23.17-.4.12a8.41,8.41,0,0,0-.25-1.31,4.21,4.21,0,0,0-1.93-2.6,5.19,5.19,0,0,0-2.34-.61,8.19,8.19,0,0,0-3.46.67,12.86,12.86,0,0,0-3.65,2.34,10.45,10.45,0,0,1-3.23,1.91,7.83,7.83,0,0,1-2.79.59c-.25,0-.26,0-.25-.25a8.79,8.79,0,0,0-.07-1.26A4.32,4.32,0,0,0,40,29.71a7.5,7.5,0,0,0-3.36.27,11.61,11.61,0,0,0-4.34,2.48,17.33,17.33,0,0,0-4.34,5.84,6.55,6.55,0,0,1-1.55,2.1,15.51,15.51,0,0,1-4.85,3.18,10.19,10.19,0,0,1-4.79.73,4.41,4.41,0,0,1-2.1-.73A4.17,4.17,0,0,1,13,41.06a10.37,10.37,0,0,1-.21-3.68,19.38,19.38,0,0,1,3-8.38.53.53,0,0,1,.39-.26A22.26,22.26,0,0,0,19.36,28c.07,0,.14-.06.23,0-.1.3-.22.59-.31.89a4.09,4.09,0,0,0,0,2.52,3.55,3.55,0,0,0,2.86,2.51,7.35,7.35,0,0,0,4.73-.57,9.33,9.33,0,0,0,5.28-9.43A5.37,5.37,0,0,0,28,19.14,10.64,10.64,0,0,0,23.73,19a16.31,16.31,0,0,0-5.3,1.76A23.57,23.57,0,0,0,11.85,26c-.26.28-.5.58-.75.87a.25.25,0,0,1-.29.11A4.35,4.35,0,0,1,9,26a2.49,2.49,0,0,1-.8-2.13,1.68,1.68,0,0,1,.95-1.39,2.7,2.7,0,0,1,1-.23c.08,0,.17,0,.23-.05s0,0,0-.05l-.07-.09a3.46,3.46,0,0,0-3-1,3.08,3.08,0,0,0-2.79,3.66,3.55,3.55,0,0,0,1,2,6.47,6.47,0,0,0,3,1.69c.34.1.69.17,1,.26a1,1,0,0,1-.17.31,26.57,26.57,0,0,0-1.78,3.11A19,19,0,0,0,5.6,39.77a12,12,0,0,0,.5,4,7.1,7.1,0,0,0,4.55,4.8,10.34,10.34,0,0,0,3.3.55,14.91,14.91,0,0,0,7.25-1.84,20.56,20.56,0,0,0,5.19-4,.69.69,0,0,1,.33-.27c0,.36,0,.69,0,1a7.17,7.17,0,0,0,.15,1A5,5,0,0,0,32,49.11a8.85,8.85,0,0,0,5-1.65A13.66,13.66,0,0,0,40.49,44a19.46,19.46,0,0,0,3-6.75c.08-.32.08-.32.39-.34a10.53,10.53,0,0,0,3-.6C46.94,36.23,47,36.18,47.09,36.23ZM66.81,59.05V51.91c0-.57.07-.51-.5-.52H63.6c-.17,0-.23.07-.22.23a2.43,2.43,0,0,1,0,.27v5.35a.16.16,0,0,1-.18.18H57.39c-.17,0-.22-.08-.21-.24V51.73c0-.33,0-.33-.34-.33H54.09c-.33,0-.33,0-.34.34V66.28c0,.39,0,.39.4.39h2.52c.58,0,.51,0,.51-.52V61c0-.34,0-.35.28-.35h5.65c.26,0,.26,0,.27.29v5.42c0,.31,0,.32.32.32h2.86c.18,0,.27-.06.25-.25a2.25,2.25,0,0,1,0-.26Zm-24,1.49a.36.36,0,0,0,.24.05c.66,0,1.32,0,2,0,.3,0,.31,0,.31.29,0,.63,0,1.27,0,1.91a.32.32,0,0,1-.26.35,5,5,0,0,1-2.49.16,4.35,4.35,0,0,1-1.55-7.88,4.22,4.22,0,0,1,4.53-.19c.28.15.28.16.43-.1.46-.77.92-1.53,1.37-2.3.16-.26.16-.27-.08-.42a7.85,7.85,0,0,0-6.25-.88A7.76,7.76,0,0,0,35.49,60a7.54,7.54,0,0,0,5.14,6.41,8,8,0,0,0,3.73.37,11.39,11.39,0,0,0,4-1.2.68.68,0,0,0,.42-.66c0-2.27,0-4.53,0-6.8,0-.42-.12-.54-.54-.54h-3.4a.43.43,0,0,0-.43.24c-.48.82-1,1.64-1.46,2.46A.42.42,0,0,0,42.84,60.54Zm-5-34.8c.5.08,18.73.06,19,0-.18-.41-6-8.89-6.24-9.07-.21.32-.42.63-.64.94a9.55,9.55,0,0,1-.67.94l-3.27-4.78ZM81.31,51.42a1.08,1.08,0,0,0-.4,0H71.06c-.27,0-.28,0-.28.27v2.68c0,.27,0,.28.31.28h2.29c.52,0,.48-.05.48.47V66.36c0,.29,0,.3.3.31H77c.27,0,.27,0,.28-.29V55.24c0-.12,0-.23,0-.35s.07-.27.27-.26c.52,0,1,0,1.56,0a.48.48,0,0,0,.49-.27l1.6-2.69C81.26,51.61,81.34,51.54,81.31,51.42Zm-56.82,12a.91.91,0,0,0-.4,0H18.93c-.33,0-.34,0-.34-.34V51.79c0-.39,0-.4-.4-.4H15.52c-.35,0-.35,0-.35.36V66.31c0,.35,0,.36.35.36,2.26,0,4.51,0,6.76,0a.53.53,0,0,0,.52-.29c.51-.9,1.05-1.78,1.57-2.67C24.43,63.62,24.52,63.54,24.49,63.39Zm6.85-4.33V51.84c0-.49,0-.44-.42-.45H28.36c-.53,0-.48,0-.48.47V66.37c0,.29,0,.29.31.3h1.07c.61,0,1.22,0,1.83,0,.18,0,.26-.06.25-.24V59.06Zm48.41,6.09a.76.76,0,0,0-.75.75.77.77,0,0,0,.74.76.76.76,0,0,0,.77-.78A.74.74,0,0,0,79.75,65.15Z" transform="translate(-4.5 -13.77)" fill="#fff"/><path d="M47.09,36.23c-.08,0-.15,0-.22,0a10.53,10.53,0,0,1-3,.6c-.31,0-.31,0-.39.34a19.46,19.46,0,0,1-3,6.75A13.66,13.66,0,0,1,37,47.46a8.85,8.85,0,0,1-5,1.65A5,5,0,0,1,26.87,45a7.17,7.17,0,0,1-.15-1c0-.33,0-.66,0-1a.69.69,0,0,0-.33.27,20.56,20.56,0,0,1-5.19,4A14.91,14.91,0,0,1,14,49.11a10.34,10.34,0,0,1-3.3-.55,7.1,7.1,0,0,1-4.55-4.8,12,12,0,0,1-.5-4,19,19,0,0,1,2.09-7.68A26.57,26.57,0,0,1,9.47,29a1,1,0,0,0,.17-.31c-.35-.09-.7-.16-1-.26a6.47,6.47,0,0,1-3-1.69,3.55,3.55,0,0,1-1-2,3.08,3.08,0,0,1,2.79-3.66,3.46,3.46,0,0,1,3,1l.07.09s0,0,0,.05-.15,0-.23.05a2.7,2.7,0,0,0-1,.23,1.68,1.68,0,0,0-.95,1.39A2.49,2.49,0,0,0,9,26a4.35,4.35,0,0,0,1.78.93.25.25,0,0,0,.29-.11c.25-.29.49-.59.75-.87a23.57,23.57,0,0,1,6.58-5.21A16.31,16.31,0,0,1,23.73,19a10.64,10.64,0,0,1,4.28.16,5.37,5.37,0,0,1,4.12,4.77,9.33,9.33,0,0,1-5.28,9.43,7.35,7.35,0,0,1-4.73.57,3.55,3.55,0,0,1-2.86-2.51,4.09,4.09,0,0,1,0-2.52c.09-.3.21-.59.31-.89-.09-.06-.16,0-.23,0a22.26,22.26,0,0,1-3.23.75.53.53,0,0,0-.39.26,19.38,19.38,0,0,0-3,8.38A10.37,10.37,0,0,0,13,41.06a4.17,4.17,0,0,0,1.67,2.52,4.41,4.41,0,0,0,2.1.73,10.19,10.19,0,0,0,4.79-.73,15.51,15.51,0,0,0,4.85-3.18,6.55,6.55,0,0,0,1.55-2.1,17.33,17.33,0,0,1,4.34-5.84A11.61,11.61,0,0,1,36.61,30,7.5,7.5,0,0,1,40,29.71a4.32,4.32,0,0,1,3.78,3.92,8.79,8.79,0,0,1,.07,1.26c0,.24,0,.25.25.25a7.83,7.83,0,0,0,2.79-.59,10.45,10.45,0,0,0,3.23-1.91,12.86,12.86,0,0,1,3.65-2.34,8.19,8.19,0,0,1,3.46-.67,5.19,5.19,0,0,1,2.34.61,4.21,4.21,0,0,1,1.93,2.6,8.41,8.41,0,0,1,.25,1.31c.17.05.28-.06.4-.12A9.43,9.43,0,0,0,64,32.68a18.24,18.24,0,0,0,3.68-5c.1-.2.13-.5.35-.55s.36.2.56.29c.43.18.65.42.48.95a1.55,1.55,0,0,0,.29,1.27,7.09,7.09,0,0,0,1,1.23c.37.39.76.76,1.1,1.17.17.21.33.42.48.64a3.29,3.29,0,0,1,.44,2.95,16.17,16.17,0,0,1-1.28,2.81c-.52.95-1.07,1.88-1.56,2.84a7.29,7.29,0,0,0-.6,1.48,2.51,2.51,0,0,0-.1.61,1,1,0,0,0,1.17,1,3.32,3.32,0,0,0,1.44-.59,10.6,10.6,0,0,0,1.74-1.54,50.73,50.73,0,0,0,3.48-4.25c1.3-1.74,2.57-3.52,4-5.19A29.53,29.53,0,0,1,85,28.48c.22-.17.45-.32.68-.5A.26.26,0,0,1,86,28c.27.19.55.36.83.54.12.07.16.14.07.27a5.48,5.48,0,0,0-.78,4.35c.26,1.59.64,3.17.92,4.76a17.46,17.46,0,0,1,.35,3.75,9.62,9.62,0,0,1-.14,1.41c0,.1,0,.2,0,.36a5.14,5.14,0,0,1,3.33-1.25.38.38,0,0,1,0,.28c-.24.68-.49,1.36-.72,2-.07.22-.17.28-.41.28a4.9,4.9,0,0,0-2.78.78,1.3,1.3,0,0,0-.4.41,6.84,6.84,0,0,1-7.45,2.92,3.87,3.87,0,0,1-2-6.28,4.26,4.26,0,0,1,1.88-1.39,1.27,1.27,0,0,1,.55-.13c0,.17-.09.26-.13.38a3.13,3.13,0,0,0-.32,1.44,1.46,1.46,0,0,0,1.65,1.5,2.28,2.28,0,0,0,1.76-1A5.42,5.42,0,0,0,83,41.3,18.58,18.58,0,0,0,83.4,38c0-1.36,0-2.72.14-4.08,0-.65.11-1.29.22-1.94a.65.65,0,0,0,0-.31c-.14,0-.21.17-.3.27a42.31,42.31,0,0,0-3.06,4c-1.58,2.26-3.15,4.54-4.74,6.8a24.75,24.75,0,0,1-3,3.57A10.13,10.13,0,0,1,69,48.7a6.36,6.36,0,0,1-3,.36,3.54,3.54,0,0,1-3.13-3.41,6.6,6.6,0,0,1,.72-3.24A21.3,21.3,0,0,1,65.72,39c.64-.89,1.29-1.77,1.92-2.66a10,10,0,0,0,.84-1.46,2,2,0,0,0-.11-2c-.34-.56-.79-1-1.1-1.65a15.93,15.93,0,0,1-1.62,2,11,11,0,0,1-3.79,2.65c-.24.1-.25.26-.29.45a20.37,20.37,0,0,1-1.4,4.43,17,17,0,0,1-3.85,5.59,9.75,9.75,0,0,1-4.69,2.58,6.8,6.8,0,0,1-3.14,0,4.74,4.74,0,0,1-3.67-4,8.78,8.78,0,0,1,.27-4,16.63,16.63,0,0,1,1.84-4.34C47,36.46,47.09,36.37,47.09,36.23ZM24.24,24.72l0,0c0,.11-.11.17-.18.24a6.17,6.17,0,0,0-1,1.47,4.07,4.07,0,0,0-.41,2,2,2,0,0,0,2,1.91,4.22,4.22,0,0,0,3.12-1.3,5.8,5.8,0,0,0,1.8-4.24,3.39,3.39,0,0,0-1.19-2.82,3.91,3.91,0,0,0-2.85-.85,7.17,7.17,0,0,0-3,.88,16.28,16.28,0,0,0-5.29,4.65.17.17,0,0,0,0,.14.51.51,0,0,0,.3,0,32.2,32.2,0,0,0,4.5-1.32C22.79,25.27,23.51,25,24.24,24.72ZM57.71,31.8a2.47,2.47,0,0,0-1.45,0,6.05,6.05,0,0,0-3,1.86,13,13,0,0,0-3,5.35,8.24,8.24,0,0,0-.39,3,3.33,3.33,0,0,0,.31,1.21,2,2,0,0,0,1.66,1.19,4.08,4.08,0,0,0,2.48-.6,7,7,0,0,0,1.9-1.64,14.53,14.53,0,0,0,2.86-5.83c.06-.21,0-.29-.19-.36a2.7,2.7,0,0,1-1.36-3.92C57.64,32,57.73,32,57.71,31.8Zm-17.9,0a2.74,2.74,0,0,0-1.45,0,5.74,5.74,0,0,0-3,1.83A12.8,12.8,0,0,0,32,40.86a4.63,4.63,0,0,0,.23,2.33,2,2,0,0,0,1.93,1.34,4.16,4.16,0,0,0,1.67-.34A6.29,6.29,0,0,0,38,42.66a13.75,13.75,0,0,0,3.15-5.93c.06-.23,0-.31-.21-.41a3,3,0,0,1-1.21-4.24C39.74,32,39.82,31.94,39.81,31.82Z" transform="translate(-4.5 -13.77)" fill="#c32235"/><path d="M66.81,59.05v7.11a2.25,2.25,0,0,0,0,.26c0,.19-.07.26-.25.25H63.7c-.31,0-.32,0-.32-.32V60.93c0-.28,0-.29-.27-.29H57.46c-.28,0-.28,0-.28.35v5.16c0,.54.07.52-.51.52H54.15c-.43,0-.4,0-.4-.39V51.73c0-.33,0-.33.34-.34h2.75c.33,0,.34,0,.34.33v5.46c0,.16,0,.25.21.24H63.2a.16.16,0,0,0,.18-.18V51.89a2.43,2.43,0,0,0,0-.27c0-.16,0-.24.22-.23h2.71c.57,0,.5,0,.5.52Z" transform="translate(-4.5 -13.77)" fill="#78797d"/><path d="M42.84,60.54a.42.42,0,0,1,.11-.26c.48-.82,1-1.64,1.46-2.46a.43.43,0,0,1,.43-.24h3.4c.42,0,.54.12.54.54,0,2.27,0,4.53,0,6.8a.68.68,0,0,1-.42.66,11.39,11.39,0,0,1-4,1.2,8,8,0,0,1-3.73-.37A7.54,7.54,0,0,1,35.49,60a7.76,7.76,0,0,1,5.59-8.48,7.85,7.85,0,0,1,6.25.88c.24.15.24.16.08.42-.45.77-.91,1.53-1.37,2.3-.15.26-.15.25-.43.1a4.22,4.22,0,0,0-4.53.19,4.35,4.35,0,0,0,1.55,7.88,5,5,0,0,0,2.49-.16.32.32,0,0,0,.26-.35c0-.64,0-1.28,0-1.91,0-.29,0-.29-.31-.29-.66,0-1.32,0-2,0A.36.36,0,0,1,42.84,60.54Z" transform="translate(-4.5 -13.77)" fill="#78797d"/><path d="M37.86,25.74l8.19-12,3.27,4.78a9.55,9.55,0,0,0,.67-.94c.22-.31.43-.62.64-.94.23.18,6.06,8.66,6.24,9.07C56.59,25.8,38.36,25.82,37.86,25.74Z" transform="translate(-4.5 -13.77)" fill="#0472bb"/><path d="M81.31,51.42c0,.12,0,.19-.09.26l-1.6,2.69a.48.48,0,0,1-.49.27c-.52,0-1,0-1.56,0-.2,0-.29.06-.27.26s0,.23,0,.35V66.38c0,.28,0,.28-.28.29H74.16c-.29,0-.29,0-.3-.31V55.1c0-.52,0-.47-.48-.47H71.09c-.3,0-.31,0-.31-.28V51.67c0-.27,0-.27.28-.27h9.85A1.08,1.08,0,0,1,81.31,51.42Z" transform="translate(-4.5 -13.77)" fill="#78797d"/><path d="M24.49,63.39c0,.15-.06.23-.12.32-.52.89-1.06,1.77-1.57,2.67a.53.53,0,0,1-.52.29c-2.25,0-4.5,0-6.76,0-.35,0-.35,0-.35-.36V51.76c0-.36,0-.36.35-.36h2.67c.4,0,.4,0,.4.4V63c0,.33,0,.33.34.34h5.16A.91.91,0,0,1,24.49,63.39Z" transform="translate(-4.5 -13.77)" fill="#78797d"/><path d="M31.34,59.06v7.37c0,.18-.07.24-.25.24-.61,0-1.22,0-1.83,0H28.19c-.3,0-.3,0-.31-.3V51.86c0-.51-.05-.46.48-.47h2.56c.44,0,.42,0,.42.45Z" transform="translate(-4.5 -13.77)" fill="#78797d"/><path d="M79.75,65.15a.74.74,0,0,1,.76.73.76.76,0,0,1-.77.78A.77.77,0,0,1,79,65.9.76.76,0,0,1,79.75,65.15Zm0,.17a.57.57,0,0,0-.57.59.56.56,0,0,0,.55.56.58.58,0,0,0,.6-.56A.6.6,0,0,0,79.76,65.32Z" transform="translate(-4.5 -13.77)" fill="#78797d"/><path d="M79.76,65.32a.6.6,0,0,1,.58.59.58.58,0,0,1-.6.56.56.56,0,0,1-.55-.56A.57.57,0,0,1,79.76,65.32Zm.17.89c.1,0,0-.13,0-.2A1.8,1.8,0,0,0,80,65.8a.19.19,0,0,0-.16-.25c-.26-.08-.37,0-.38.28a2.17,2.17,0,0,0,0,.26s0,.11.06.13.09,0,.1-.08.08-.1.13,0S79.85,66.23,79.93,66.21Z" transform="translate(-4.5 -13.77)" fill="#fefdfd"/><path d="M24.24,24.72s.06,0,.08,0,0,.05,0,.06Z" transform="translate(-4.5 -13.77)" fill="#c32235"/><path d="M79.93,66.21c-.08,0-.1,0-.14-.09s-.11-.12-.13,0,0,.09-.1.08-.06-.08-.06-.13a2.17,2.17,0,0,1,0-.26c0-.28.12-.36.38-.28a.19.19,0,0,1,.16.25A1.8,1.8,0,0,1,80,66C79.94,66.08,80,66.16,79.93,66.21Zm-.08-.44a.06.06,0,0,0-.07-.07s-.09,0-.1,0,0,.09.09.09A.08.08,0,0,0,79.85,65.77Z" transform="translate(-4.5 -13.77)" fill="#78797d"/><path d="M79.85,65.77a.08.08,0,0,1-.08.06c-.06,0-.1,0-.09-.09s.07,0,.1,0A.06.06,0,0,1,79.85,65.77Z" transform="translate(-4.5 -13.77)" fill="#fefdfd"/></svg>