<svg id="Layer_1" data-name="Layer 1" xmlns="http://www.w3.org/2000/svg" width="45.95" height="63.3" viewBox="0 0 45.95 63.3"><title>pepsi</title><g id="g8"><path id="path2" d="M40.53,41a23,23,0,1,1-.05-32.49l.05.05a23,23,0,0,1,0,32.44" transform="translate(-1.29 -1.82)" fill="#fff"/><path id="path4" d="M37.08,7.76A21.31,21.31,0,0,0,7.13,37.41a44.24,44.24,0,0,0,30-29.65" transform="translate(-1.29 -1.82)" fill="#e62137"/><path id="path6" d="M42.17,13.17a14.81,14.81,0,0,1-5.46,16.44C30.27,34.3,20.89,34.3,7.94,38.43A21.31,21.31,0,0,0,42.17,13.17Zm-.83,39.12a.92.92,0,0,0-.9.9.9.9,0,0,0,.9.9h0a.9.9,0,0,0,.9-.9h0a.9.9,0,0,0-.9-.9ZM36,54.56a2.55,2.55,0,0,0-2.78,2.27v.09c0,1.08.88,1.83,2.47,2.14l1,.19c.67.13,1,.47,1,1s-.59,1-1.47,1a3,3,0,0,1-2-.82h0a.28.28,0,0,0-.17-.09.33.33,0,0,0-.14,0l-.8.65a.17.17,0,0,0,0,.1.43.43,0,0,0,0,.16,4.42,4.42,0,0,0,3,1.24h0c2.11,0,3-1.18,3-2.31a2.24,2.24,0,0,0-1.92-2L36.79,58c-.37-.07-.76-.14-1.1-.23s-1-.34-1-.93.72-1,1.48-1a2.4,2.4,0,0,1,1.55.6.26.26,0,0,0,.19.07.21.21,0,0,0,.19,0,7.56,7.56,0,0,0,.68-.59.22.22,0,0,0,0-.16.29.29,0,0,0-.11-.18A4,4,0,0,0,36,54.65Zm-25.65,0a3.86,3.86,0,0,0-3.78,2.95,8.3,8.3,0,0,0-.16,1.86v5.56a.19.19,0,0,0,.18.19h1a.18.18,0,0,0,.18-.18h0V61.37h0a3.89,3.89,0,0,0,2.46,1.05h.19a3.73,3.73,0,0,0,2.68-1.1,4,4,0,0,0-.11-5.7,4.11,4.11,0,0,0-2.7-1.12Zm8.92,0h-.52A3.94,3.94,0,0,0,15.39,59a3.83,3.83,0,0,0,3.86,3.4h.52a4.06,4.06,0,0,0,2.68-1.47.22.22,0,0,0,.05-.08.2.2,0,0,0-.09-.13,6.72,6.72,0,0,0-.75-.4h-.33a.24.24,0,0,0-.15.09,2.48,2.48,0,0,1-1.59.87h-.34a2.6,2.6,0,0,1-2.42-1.66h0a3,3,0,0,1,1.27-.26H19a7.5,7.5,0,0,0,1.34.12,5.58,5.58,0,0,0,.91-.07A4.16,4.16,0,0,0,23,58.82c.18-.1.17-.19.17-.35h0v-.32a4.27,4.27,0,0,0-.15-.71,3.85,3.85,0,0,0-3.67-2.79Zm8.85,0a3.86,3.86,0,0,0-3.78,2.95,9.65,9.65,0,0,0-.13,1.86v5.56a.19.19,0,0,0,.17.19h1.07a.18.18,0,0,0,.17-.18h0V61.37h0a3.92,3.92,0,0,0,2.47,1.05h.19A3.75,3.75,0,0,0,31,61.32a4,4,0,0,0-2.82-6.82Zm12.69.27a.18.18,0,0,0-.18.17h0v7.11a.2.2,0,0,0,.18.18h1a.18.18,0,0,0,.18-.18h0V55a.18.18,0,0,0-.18-.18h0ZM19.24,55.89a2.76,2.76,0,0,1,2.55,2h0a5.84,5.84,0,0,1-.81.17H18.35a3.21,3.21,0,0,0-.62,0,4.15,4.15,0,0,0-1,.25h0A2.66,2.66,0,0,1,19,56Zm-8.94,0a2.55,2.55,0,0,1,2.52,2.61v0a2.49,2.49,0,0,1-2.35,2.63h-.09a2.68,2.68,0,0,1-1.85-.71,2.6,2.6,0,0,1-.78-1.86,2.63,2.63,0,0,1,2.54-2.7Zm17.8,0a2.55,2.55,0,0,1,2.52,2.61v0a2.47,2.47,0,0,1-2.32,2.62h-.13a2.67,2.67,0,0,1-1.84-.71,2.58,2.58,0,0,1-.77-1.87A2.63,2.63,0,0,1,28.1,55.89Z" transform="translate(-1.29 -1.82)" fill="#2452a0"/></g></svg>