<svg id="Layer_1" data-name="Layer 1" xmlns="http://www.w3.org/2000/svg" width="131.44" height="66.09" viewBox="0 0 131.44 66.09"><title>sac</title><rect x="41.78" width="47.88" height="31.18" fill="#1d1d1b"/><path d="M57.51,32.85h1V18.78h-1Zm1.93,0h1V18.78h-1Zm1.92,0h1V18.78h-1Zm1.93,0h1V18.78h-1Zm1.92,0h1V18.78h-1Zm13.26.44h1V18.78h-1Zm1.92,0h1V18.78h-1Zm1.92,0h1V18.78h-1Zm1.93,0h1V18.78h-1Zm1.92,0h1V18.78h-1ZM55.14,18H68.58V16H55.14Zm21,0H89.53V16H76.09ZM52.44,15H71.28V13H52.44Zm21,0H92.23V13H73.39Z" transform="translate(-6.62 -6.68)" fill="#fff"/><path d="M10.12,57.5H10a9.31,9.31,0,0,1-2.31-.41c-.82-.21-1.07-.86-1.07-1.74a6.72,6.72,0,0,1,.23-1.42,1,1,0,0,0,.36-.28l.23.09,0,0h.09a.39.39,0,0,1,.19.28L8,55.26A2,2,0,0,0,9.85,56.4c.31,0,1-.23,1.22-.23a1.74,1.74,0,0,0,.85-1.25c0-.8-.87-1.31-1.73-2-1-.8-3.17-1.34-3.17-3.81,0-.82.67-2.56,2.11-2.73a6.27,6.27,0,0,1,.89-.15c2.45,0,3,.53,3,1.72V48a1.78,1.78,0,0,1-.49,1.49l-.19-.09c-.19,0-.38-.3-.42-.47a1.55,1.55,0,0,0-1.69-1.29c-1.37,0-1.61.64-1.61,1.22l.07.16c.19.45.33.83,1.83,1.52,2.26,1.08,2.83,1.72,2.83,3,0,.15.07.5.07.71v.11a3.59,3.59,0,0,1-.28,1.44,3.29,3.29,0,0,1-3,1.7" transform="translate(-6.62 -6.68)" fill="#1d1d1b"/><path d="M22.76,56.09c.08,0,.23.08.25.38a.28.28,0,0,0,0,.11,1.39,1.39,0,0,1,0,.15s0,.05-.08.22l-.09.08a7.91,7.91,0,0,1-1.26,0c-.41,0-.72,0-1,0L20,57v-.23c0-.05,0-.16-.06-.22a.84.84,0,0,0-.06-.28l.21,0c.42-.13.59-.17.59-.65a4.33,4.33,0,0,1-.19-.79c-.11-.6-.17-1-1.44-1-.21,0-.44,0-.8,0a4,4,0,0,0-.78,2l.34.3a.52.52,0,0,1,.33.47s0,.13,0,.15a3.26,3.26,0,0,1-1.69.37,1,1,0,0,1-.4.06h-.65c-.17,0-.23,0-.38-.47l0-.24s0,0,0,0c.4-.26.74-.43.91-.52s.3-.19.4-.53l.07-.31.27-.51h0a1,1,0,0,1,0-.15,20.2,20.2,0,0,1,1.5-3.25h0c0-.13.11-.26.15-.41a1.16,1.16,0,0,0,.06-.15,4.16,4.16,0,0,1,.8-1.55l.6.19.21.61c.38,1.07.86,2.38,1.62,4.28h0l.17.3s0,0,0,0a.64.64,0,0,1,0,.09c.07.41.24,1.31.62,1.46l.23.09m-3.68-4.54-.12.19h0a3.8,3.8,0,0,0-.38.82,1.86,1.86,0,0,0,1,.19v0a.65.65,0,0,0,0-.19c0-.33-.21-.89-.53-1" transform="translate(-6.62 -6.68)" fill="#1d1d1b"/><path d="M27.34,57.31a4,4,0,0,1-3.29-3.2L24,54a.15.15,0,0,0,0-.09,2.51,2.51,0,0,1-.1-.66v-.11a2.17,2.17,0,0,1,.06-.54,4.94,4.94,0,0,1,2.69-3.27l.9-.06.68-.18c2.24,0,2.7.52,2.7,1.64l-.08.15a.65.65,0,0,1-.49.39A2.58,2.58,0,0,0,28.65,50a2.62,2.62,0,0,0-1,.28c-1.25.54-1.33.79-1.65,1.81,0,.12-.08.21-.13.36a4.85,4.85,0,0,0-.27,1.4,3.14,3.14,0,0,0,2.75,2.77,2,2,0,0,0,.86-.23v0l.47-.41a2.5,2.5,0,0,1,1.09-.75,1.55,1.55,0,0,1,.26.84,1.08,1.08,0,0,1-.21.6,4.71,4.71,0,0,1-2.62.71,4,4,0,0,1-.85-.09" transform="translate(-6.62 -6.68)" fill="#1d1d1b"/><path d="M40,56.09c.08,0,.23.08.25.38a.28.28,0,0,0,0,.11,1.39,1.39,0,0,1,0,.15s0,.05-.09.22l-.08.08a8,8,0,0,1-1.27,0c-.4,0-.72,0-1,0l-.59,0v-.23c0-.05,0-.16-.06-.22a.73.73,0,0,0-.07-.28l.21,0c.43-.13.6-.17.6-.65a4.33,4.33,0,0,1-.19-.79c-.11-.6-.17-1-1.44-1-.21,0-.44,0-.8,0a4.07,4.07,0,0,0-.79,2l.34.3a.52.52,0,0,1,.34.47s0,.13,0,.15a3.26,3.26,0,0,1-1.69.37,1,1,0,0,1-.4.06H32.7c-.17,0-.24,0-.38-.47l0-.24s0,0,0,0c.4-.26.74-.43.91-.52s.29-.19.4-.53l.06-.31.28-.51h0a1,1,0,0,1,0-.15,20.2,20.2,0,0,1,1.5-3.25h0c0-.13.1-.26.15-.41a1.16,1.16,0,0,0,.06-.15,4.16,4.16,0,0,1,.8-1.55l.59.19c.07.18.15.41.21.61.38,1.07.87,2.38,1.63,4.28h0l.17.3s0,0,0,0a.64.64,0,0,1,0,.09c.06.41.23,1.31.61,1.46l.24.09m-3.68-4.54-.13.19h0a5.07,5.07,0,0,0-.38.82,1.9,1.9,0,0,0,1,.19v0a.65.65,0,0,0,0-.19c0-.33-.21-.89-.53-1" transform="translate(-6.62 -6.68)" fill="#1d1d1b"/><path d="M45.17,56.69c-.61,2.09-2.11,3.49-3.83,3.49-.65,0-1.18-.24-1.18-.82a1.3,1.3,0,0,1,.15-.2.87.87,0,0,1,.82-.45,1.55,1.55,0,0,0,1.17.5c1.47-1.25,1.56-1.72,1.56-3.92V55a16.82,16.82,0,0,0-.09-2.9l.07-1.21c0-.56-.43-.68-.74-.75s-.68-.09-.68-.58a.54.54,0,0,1,.53-.47.45.45,0,0,1,.13,0l3.14.18a.49.49,0,0,0,.15.12c.06.05.15.11.15.22a.56.56,0,0,1,0,.17s0,.09,0,.11c-1.06.34-1.33.62-1.33,1.66a7.73,7.73,0,0,0,.1,1.24,6.7,6.7,0,0,1-.08,1.1.69.69,0,0,0,.06.13,2.16,2.16,0,0,1,.09.67.89.89,0,0,1,0,.3,3.05,3.05,0,0,0,0,.49,5.37,5.37,0,0,1-.1,1.25v0" transform="translate(-6.62 -6.68)" fill="#1d1d1b"/><path d="M55,56.09c.09,0,.24.08.26.38a.28.28,0,0,0,0,.11,1.39,1.39,0,0,1,0,.15s0,.05-.09.22L55.1,57a8,8,0,0,1-1.27,0c-.4,0-.72,0-1,0l-.59,0v-.23c0-.05-.05-.16-.07-.22a.84.84,0,0,0-.06-.28l.21,0c.42-.13.59-.17.59-.65a7,7,0,0,1-.19-.79c-.1-.6-.17-1-1.43-1-.21,0-.45,0-.81,0a4.15,4.15,0,0,0-.78,2l.34.3a.53.53,0,0,1,.34.47s0,.13,0,.15a3.26,3.26,0,0,1-1.69.37,1,1,0,0,1-.4.06h-.66c-.17,0-.23,0-.38-.47l.05-.24s0,0,0,0c.4-.26.74-.43.91-.52s.29-.19.4-.53l.06-.31.28-.51h0c0-.07,0-.11.05-.15a18.92,18.92,0,0,1,1.5-3.25h0c0-.13.1-.26.14-.41a1.07,1.07,0,0,0,.07-.15,4.16,4.16,0,0,1,.8-1.55l.59.19c.06.18.15.41.21.61.38,1.07.87,2.38,1.63,4.28h0l.17.3s0,0,0,0a.64.64,0,0,1,0,.09c.06.41.23,1.31.61,1.46l.23.09m-3.67-4.54-.13.19h0a5.07,5.07,0,0,0-.38.82,1.88,1.88,0,0,0,1,.19v0a.44.44,0,0,0,0-.19c0-.33-.22-.89-.53-1" transform="translate(-6.62 -6.68)" fill="#1d1d1b"/><path d="M57,51.4a1.74,1.74,0,0,0-.68-1.19A1.58,1.58,0,0,1,56,49.05l.38-.19c.43,0,.74.15.91.15l1.1,0c.28.07.26.2.32.2a.82.82,0,0,0,.44-.15,7.05,7.05,0,0,1,1.23-.09,9,9,0,0,1,1.6.17c.13.33.21.54.21.56a.06.06,0,0,0,0,0,.57.57,0,0,0-.08.26c-.61.13-.68.32-.7.43s.57,1.18,1,1.33a7.17,7.17,0,0,0,.59-1.46c-.46-.43-.67-.62-.67-.84v-.11c0-.15.19-.21,2.57-.21a1,1,0,0,0,.32.36c-.15.5-.82.71-1.05.84a8.43,8.43,0,0,0-1.42,2.63,9.26,9.26,0,0,0,1.1,1.78c.46-.3.78-1.48,1-2.15l.13-.28a9,9,0,0,0,.89-2.86,1.59,1.59,0,0,1,1-.37c.34,0,.44.41.49.91l-.17.13c-.49.34-.51.56-1.78,3.57a11,11,0,0,1-1.9,3.59,2.34,2.34,0,0,1-1-1.44c-.3-.84-.49-1.22-.74-1.27-1.12,2.07-1.44,2.67-1.8,2.67s-.8-.95-1-1.81L57,51.4m3.44.34c-.46-1-.93-1.89-1.83-2a2.76,2.76,0,0,1-.3.43,10.52,10.52,0,0,0,1.14,2.58l.36.65c.17.54.38,1.18.72,1.33,0-.06,0-.08.06-.11v0a3.72,3.72,0,0,0,.68-1.47,10.54,10.54,0,0,1-.83-1.44" transform="translate(-6.62 -6.68)" fill="#1d1d1b"/><path d="M75.23,55.85c0,.8,0,1.18-.57,1.18-.84,0-2,0-2.85-.08l-1.07-.05h-.26a4.2,4.2,0,0,1-1,.16c-.49,0-.49-.22-.49-.63l.11-.11h.15c.46-.06.93-.13.93-1.12l0-.23a4.52,4.52,0,0,1,0-.58,2.68,2.68,0,0,0,0-.39,3.33,3.33,0,0,0,0-.52,8.2,8.2,0,0,0,.1-1.63c0-1.7-.34-1.79-.61-1.87s-.4-.11-.44-.67a.81.81,0,0,0,.42-.24c.61,0,2.34,0,5,0a2.87,2.87,0,0,1,.53,1.44c0,.3-.1.69-.57.69-.36-.65-.78-1-1.24-1h-.13a1,1,0,0,0-.53-.1,2.42,2.42,0,0,0-.93.17,7.5,7.5,0,0,0-.21,2.06,1.34,1.34,0,0,0,.68.2.62.62,0,0,0,.36.08l.44,0a.57.57,0,0,0,.51-.36.64.64,0,0,1,.52-.39c.15.09.24.32.24.67v1.14c0,.43-.07.77-.36.77a.68.68,0,0,1-.55-.49h0c-.17-.33-.32-.67-1.54-.67a.31.31,0,0,1-.07.09,1.1,1.1,0,0,0-.27.81v.67a1.6,1.6,0,0,0-.06.39c0,.86.23.94.74.94h.29a1.12,1.12,0,0,0,.47.09,2.48,2.48,0,0,1,.38,0c.48,0,.52-.07,1-.71.19-.26.42-.45.57-.45a.21.21,0,0,1,.23.17l0,.09v.49" transform="translate(-6.62 -6.68)" fill="#1d1d1b"/><path d="M84.86,56.09c.09,0,.24.08.26.38a.28.28,0,0,0,0,.11,1.39,1.39,0,0,1,0,.15s0,.05-.09.22L85,57a8,8,0,0,1-1.27,0c-.4,0-.72,0-1,0l-.59,0v-.23c0-.05,0-.16-.07-.22a.84.84,0,0,0-.06-.28l.21,0c.42-.13.59-.17.59-.65a7,7,0,0,1-.19-.79c-.1-.6-.17-1-1.43-1-.21,0-.45,0-.81,0a4.15,4.15,0,0,0-.78,2l.34.3a.53.53,0,0,1,.34.47s0,.13,0,.15a3.26,3.26,0,0,1-1.69.37,1,1,0,0,1-.4.06h-.66c-.16,0-.23,0-.38-.47l0-.24s0,0,0,0c.4-.26.74-.43.91-.52s.29-.19.4-.53l.06-.31.28-.51h0a1,1,0,0,1,0-.15,20.2,20.2,0,0,1,1.5-3.25h0c0-.13.1-.26.14-.41a.52.52,0,0,0,.07-.15A4.16,4.16,0,0,1,81.4,49l.59.19c.06.18.15.41.21.61.38,1.07.87,2.38,1.63,4.28h0l.17.3s0,0,0,0a.64.64,0,0,1,0,.09c.06.41.23,1.31.61,1.46l.23.09m-3.67-4.54-.13.19h0a5.07,5.07,0,0,0-.38.82,1.88,1.88,0,0,0,1,.19v0a.44.44,0,0,0,0-.19c0-.33-.21-.89-.53-1" transform="translate(-6.62 -6.68)" fill="#1d1d1b"/><path d="M95.86,57.15l-.23.06a.82.82,0,0,1-.31,0,2.62,2.62,0,0,1-.37,0H93.38c-.69,0-1.22.13-1.6.13s-.68-.23-.76-.72a1.89,1.89,0,0,1,1.49-.77,2.26,2.26,0,0,1,.27-.36c-.07-.73-.11-1.58-.11-2.28,0-1,.15-1.88.15-2.56,0-.38,0-.7,0-1V48.16c-.09-.24-1.25-.36-1.33-1.37l.23-.23a1.22,1.22,0,0,1,.85-.36c.33,0,.6.19,1.16.19.93,0,1.38,0,1.38,0h.13c.43,0,1,0,1,.74s-.56.6-1.22,1a6.5,6.5,0,0,0-.25,2.34,4.9,4.9,0,0,0,0,.6h.07c.49,0,1.38.19,2.79.19h1.8a1.94,1.94,0,0,0,.21-1c0-.22,0-.41,0-.56,0-1-.11-1.6-.29-1.68-.5-.13-1.06-.09-1.1-1l.64-.53c1,0,1.64,0,2,0h.39c1.16,0,1.41,0,1.85.57a.77.77,0,0,0-.11.28c-.18.43-.76.49-1.24.62a9.82,9.82,0,0,0-.27,2.43c0,.76-.16,2.08-.16,3.83a10.76,10.76,0,0,0,.12,1.79c.54.21,1.28.06,1.28,1l0,.09s0,.19-.74.34a2.07,2.07,0,0,0-1.1-.23l-2.11.12c-.75,0-.83-.32-.83-.61v-.24c0,.09.37-.51,1-.51h.25c.17,0,.41,0,.41-2.15a8.08,8.08,0,0,0-.06-1.11,2,2,0,0,0-1.24-.28,1.45,1.45,0,0,1-.41.07A7.28,7.28,0,0,1,97,52.5c-.23,0-.5.09-.85.09s-.72-.07-1-.07a2.69,2.69,0,0,0-.46,0,19.1,19.1,0,0,0-.16,1.94,3.86,3.86,0,0,1,.16,1.23l.33.28c.09,0,.15,0,.27.08h.15c.33,0,.5.3.5.81l0,.09s0,.06-.08.15" transform="translate(-6.62 -6.68)" fill="#1d1d1b"/><path d="M106.08,56.47a4.66,4.66,0,0,1-2.07-3.7,4.46,4.46,0,0,1,2.17-3.6h0c.34-.21,1.31-.26,1.59-.49,1.94,0,2.89.49,4,2.36a2.75,2.75,0,0,1,.53,2v.73c-.44,1.51-2.28,3.38-3.91,3.38a11.64,11.64,0,0,1-2.26-.62l-.06,0M105.83,52a1.28,1.28,0,0,0-.09.48A5,5,0,0,0,106,54v.43a2.54,2.54,0,0,0,2.09,1.66c1.45,0,2.53-1.64,2.53-3.31s-.72-2.89-2.81-2.91a1.59,1.59,0,0,1-.76.19l-.74.61a7.67,7.67,0,0,0-.5,1.35Z" transform="translate(-6.62 -6.68)" fill="#1d1d1b"/><path d="M114.64,50c-.08,0-.06,1-.5,1l-.26-.11a1.93,1.93,0,0,1-.1-.6,3.59,3.59,0,0,1,.12-1.25l.47,0s0,0,.08-.05a4.43,4.43,0,0,0,.83.09h.65l.72-.09c.57,0,1.08.17,1.44.17a3.21,3.21,0,0,0,.63-.06,3.67,3.67,0,0,1,.89-.11l.84.05a1.72,1.72,0,0,1,.4.9,1.08,1.08,0,0,1,.13.56c0,.56-.32.45-.59.6-.44-.84-.87-1-1.9-1-.13.09-.61.13-.61.37,0,1.65.1,3.33.16,5,.32.32,1.23.32,1.23.84,0,.34-.4.49-.74.49s-.59-.21-1-.21c-.21,0-1.23.17-1.73.17-.3,0-.34-.21-.41-.37h0s0,0-.15-.17l.4-.19a1.42,1.42,0,0,0,1-1.55s-.1-.77-.1-1.16l.14-1.53v-.28c0-.65,0-1.57-.69-1.57a1,1,0,0,1-.28,0l-.32,0h-.76" transform="translate(-6.62 -6.68)" fill="#1d1d1b"/><path d="M128.9,55.76c0,.79,0,1.18-.57,1.18-.84,0-2,0-2.85-.09l-1.08,0h-.25a4.08,4.08,0,0,1-1,.15c-.49,0-.49-.21-.49-.62l.11-.11h.14c.47-.07.93-.13.93-1.12l0-.24a4.8,4.8,0,0,1,0-.58,1.71,1.71,0,0,0,0-.38,3.14,3.14,0,0,0-.05-.52,7.45,7.45,0,0,0,.11-1.64c0-1.7-.34-1.78-.61-1.87s-.4-.11-.45-.67a.88.88,0,0,0,.43-.23c.61,0,2.34,0,5,0a2.93,2.93,0,0,1,.53,1.44c0,.3-.11.69-.57.69-.36-.64-.78-1-1.25-1h-.12a.91.91,0,0,0-.53-.11,2.62,2.62,0,0,0-.93.17,7.2,7.2,0,0,0-.21,2.07,1.31,1.31,0,0,0,.67.19.57.57,0,0,0,.36.09l.45,0a.57.57,0,0,0,.5-.37.66.66,0,0,1,.53-.38c.15.08.23.32.23.66v1.14c0,.43-.06.78-.35.78a.69.69,0,0,1-.55-.5h0c-.17-.32-.32-.66-1.55-.66a.28.28,0,0,1-.06.08,1.12,1.12,0,0,0-.27.82v.67a1.35,1.35,0,0,0-.07.38c0,.86.24,1,.74,1h.3a1.19,1.19,0,0,0,.46.09,1.76,1.76,0,0,1,.38,0c.49,0,.53-.06,1-.71.19-.25.42-.45.57-.45s.19.07.23.18l0,.08v.5" transform="translate(-6.62 -6.68)" fill="#1d1d1b"/><path d="M131.44,56.19s1.14-.22,1.14-.91c0-.15-.12-.79-.12-1.16,0,.15.12-2.24.12-3.38v-.26c-.38-.55-1.12-.43-1.22-1.09,0-.41.57-.41,1-.41h.09a.52.52,0,0,0,.25.06,2.65,2.65,0,0,0,.63-.08c.19,0,.72,0,1.46,0l.4.51-.06.11c-.36.76-1.18.48-1.18,1.9l0,.21c0,.37,0,.69,0,1s0,.47,0,.67l0,.49a3.1,3.1,0,0,0-.07.63,3.37,3.37,0,0,0,.24,1.31,4.22,4.22,0,0,0,1.2.13,2.66,2.66,0,0,0,1.37-.22h0l.21-.24v0c.21-.28.57-.71.91-.74a.43.43,0,0,1,.25.44,3,3,0,0,1-.33,1.2,1,1,0,0,1-.66.54,2.82,2.82,0,0,0-.4,0,1.42,1.42,0,0,0-.3,0,11,11,0,0,0-2-.17c-.66,0-1.1.12-2.14.12-.48,0-.78-.17-.82-.55l.08-.13" transform="translate(-6.62 -6.68)" fill="#1d1d1b"/><path d="M39.19,71.19A2.19,2.19,0,0,1,38,72c-.22,0-.32-.2-.18-.77l.39-1.7c.07-.31,0-.43-.07-.43-.27,0-1,.71-1.32,1.29-.09.37-.21,1-.29,1.45a4.89,4.89,0,0,0-.76.16l-.06-.06c.31-1.39.65-3,.93-4.56a13,13,0,0,0-1.32-.07h-.36l-.74,3.62c-.13.63-.08.69.6.75l-.06.23H32.46l0-.23c.61-.06.67-.12.81-.75l.79-3.62h-.44c-.62,0-.8.07-1,.23a3.21,3.21,0,0,0-.41.68h-.26a13.88,13.88,0,0,0,.37-1.39h.19c.08.17.14.18.35.18h3.1c.51,0,.6,0,.64-.14l0-.11a4.16,4.16,0,0,1,.73-.21c.09,0,.1.06,0,.25-.21,1-.41,2-.63,3h0a4.52,4.52,0,0,1,1.23-1.13,1.18,1.18,0,0,1,.57-.2c.21,0,.45.13.27.92L38.59,71c-.05.23,0,.29,0,.3a1.33,1.33,0,0,0,.48-.31Z" transform="translate(-6.62 -6.68)" fill="#1d1d1b"/><path d="M40.53,69.22a2.3,2.3,0,0,1,1.17-.77c.21,0,.26.28.13.88l-.07.34h0c.37-.69.77-1.22,1.1-1.22a.44.44,0,0,1,.35.2.37.37,0,0,1,0,.41,1,1,0,0,1-.24.28.14.14,0,0,1-.18,0,.46.46,0,0,0-.29-.14c-.08,0-.17.05-.33.27a4.06,4.06,0,0,0-.47.86c-.09.44-.21,1-.28,1.46a3.44,3.44,0,0,0-.75.15l-.05-.07c.19-.79.37-1.62.52-2.43,0-.24,0-.34,0-.34a1.4,1.4,0,0,0-.49.31Z" transform="translate(-6.62 -6.68)" fill="#1d1d1b"/><path d="M46.79,71a2.36,2.36,0,0,1-1.71.91c-.41,0-.89-.22-.89-1.12a2.48,2.48,0,0,1,.89-1.92,2.13,2.13,0,0,1,1.16-.46.66.66,0,0,1,.74.63c0,.77-1.22,1.15-2,1.35a1.86,1.86,0,0,0,0,.22c0,.39.13.76.55.76a1.84,1.84,0,0,0,1.09-.57Zm-1.12-2.17a1.77,1.77,0,0,0-.62,1.29c.9-.26,1.2-.59,1.2-1s-.18-.41-.32-.41A.43.43,0,0,0,45.67,68.87Z" transform="translate(-6.62 -6.68)" fill="#1d1d1b"/><path d="M50.78,71a2.36,2.36,0,0,1-1.71.91c-.41,0-.89-.22-.89-1.12a2.52,2.52,0,0,1,.89-1.92,2.13,2.13,0,0,1,1.16-.46.66.66,0,0,1,.74.63c0,.77-1.21,1.15-2,1.35a1.86,1.86,0,0,0,0,.22c0,.39.14.76.55.76a1.81,1.81,0,0,0,1.09-.57Zm-1.12-2.17A1.81,1.81,0,0,0,49,70.16c.9-.26,1.2-.59,1.2-1s-.18-.41-.32-.41A.43.43,0,0,0,49.66,68.87Z" transform="translate(-6.62 -6.68)" fill="#1d1d1b"/><path d="M58.86,67c0,.19-.09.77-.13,1.17l-.26,0a1.92,1.92,0,0,0-.12-.68c-.08-.16-.23-.22-.72-.22h-.48c-.26,0-.3,0-.35.31l-.31,1.65h.69c.65,0,.68-.06.89-.55h.25L58,70.18h-.24c0-.56,0-.62-.68-.62h-.69l-.25,1.35c-.11.6,0,.66.62.72l-.05.23H54.55l.05-.23c.54-.06.6-.12.72-.72l.57-3c.12-.62.08-.67-.51-.72l.06-.24Z" transform="translate(-6.62 -6.68)" fill="#1d1d1b"/><path d="M59.56,70.74a2.27,2.27,0,0,1,1.14-2,2.17,2.17,0,0,1,.92-.26c.71,0,1.08.46,1.08,1.19a2.42,2.42,0,0,1-.8,1.83,2,2,0,0,1-1.25.48C59.81,72,59.56,71.33,59.56,70.74Zm1.59.85c.33-.13.7-.94.7-2,0-.59-.22-.85-.5-.85a.54.54,0,0,0-.22,0c-.24.11-.71.74-.71,2,0,.57.23.87.52.87A.65.65,0,0,0,61.15,71.59Z" transform="translate(-6.62 -6.68)" fill="#1d1d1b"/><path d="M64.09,69.22a2.3,2.3,0,0,1,1.17-.77c.22,0,.27.28.14.88l-.07.34h0c.36-.69.77-1.22,1.09-1.22a.42.42,0,0,1,.35.2.36.36,0,0,1,0,.41,1,1,0,0,1-.24.28.14.14,0,0,1-.18,0,.46.46,0,0,0-.29-.14c-.08,0-.17.05-.33.27a3.66,3.66,0,0,0-.47.86c-.1.44-.21,1-.29,1.46a3.34,3.34,0,0,0-.74.15l-.06-.07c.19-.79.37-1.62.52-2.43,0-.24,0-.34,0-.34a1.25,1.25,0,0,0-.49.31Z" transform="translate(-6.62 -6.68)" fill="#1d1d1b"/><path d="M71.09,71.24c-.4.57-.77.71-1,.71s-.36-.14-.53-.52a12.06,12.06,0,0,1-.49-1.32,1.83,1.83,0,0,0-.31.37c-.1.51-.19.94-.25,1.32a5.11,5.11,0,0,0-.76.15l0,0c.34-1.48.66-2.92,1-4.51.07-.31,0-.35-.26-.37h-.21l0-.22a11.41,11.41,0,0,0,1.28-.27c.09,0,.09.07.06.23-.25,1.09-.48,2.14-.73,3.22h0c.22-.25.4-.45.61-.65.42-.42.89-.88,1.27-.88.21,0,.37.12.37.26a.68.68,0,0,1-.18.38s-.1.07-.14,0a.93.93,0,0,0-.35-.07,1.24,1.24,0,0,0-.81.47,10.09,10.09,0,0,0,.43,1.14c.21.47.32.68.43.68s.23-.1.41-.31Z" transform="translate(-6.62 -6.68)" fill="#1d1d1b"/><path d="M72.11,71.36a.45.45,0,0,1,.24-.38c.11-.07.18-.06.23,0a1.18,1.18,0,0,0,.82.53.37.37,0,0,0,.4-.34c0-.16-.1-.31-.47-.59s-.73-.52-.73-1a1,1,0,0,1,.45-.8,1.55,1.55,0,0,1,.9-.38c.37,0,.65.23.65.47a.48.48,0,0,1-.23.38.13.13,0,0,1-.2,0,.86.86,0,0,0-.65-.4.31.31,0,0,0-.33.33c0,.22.24.42.52.62.44.3.7.55.7.93,0,.64-.83,1.2-1.47,1.2C72.54,72,72.11,71.69,72.11,71.36Z" transform="translate(-6.62 -6.68)" fill="#1d1d1b"/><path d="M75.53,72.53c.43-.18.73-.44.74-.75a.43.43,0,0,0-.36-.45.13.13,0,0,1-.09-.13.46.46,0,0,1,.44-.45.7.7,0,0,1,.62.78c0,.69-.64,1.08-1.26,1.24Z" transform="translate(-6.62 -6.68)" fill="#1d1d1b"/><path d="M86.13,67.2c-.61.06-.63.09-.72.66-.16,1.1-.27,2-.39,3-.09.71,0,.75.53.81l0,.23h-2l.06-.23c.5-.06.56-.11.66-.81.17-1.09.32-2,.48-3h0l-2.34,4h-.21c-.22-1.32-.44-2.53-.7-4h0l-.53,1.91a11.7,11.7,0,0,0-.34,1.4c0,.34,0,.44.55.49l0,.23H79.24l.06-.23a.69.69,0,0,0,.71-.49c.09-.26.23-.64.47-1.44l.5-1.65c.21-.7.16-.79-.51-.85l.07-.24H82c.23,1.15.48,2.21.73,3.44L84.8,67h1.39Z" transform="translate(-6.62 -6.68)" fill="#1d1d1b"/><path d="M87,70.74a2.27,2.27,0,0,1,1.13-2,2.18,2.18,0,0,1,.93-.26,1,1,0,0,1,1.08,1.19,2.43,2.43,0,0,1-.81,1.83A2,2,0,0,1,88.1,72C87.26,72,87,71.33,87,70.74Zm1.58.85c.33-.13.7-.94.7-2,0-.59-.21-.85-.5-.85a.57.57,0,0,0-.22,0,2.27,2.27,0,0,0-.71,2c0,.57.24.87.52.87A.6.6,0,0,0,88.59,71.59Z" transform="translate(-6.62 -6.68)" fill="#1d1d1b"/><path d="M95.09,71.18a2.11,2.11,0,0,1-1.21.77c-.21,0-.34-.17-.19-.8s.25-1.07.37-1.61.06-.49,0-.49c-.28,0-1,.83-1.34,1.37-.11.39-.22.9-.31,1.37a3.8,3.8,0,0,0-.75.16l0-.07c.19-.78.39-1.63.58-2.49.06-.23,0-.29,0-.29a1.32,1.32,0,0,0-.48.32l-.1-.21a2.18,2.18,0,0,1,1.2-.76c.2,0,.27.23.12.91l-.11.48h0A4.83,4.83,0,0,1,94,68.66a1.18,1.18,0,0,1,.58-.21c.23,0,.46.13.23,1.13q-.16.7-.33,1.44c0,.18,0,.27,0,.27A1.27,1.27,0,0,0,95,71Z" transform="translate(-6.62 -6.68)" fill="#1d1d1b"/><path d="M98.54,68.87l-.72,0-.41,2c-.07.35,0,.45,0,.45a1.67,1.67,0,0,0,.64-.41l.12.18a2.26,2.26,0,0,1-1.33.85c-.24,0-.4-.25-.23-1l.42-2h-.55l0-.07.21-.27h.45l.17-.7.77-.52.08.06-.27,1.16h.85Z" transform="translate(-6.62 -6.68)" fill="#1d1d1b"/><path d="M103,71.1a2.16,2.16,0,0,1-1.25.85c-.17,0-.32-.1-.19-.75l.11-.51h0a4.53,4.53,0,0,1-.82.89,1.34,1.34,0,0,1-.78.37c-.25,0-.5-.3-.5-.9a2.78,2.78,0,0,1,.86-2,2.71,2.71,0,0,1,1.55-.63,2.8,2.8,0,0,1,.48,0,2.1,2.1,0,0,0,.38.06l0,0c-.15.58-.35,1.47-.51,2.38,0,.24,0,.31,0,.31a1.59,1.59,0,0,0,.52-.38Zm-1.23-1c.09-.35.22-1,.26-1.19a1.2,1.2,0,0,0-.46-.1.65.65,0,0,0-.4.12,2.68,2.68,0,0,0-.76,2c0,.31.07.45.18.45C100.87,71.34,101.6,70.46,101.78,70.1Z" transform="translate(-6.62 -6.68)" fill="#1d1d1b"/><path d="M107.83,71.18a2.13,2.13,0,0,1-1.22.77c-.2,0-.33-.17-.19-.8s.26-1.07.38-1.61.06-.49,0-.49c-.28,0-1,.83-1.33,1.37-.11.39-.22.9-.31,1.37a3.8,3.8,0,0,0-.75.16l-.05-.07c.19-.78.39-1.63.58-2.49,0-.23,0-.29,0-.29a1.24,1.24,0,0,0-.48.32l-.11-.21a2.19,2.19,0,0,1,1.21-.76c.2,0,.27.23.12.91l-.11.48h0a5.19,5.19,0,0,1,1.2-1.18,1.21,1.21,0,0,1,.58-.21c.24,0,.46.13.24,1.13q-.17.7-.33,1.44c0,.18,0,.27,0,.27a1.27,1.27,0,0,0,.47-.33Z" transform="translate(-6.62 -6.68)" fill="#1d1d1b"/><path d="M112.63,71.1a2.2,2.2,0,0,1-1.26.85c-.16,0-.31-.1-.19-.75l.11-.51h0a4.87,4.87,0,0,1-.83.89,1.32,1.32,0,0,1-.77.37c-.26,0-.5-.3-.5-.9a2.78,2.78,0,0,1,.86-2,2.65,2.65,0,0,1,1.55-.63,2.59,2.59,0,0,1,.47,0,2.06,2.06,0,0,0,.39.06l0,0c-.15.58-.34,1.47-.5,2.38,0,.24,0,.31,0,.31a1.59,1.59,0,0,0,.52-.38Zm-1.24-1a11.49,11.49,0,0,0,.26-1.19,1.12,1.12,0,0,0-.46-.1.68.68,0,0,0-.4.12,2.67,2.67,0,0,0-.75,2c0,.31.07.45.17.45C110.48,71.34,111.22,70.46,111.39,70.1Z" transform="translate(-6.62 -6.68)" fill="#1d1d1b"/></svg>