<svg id="Layer_1" data-name="Layer 1" xmlns="http://www.w3.org/2000/svg" width="111.14" height="100.44" viewBox="0 0 111.14 100.44"><title>town-pump</title><path d="M113.21,106H2.08V5.53H113.21Zm-6.29-22.06a1.35,1.35,0,0,0-.49,0H67.79c-.1,0-.17,0-.17.15V89.4c0,.66.08.58-.58.58H47.92c-.29,0-.3,0-.31-.31V89.4c0-1.63,0-3.27,0-4.9,0-.71.09-.61-.59-.61H8.66c-.46,0-.45,0-.27.4.88,1.95,1.74,3.89,2.63,5.83a.82.82,0,0,1,0,.76c-.87,1.9-1.72,3.8-2.57,5.71a.91.91,0,0,0-.16.47,1.38,1.38,0,0,0,.53,0H40.59c.19,0,.22,0,.22.21s0,.24,0,.36c0,1.47,0,2.94,0,4.41,0,.69-.08.6.6.6H74.19c.19,0,.22,0,.23-.21V97.7c0-.7-.09-.6.6-.6h31.41a1.21,1.21,0,0,0,.5,0c0-.17-.07-.29-.13-.42q-1.3-2.92-2.62-5.83a.69.69,0,0,1,0-.64c.37-.79.72-1.59,1.08-2.39.52-1.16,1-2.32,1.56-3.48C106.88,84.18,107,84.07,106.92,83.92Zm-.07-42.79V16.62c0-.14,0-.28,0-.41s0-.21-.19-.24l-.49-.09-3.58-.57-3.67-.6-3.71-.6-3.63-.59-3-.49-3.67-.59-3.63-.58-3.71-.61-3.67-.59-3.63-.59-3-.49L63.47,9l-3.09-.5L57.52,8a.61.61,0,0,0-.27,0l-.67.11L53,8.71l-3.09.5-3.62.59-3.63.58-3.67.6-3.63.58-3.67.6L28,12.74l-4.21.69-4.74.76c-1.78.28-3.55.58-5.33.87s-3.55.55-5.33.85c-.56.1-.5,0-.5.57V66.11a.17.17,0,0,0,.15.19l.8.13,3.63.59,3.09.5,3.62.58,3.63.59,3.67.59,3.63.58,4.74.78,4.75.76,6.44,1,5.91.94,5.24.86a1.07,1.07,0,0,0,.31,0L59.31,74l3.63-.58,3.62-.59,3.72-.6,3-.49L77,71.1l3.67-.59,3.63-.59,3.63-.58,3.67-.6,3.71-.6,3.58-.58,3.63-.58c1.25-.2,2.51-.39,3.76-.61.71-.12.58,0,.58-.67Q106.87,53.41,106.85,41.13Zm-85,37.51a1,1,0,0,1,.16.43l.54,2.61c0,.18.06.2.25.2.68,0,.51.08.65-.53s.32-1.53.48-2.3a.51.51,0,0,1,.16-.36v2.72c0,.52,0,.47.5.47h.09a.15.15,0,0,0,.14-.15V77.38a.15.15,0,0,0-.17-.17h-.82a.19.19,0,0,0-.21.18,2.44,2.44,0,0,0-.06.26c-.16.72-.31,1.45-.47,2.17a.7.7,0,0,1-.14.35c0-.14-.08-.27-.11-.4-.12-.56-.24-1.12-.37-1.68a2.35,2.35,0,0,0-.24-.86,6.76,6.76,0,0,0-.9,0h-.09a.13.13,0,0,0-.12.12c0,.07,0,.15,0,.22v4a1.09,1.09,0,0,0,0,.18.15.15,0,0,0,.14.15h.27c.31,0,.31,0,.32-.3V78.64Zm25.12.9c0-.15,0-.3,0-.45a2.6,2.6,0,0,0-.37-1.15,1.74,1.74,0,0,0-3,.1,1.85,1.85,0,0,0-.13.29,3.65,3.65,0,0,0,0,2.44,1.69,1.69,0,0,0,2,1.16,1.53,1.53,0,0,0,1-.59,2.19,2.19,0,0,0,.34-.64A2.84,2.84,0,0,0,47,79.54Zm28.88,0a3.19,3.19,0,0,0-.26-1.33,1.67,1.67,0,0,0-1.5-1.06,1.62,1.62,0,0,0-1.57.8,2,2,0,0,0-.18.36,3.67,3.67,0,0,0,0,2.49,1.67,1.67,0,0,0,1.93,1.14,1.55,1.55,0,0,0,1.07-.61,1.9,1.9,0,0,0,.33-.63A3.56,3.56,0,0,0,75.89,79.53Zm-27.56.92a1.21,1.21,0,0,1,0-.14c-.11-.46-.23-.91-.32-1.37s-.13-.44-.6-.45h0c-.15,0-.18.05-.15.2.24.9.47,1.81.71,2.71.15.55,0,.48.67.48.13,0,.18-.07.21-.19.08-.4.17-.8.26-1.19,0-.17.08-.33.13-.5a.19.19,0,0,1,.13.19c.09.4.19.8.27,1.2.12.59.08.48.64.49.1,0,.18,0,.2-.14a2.58,2.58,0,0,0,.08-.26c.22-.85.44-1.7.67-2.54.15-.52.1-.45-.37-.45-.24,0-.24,0-.3.24-.13.51-.25,1-.37,1.54,0,.08,0,.15-.15.17-.1-.5-.19-1-.31-1.5s0-.45-.55-.45c-.24,0-.26,0-.32.28-.11.47-.2.94-.3,1.41A.38.38,0,0,1,48.33,80.45Zm28.78,1.17c.09,0,.12.07.18.11a.89.89,0,0,0,1.26-.09,1.39,1.39,0,0,0,.33-.53,3.17,3.17,0,0,0,0-1.83,1.35,1.35,0,0,0-.42-.63.92.92,0,0,0-1.13-.06c-.08,0-.14.12-.22.17s-.11,0-.11-.07-.08-.21-.23-.2h-.32a.14.14,0,0,0-.14.14v4.13a2.44,2.44,0,0,0,0,.27c0,.06,0,.12.1.12s.41.08.57,0,.06-.31.06-.47,0-.54,0-.81C77.07,81.76,77,81.69,77.11,81.62ZM69.64,78.8l-.25-.2a1,1,0,0,0-1.27.15,1,1,0,0,0-.26.42,3,3,0,0,0,0,2,1.25,1.25,0,0,0,.36.52.89.89,0,0,0,1.13.06c.07,0,.13-.12.2-.18s.11,0,.14.07,0,.21.21.21h.32a.16.16,0,0,0,.16-.18V77.76c0-.65.06-.55-.6-.55a.14.14,0,0,0-.15.14c0,.12,0,.24,0,.36ZM59.26,81.53c.05.39,0,.34.33.35a1.22,1.22,0,0,0,.27,0,.13.13,0,0,0,.12-.11c0-.06,0-.12,0-.18v-4c0-.34,0-.34-.37-.34s-.39,0-.39.4V78c0,.23,0,.45,0,.68a.08.08,0,0,1-.1.06L59,78.6a1,1,0,0,0-1.3.18,1.28,1.28,0,0,0-.28.51,3.12,3.12,0,0,0,0,1.79,1.34,1.34,0,0,0,.48.69.87.87,0,0,0,1,0C59,81.73,59.12,81.64,59.26,81.53ZM105.14,69a2.64,2.64,0,1,0,2.57,2.66A2.59,2.59,0,0,0,105.14,69Zm-11.9,9.74-.19-.14a.94.94,0,0,0-1.24.12,1.41,1.41,0,0,0-.38.71,3.09,3.09,0,0,0,0,1.48,1.58,1.58,0,0,0,.45.78.88.88,0,0,0,1.16.08c.09-.06.15-.18.28-.2.1.31.1.31.39.31h.23c.07,0,.1-.05.11-.12s0-.21,0-.31V77.72c0-.57,0-.51-.52-.51-.18,0-.21,0-.22.2V78c0,.23,0,.46,0,.68ZM85.77,81.6c.18.28.18.28.43.28h.27c.09,0,.14-.06.11-.15a4.09,4.09,0,0,1-.11-1.3c0-.41,0-.82,0-1.22a.83.83,0,0,0-.72-.76,3.32,3.32,0,0,0-.63,0,1,1,0,0,0-.93.74c0,.15,0,.23.14.27l.18,0a.28.28,0,0,0,.4-.14.46.46,0,0,1,.63-.17.36.36,0,0,1,.22.36c0,.13,0,.17-.23.23l-.69.19A1,1,0,0,0,84,81.11a.91.91,0,0,0,1.37.73C85.53,81.78,85.63,81.69,85.77,81.6ZM41.55,80.33a6.54,6.54,0,0,0,0-1.17.82.82,0,0,0-.72-.71,2.49,2.49,0,0,0-.77,0,.87.87,0,0,0-.67.48c-.21.42-.23.47.25.55.15,0,.24,0,.33-.12a.48.48,0,0,1,.66-.2.37.37,0,0,1,.22.36c0,.16-.11.2-.23.23s-.5.13-.74.21a1,1,0,0,0-.68,1.37.82.82,0,0,0,.76.61,1,1,0,0,0,.68-.17c.08,0,.15-.13.23-.14s.08.13.14.19a.18.18,0,0,0,.12.05h.27c.31,0,.31,0,.25-.33a2.72,2.72,0,0,1,0-.49C41.55,80.81,41.55,80.57,41.55,80.33Zm22.62,0h0c0-.24,0-.48,0-.73a2.72,2.72,0,0,0,0-.49.76.76,0,0,0-.66-.66,2.19,2.19,0,0,0-.63,0,1,1,0,0,0-1,.78c0,.11,0,.18.1.21s.21,0,.31.07.21,0,.29-.12a.49.49,0,0,1,.66-.21.35.35,0,0,1,.22.36c0,.11,0,.17-.22.23l-.7.19a1,1,0,0,0-.78,1.11.91.91,0,0,0,1.37.79,2,2,0,0,0,.3-.2c.06,0,.12,0,.14,0s.15.19.3.19c.45,0,.44,0,.37-.41a2.73,2.73,0,0,1,0-.41C64.16,80.82,64.17,80.58,64.17,80.34Zm-30.29-.82.09-.16a.51.51,0,0,1,.67-.2.33.33,0,0,1,.22.36c0,.13,0,.17-.22.23s-.53.14-.79.23a1,1,0,0,0-.67,1.21.91.91,0,0,0,1.39.63,3.88,3.88,0,0,0,.33-.23s.05,0,.06.08.11.24.29.21h.18c.37,0,.3,0,.24-.29a2.94,2.94,0,0,1-.08-.72c0-.36,0-.72,0-1.09a5.62,5.62,0,0,0,0-.58.8.8,0,0,0-.69-.74,2.44,2.44,0,0,0-.81,0,.84.84,0,0,0-.62.41c-.31.54-.28.53.24.63Zm3-.67c-.09-.37-.09-.37-.41-.36h-.18c-.08,0-.14.05-.14.14a2.44,2.44,0,0,0,0,.27v2.54c0,.45,0,.45.45.44h.09c.18,0,.21,0,.21-.21,0-.46,0-.91,0-1.36a5.72,5.72,0,0,1,0-.59.7.7,0,0,1,.27-.51.42.42,0,0,1,.68.24,1.6,1.6,0,0,1,0,.44c0,.58,0,1.15,0,1.73,0,.24,0,.26.25.26s.25,0,.37,0a.14.14,0,0,0,.12-.12,1.09,1.09,0,0,0,0-.18c0-.63,0-1.27,0-1.9a4.07,4.07,0,0,0,0-.5.86.86,0,0,0-.52-.69.93.93,0,0,0-.91.1A2.82,2.82,0,0,0,36.91,78.85Zm-11.6,1.31a2,2,0,0,0,.26,1.13,1.32,1.32,0,0,0,2.26.06,2.29,2.29,0,0,0,0-2.32,1.33,1.33,0,0,0-2.24,0A1.94,1.94,0,0,0,25.31,80.16Zm31.61.78-.54-.12a.16.16,0,0,0-.21.12.51.51,0,0,1-.09.16.41.41,0,0,1-.6.08.72.72,0,0,1-.29-.5c0-.17,0-.22.17-.23h1.45c.1,0,.18,0,.18-.15a2.52,2.52,0,0,0-.34-1.39,1.18,1.18,0,0,0-1.87,0,2.54,2.54,0,0,0-.06,2.58l0,0a1.28,1.28,0,0,0,1.74.24A1.15,1.15,0,0,0,56.92,80.94Zm-4.7-2.09c-.07-.36-.07-.36-.37-.36h-.23a.16.16,0,0,0-.14.15v2.72c0,.58-.07.52.55.52.16,0,.2,0,.2-.22V80.34q0-.36.06-.72a.53.53,0,0,1,.33-.45.4.4,0,0,1,.58.24,1.6,1.6,0,0,1,.07.54v1.58c0,.35,0,.35.35.35h.19c.17,0,.2,0,.2-.22,0-.72,0-1.45,0-2.17a1.51,1.51,0,0,0-.1-.53.75.75,0,0,0-.55-.5.92.92,0,0,0-.86.16Zm-22.88,0c-.12-.35-.12-.35-.44-.34h-.13c-.15,0-.18,0-.18.2s0,.21,0,.32v2.36c0,.58-.06.51.55.51.15,0,.19,0,.19-.19,0-.5,0-1,0-1.5a2.69,2.69,0,0,1,.06-.63.63.63,0,0,1,.26-.36.41.41,0,0,1,.66.27,3.35,3.35,0,0,1,.05.63c0,.43,0,.85,0,1.27,0,.58,0,.51.51.51.2,0,.24,0,.24-.24,0-.68,0-1.36,0-2a2.3,2.3,0,0,0-.05-.45.89.89,0,0,0-1.41-.57A2.83,2.83,0,0,0,29.34,78.83Zm59.93,1.63h1.67a.12.12,0,0,0,.12-.11,2.42,2.42,0,0,0-.32-1.39,1.15,1.15,0,0,0-1.91,0,1.92,1.92,0,0,0-.18.31,2.73,2.73,0,0,0,0,1.91,1.19,1.19,0,0,0,1.36.8,1.15,1.15,0,0,0,1-.87c0-.07,0-.13-.07-.14l-.48-.11a.16.16,0,0,0-.19.1.34.34,0,0,1-.06.12.43.43,0,0,1-.75,0A.76.76,0,0,1,89.27,80.46ZM81.78,81l-.37-.09-.18,0a.17.17,0,0,0-.22.1.8.8,0,0,1-.08.16.41.41,0,0,1-.6.09.66.66,0,0,1-.28-.44c-.06-.23,0-.28.19-.29h1.41c.1,0,.18,0,.18-.15a2.52,2.52,0,0,0-.25-1.23,1.13,1.13,0,0,0-1-.65,1.09,1.09,0,0,0-1,.59,2,2,0,0,0-.18.42,2.93,2.93,0,0,0,0,1.47,1.71,1.71,0,0,0,.21.5,1.21,1.21,0,0,0,1.34.52A1.16,1.16,0,0,0,81.78,81ZM65.47,78.84c-.08-.35-.08-.35-.38-.35h-.18c-.14,0-.17,0-.18.2v2.72c0,.51,0,.47.5.47.22,0,.24,0,.24-.27,0-.45,0-.91,0-1.36,0-.21,0-.42,0-.63a.51.51,0,0,1,.15-.32.45.45,0,0,1,.49-.16.39.39,0,0,1,.3.36c0,.19,0,.39,0,.58v1.45c0,.35,0,.35.35.35h.18c.18,0,.21,0,.21-.22V79.54a1.49,1.49,0,0,0-.05-.36.9.9,0,0,0-1.46-.57C65.66,78.67,65.59,78.75,65.47,78.84ZM87.83,77.3l-.64.45a.28.28,0,0,0-.12.23,2.43,2.43,0,0,1,0,.27c0,.14,0,.24-.18.24a.14.14,0,0,0-.14.15c0,.1,0,.21,0,.32s0,.26.21.27.12.12.12.21v1.31a5.65,5.65,0,0,0,0,.59.66.66,0,0,0,.8.61c.44,0,.48-.08.43-.53,0-.09,0-.19-.08-.25a.91.91,0,0,1-.17,0c-.17,0-.22,0-.24-.2a2.17,2.17,0,0,1,0-.36c0-.29,0-.57,0-.86s-.06-.35,0-.48.29,0,.45-.14c0-.15,0-.33,0-.51a.12.12,0,0,0-.1-.13l-.23,0a.15.15,0,0,1-.16-.17ZM32.48,78.45v-1c-.14,0-.19,0-.27.08-.31.19-.56.4-.47.82a.13.13,0,0,1-.11.17c-.19,0-.24.1-.23.26s0,.21,0,.31,0,.16.13.16.22.11.21.27v1.18c0,.21,0,.42,0,.63a.66.66,0,0,0,.79.66c.44,0,.51-.11.45-.56,0-.2,0-.2-.25-.21s-.26,0-.26-.23c0-.52,0-1,0-1.58a.14.14,0,0,1,.14-.15h.18c.14,0,.16,0,.17-.2V79C33,78.51,33,78.51,32.48,78.45ZM83,78.79c-.11-.3-.11-.3-.37-.3h-.27a.1.1,0,0,0-.11.11c0,.11,0,.21,0,.32v2.44c0,.57-.07.51.55.51.14,0,.19,0,.19-.19,0-.43,0-.87,0-1.31a4.9,4.9,0,0,1,.08-.76c.07-.32.24-.41.57-.34.18,0,.19,0,.24-.14s.07-.23.1-.34,0-.29-.17-.34a.59.59,0,0,0-.69.19Z" transform="translate(-2.08 -5.53)" fill="#fdfdfd"/><path d="M106.92,83.92c.06.15,0,.26-.1.38-.51,1.16-1,2.32-1.56,3.48-.36.8-.71,1.6-1.08,2.39a.69.69,0,0,0,0,.64q1.32,2.91,2.62,5.83c.06.13.17.25.13.42a1.21,1.21,0,0,1-.5,0H75c-.69,0-.6-.1-.6.6v4.77c0,.18,0,.2-.23.21H41.42c-.68,0-.6.09-.6-.6,0-1.47,0-2.94,0-4.41,0-.12,0-.24,0-.36s0-.2-.22-.21H8.81a1.38,1.38,0,0,1-.53,0,.91.91,0,0,1,.16-.47c.85-1.91,1.7-3.81,2.57-5.71a.82.82,0,0,0,0-.76c-.89-1.94-1.75-3.88-2.63-5.83-.18-.4-.19-.41.27-.4H47c.68,0,.59-.1.59.61,0,1.63,0,3.27,0,4.9v.27c0,.29,0,.3.31.31H67c.66,0,.58.08.58-.58V84c0-.11.07-.15.17-.15h38.64A1.35,1.35,0,0,1,106.92,83.92ZM70.1,87.62,70,87.53a.2.2,0,0,0-.18-.19.26.26,0,0,0-.09-.18.21.21,0,0,0-.18-.18.29.29,0,0,0-.1-.18l-.09-.09a.2.2,0,0,0-.18-.19c0-.09-.08-.19-.13-.28s-.08-.13-.17-.11-.07.09-.07.15,0,.21,0,.32v1.89c0,.34,0,.67,0,1s.07.32.33.32h2.34c.08,0,.16,0,.19-.08a.19.19,0,0,0-.07-.2.45.45,0,0,0-.14-.1.29.29,0,0,0-.1-.18l-.09-.09A.19.19,0,0,0,71.1,89,.24.24,0,0,0,71,88.8a.22.22,0,0,0-.18-.19.27.27,0,0,0-.1-.18l-.09-.09a.19.19,0,0,0-.17-.18.29.29,0,0,0-.1-.18.19.19,0,0,0-.18-.18A.24.24,0,0,0,70.1,87.62ZM44.18,88.89c-.1,0-.15.08-.17.18a.36.36,0,0,0-.19.27c-.17,0-.21.2-.3.32s0,.13.07.14H46c.4,0,.41,0,.41-.4v-3a1.64,1.64,0,0,0,0-.22s0,0,0-.06a.1.1,0,0,0-.08,0,.51.51,0,0,0-.15.28.21.21,0,0,0-.18.19.89.89,0,0,0-.36.45.26.26,0,0,0-.09.18.19.19,0,0,0-.18.19.38.38,0,0,0-.19.26.2.2,0,0,0-.17.19.29.29,0,0,0-.1.18.19.19,0,0,0-.18.18.37.37,0,0,0-.18.27.21.21,0,0,0-.18.19A.29.29,0,0,0,44.18,88.89ZM49.76,96a2.06,2.06,0,0,0,.52-.5,2.35,2.35,0,0,0,.32-2.07A1.87,1.87,0,0,0,48.85,92a8.56,8.56,0,0,0-1.13-.06c-.74,0-1.48,0-2.22,0-.53,0-.48-.06-.48.49,0,2.61,0,5.23,0,7.84a2.29,2.29,0,0,0,0,.37s0,.07.08.08a.55.55,0,0,0,.18,0l3.31,0c.23,0,.45,0,.68,0A1.67,1.67,0,0,0,50.4,100a2.44,2.44,0,0,0,.53-.94A3.37,3.37,0,0,0,51,97.61a2,2,0,0,0-1-1.41C49.93,96.15,49.82,96.13,49.76,96Zm2.28.31v4.17c0,.21,0,.22.25.23h5.08c.1,0,.17-.06.17-.17V99.46c0-.18,0-.21-.21-.22H53.75c-.21,0-.26,0-.26-.26V97.12c0-.25,0-.27.3-.28h3.13c.15,0,.19,0,.19-.18,0-.38,0-.75,0-1.13,0-.11,0-.17-.16-.17H53.68c-.15,0-.19,0-.19-.19V93.63a.28.28,0,0,1,0-.09.11.11,0,0,1,.12-.11h3.63a.13.13,0,0,0,.14-.14c0-.41,0-.82,0-1.22,0-.09-.06-.13-.15-.13h-5c-.09,0-.15,0-.15.13s0,.25,0,.37Zm10.34-1.83c.14,0,.26,0,.37,0l.86,0c.18,0,.21,0,.19-.23a4,4,0,0,0-.15-.75A2.23,2.23,0,0,0,62,91.89a3.77,3.77,0,0,0-1.67,0,2.22,2.22,0,0,0-1.83,1.73,2.65,2.65,0,0,0,0,1.22,2.33,2.33,0,0,0,1.29,1.71,7.77,7.77,0,0,0,.8.31l1.12.37a2.57,2.57,0,0,1,.45.2.79.79,0,0,1,.4.58A1.11,1.11,0,0,1,62,99.18a1.52,1.52,0,0,1-2.2-.73,2.23,2.23,0,0,1-.13-.44c-.09-.32-.09-.32-.43-.28l-.81.09c-.2,0-.24.07-.22.26a4,4,0,0,0,.49,1.55,2.41,2.41,0,0,0,1.65,1.17,4.11,4.11,0,0,0,1.71,0A2.34,2.34,0,0,0,63.9,99,3.38,3.38,0,0,0,64,97.44a2.34,2.34,0,0,0-1.43-1.8c-.26-.11-.53-.21-.8-.3s-.58-.18-.87-.27a2.63,2.63,0,0,1-.66-.3.75.75,0,0,1-.37-.59.8.8,0,0,1,.52-.82,1.91,1.91,0,0,1,.89-.11,1.07,1.07,0,0,1,1,.81ZM66.63,97v3.54a.12.12,0,0,0,.13.14c.39,0,.79,0,1.18,0,.09,0,.13,0,.14-.14V94c0-.14,0-.27,0-.41a.1.1,0,0,1,.11-.11H70c.1,0,.19,0,.19-.14q0-.61,0-1.23c0-.09,0-.13-.14-.13h-5.4c-.14,0-.18,0-.18.19,0,.36,0,.73,0,1.09,0,.18,0,.21.21.22H66.5a.11.11,0,0,1,.12.11c0,.12,0,.24,0,.36ZM13.82,89.51a.86.86,0,0,1,.06.2l.54,2.57c0,.2,0,.47.18.59s.41,0,.62,0l.1,0c0-.13.07-.28.1-.42.19-.91.38-1.81.56-2.71a.57.57,0,0,1,.16-.33v3c0,.65-.1.54.6.55a.13.13,0,0,0,.14-.14v-.36c0-1.17,0-2.33,0-3.49a2.22,2.22,0,0,0-.05-.89,4.52,4.52,0,0,0-.9,0H15.8a.16.16,0,0,0-.16.13c0,.07,0,.15-.05.22l-.54,2.53c0,.09,0,.21-.15.26a1.74,1.74,0,0,0-.05-.22c-.14-.66-.28-1.33-.44-2a3.22,3.22,0,0,0-.24-.91,8.19,8.19,0,0,0-1,0h0c-.08,0-.14,0-.14.14v.36c0,1.29,0,2.57,0,3.86,0,.64-.09.54.6.55h0a.13.13,0,0,0,.12-.12v-.36c0-.8,0-1.6,0-2.4A1.07,1.07,0,0,1,13.82,89.51ZM87,90.43A1.23,1.23,0,0,0,86,89.34a1.31,1.31,0,0,0-1.61,1,2.81,2.81,0,0,0,0,1.65,1.77,1.77,0,0,0,.15.38A1.15,1.15,0,0,0,85.7,93a1.17,1.17,0,0,0,1.17-.69L87,92l.25.46a1.31,1.31,0,0,0,2.22-.07c.19-.37.18-.41-.24-.48-.12,0-.23-.09-.36,0a.8.8,0,0,0-.08.16c-.15.37-.62.44-.9,0a.69.69,0,0,1-.12-.56,1.13,1.13,0,0,1,.45,0h1.27c.07,0,.16,0,.17-.1a2.35,2.35,0,0,0-.42-1.59,1,1,0,0,0-.64-.4,1.17,1.17,0,0,0-1.35.57,2.38,2.38,0,0,0-.31,1.3c0,.15.08.34,0,.44s-.28,0-.42,0h-.09a.15.15,0,0,0-.17.12,1.48,1.48,0,0,1-.12.29.49.49,0,0,1-.75.12.66.66,0,0,1-.23-.38,2.4,2.4,0,0,1,0-1.22.71.71,0,0,1,.16-.31.53.53,0,0,1,.85.07c0,.09,0,.23.16.25a.82.82,0,0,0,.31,0Zm-10.21,1a1.69,1.69,0,0,0,.23.91,1.35,1.35,0,0,0,1,.7,2.48,2.48,0,0,0,.86,0,1.31,1.31,0,0,0,1-.84,1.88,1.88,0,0,0,.08-.94,1.28,1.28,0,0,0-.74-1.07,4.28,4.28,0,0,0-.68-.25,3,3,0,0,1-.63-.24.44.44,0,0,1-.26-.44.43.43,0,0,1,.34-.38,1,1,0,0,1,.63,0,.49.49,0,0,1,.31.24,1.3,1.3,0,0,1,.1.25q0,.16.18.15a2.21,2.21,0,0,0,.63,0A1.29,1.29,0,0,0,78.72,88,2.83,2.83,0,0,0,78,88a1.24,1.24,0,0,0-1,.76,1.43,1.43,0,0,0,.76,1.89l.77.27a3.07,3.07,0,0,1,.42.17.49.49,0,0,1,.25.54.66.66,0,0,1-.53.55.83.83,0,0,1-1.06-.6c-.1-.32,0-.33-.44-.27A.89.89,0,0,0,76.78,91.39ZM96,91a2.39,2.39,0,0,1-.1.84.74.74,0,0,1-.22.33A.39.39,0,0,1,95,92a1,1,0,0,1-.07-.21.15.15,0,0,0-.18-.1l-.22,0c-.38.07-.4.09-.28.46a1.07,1.07,0,0,0,1.38.77,1.16,1.16,0,0,0,.63-.41,2,2,0,0,0,.4-.86,7.41,7.41,0,0,0,.1-1.76,4,4,0,0,0-.12-.76,1.66,1.66,0,0,0-.5-.89,1.15,1.15,0,0,0-1.53,0,1.26,1.26,0,0,0-.39.55,2.45,2.45,0,0,0,0,1.56,1.37,1.37,0,0,0,.46.66.9.9,0,0,0,1.06.06A2.16,2.16,0,0,0,96,91ZM97.7,88.1c0,.13-.07.24-.09.36-.09.58-.19,1.17-.27,1.75s-.1.47.45.53a.24.24,0,0,0,.2-.08l.17-.14a.56.56,0,0,1,.86.28,1.57,1.57,0,0,1,0,1.11.52.52,0,0,1-.48.36.52.52,0,0,1-.46-.32c-.06-.1-.09-.21-.15-.34l-.27,0c-.44,0-.53,0-.34.56l0,.08a1.22,1.22,0,0,0,1.1.76,1.17,1.17,0,0,0,1.16-.63,2.27,2.27,0,0,0,.24-1.67,1.49,1.49,0,0,0-.32-.64,1,1,0,0,0-1.08-.39c-.08,0-.17.08-.25,0,.1-.86-.06-.7.7-.72H99c.84,0,.67.15.68-.74,0-.11-.07-.15-.18-.15Zm3.48,2.6a1,1,0,0,1,.29,0,.46.46,0,0,1,.36.16,1,1,0,0,1,0,1.29.45.45,0,0,1-.65,0,.68.68,0,0,1-.18-.26.49.49,0,0,0-.14-.3l-.47.07c-.18,0-.21.07-.17.24a1.82,1.82,0,0,0,.18.51,1.26,1.26,0,0,0,2,.29,1.61,1.61,0,0,0,.45-1.33,1.1,1.1,0,0,0-.59-1s-.09,0,0-.12l.16-.18a1.06,1.06,0,0,0,.3-.69,1.24,1.24,0,0,0-.84-1.31,1.14,1.14,0,0,0-1.46.73c-.21.56-.15.51.3.59.24,0,.25,0,.32-.17a.75.75,0,0,1,.18-.31.43.43,0,0,1,.64.07.62.62,0,0,1-.26.92.42.42,0,0,0-.34.44A.89.89,0,0,0,101.18,90.7Zm-75.39-.48a1.23,1.23,0,0,0,.57.18.12.12,0,0,0,.15-.07.34.34,0,0,1,.06-.12.58.58,0,0,1,.77-.14.42.42,0,0,1,.16.44c0,.14-.15.14-.25.17s-.49.13-.74.21a1.09,1.09,0,0,0-.74,1.5.91.91,0,0,0,.83.6,1.06,1.06,0,0,0,.65-.17c.1-.06.16-.18.29-.2s.07.13.11.18.06.09.09.09a1.4,1.4,0,0,0,.67,0,2.08,2.08,0,0,1-.13-.64c0-.37,0-.75,0-1.13s0-.67,0-1a.79.79,0,0,0-.62-.74,1.92,1.92,0,0,0-.95,0,1,1,0,0,0-.77.63A2.47,2.47,0,0,0,25.79,90.22Zm8.91,2.64a4.46,4.46,0,0,1-.13-1.45c0-.29,0-.57,0-.86s0-.36,0-.54a.78.78,0,0,0-.6-.67,1.94,1.94,0,0,0-1.07,0,.89.89,0,0,0-.61.49c-.19.4-.23.48.27.55h.05c.14.06.21,0,.29-.12a.55.55,0,0,1,.7-.24.4.4,0,0,1,.25.43c0,.16-.13.2-.24.23l-.48.13a4.36,4.36,0,0,0-.51.17.85.85,0,0,0-.54.72,1.71,1.71,0,0,0,0,.45.94.94,0,0,0,1.31.77,1.51,1.51,0,0,0,.35-.2s.1-.12.18-.09c.14.28.14.28.43.28A.89.89,0,0,0,34.7,92.86ZM17.37,91.12a2.32,2.32,0,0,0,.3,1.19,1.39,1.39,0,0,0,2.38,0,2.33,2.33,0,0,0,0-2.45,1.38,1.38,0,0,0-2.32,0A2.22,2.22,0,0,0,17.37,91.12Zm64.76-1.7a1.65,1.65,0,0,0-.54,0,.14.14,0,0,0-.15.14v3c0,.46,0,.44.44.44H82c.21,0,.24,0,.24-.24,0-.45,0-.91,0-1.36q0-.36,0-.72a.7.7,0,0,1,.24-.47.46.46,0,0,1,.78.22,1.43,1.43,0,0,1,.06.5v1.67c0,.42,0,.4.4.4l.27,0s.07,0,.08-.09a.29.29,0,0,0,0-.13V90.5c0-.11,0-.21,0-.32a.9.9,0,0,0-.58-.8,1,1,0,0,0-1,.16c-.09.07-.14.2-.29.23Zm-53.25,1.7h0v1.27c0,.59-.06.51.54.52.23,0,.25,0,.25-.27V91.09a4,4,0,0,1,0-.49.74.74,0,0,1,.24-.48.47.47,0,0,1,.79.23,1.84,1.84,0,0,1,0,.41v1.63c0,.59-.07.51.55.52.21,0,.24,0,.24-.23,0-.7,0-1.39,0-2.09a4.23,4.23,0,0,0-.05-.5A.94.94,0,0,0,30,89.48c-.08.06-.15.14-.23.21a.07.07,0,0,1-.11,0s0-.06,0-.09c0-.21,0-.21-.24-.22h-.27c-.18,0-.21,0-.21.22ZM37.57,93a1.34,1.34,0,0,0,.62-.11,1.13,1.13,0,0,0,.68-1,.93.93,0,0,0-.63-1c-.21-.09-.43-.15-.64-.22l-.47-.18a.23.23,0,0,1-.15-.21.27.27,0,0,1,.18-.24.65.65,0,0,1,.83.23.21.21,0,0,0,.26.1l.18,0c.43,0,.35-.16.2-.47a.91.91,0,0,0-.58-.47,1.92,1.92,0,0,0-.95,0,1,1,0,0,0-.83.94,1,1,0,0,0,.62,1.09c.27.11.55.18.82.28a2.5,2.5,0,0,1,.25.09.26.26,0,0,1,.09.39.37.37,0,0,1-.2.17.64.64,0,0,1-.88-.33.19.19,0,0,0-.24-.14l-.13,0c-.47.1-.53.06-.27.57a1.15,1.15,0,0,0,.49.46A1.6,1.6,0,0,0,37.57,93Zm-16-3.25c-.07-.39-.07-.39-.39-.39H21c-.15,0-.17,0-.18.2v2.81c0,.65-.09.54.6.55.12,0,.16-.07.16-.17v-1.5a2.92,2.92,0,0,1,.06-.72.71.71,0,0,1,.15-.33.52.52,0,0,1,.52-.19.44.44,0,0,1,.35.43c0,.24.05.48.05.72,0,.53,0,1.06,0,1.59,0,.1,0,.17.16.17h.41c.15,0,.18,0,.19-.18,0-.79,0-1.57,0-2.36a1.65,1.65,0,0,0,0-.31,1,1,0,0,0-1.54-.57C21.82,89.55,21.74,89.63,21.61,89.74Zm69.81.3a.35.35,0,0,0,.3-.1c.17-.11.34-.25.51-.37a.11.11,0,0,1,.12,0c.05,0,0,.07,0,.11s0,.28,0,.41v2.67c0,.19,0,.22.2.22H93a.13.13,0,0,0,.14-.14,1.08,1.08,0,0,0,0-.18V88.14A.14.14,0,0,0,93,88h-.28a.21.21,0,0,0-.24.15,1.69,1.69,0,0,1-.43.63,2.41,2.41,0,0,1-.54.41.21.21,0,0,0-.12.18A3.61,3.61,0,0,0,91.42,90ZM25,88.11c-.21.15-.34.25-.48.33a.45.45,0,0,0-.28.51,1.22,1.22,0,0,1,0,.27.15.15,0,0,1-.11.13c-.07,0-.17,0-.21.06a1.33,1.33,0,0,0,0,.21v.32c0,.08,0,.14.13.15a.43.43,0,0,1,.17,0c.06.05.05.14.05.21,0,.55,0,1.09,0,1.64a1.8,1.8,0,0,0,0,.4.65.65,0,0,0,.67.61h.18c.4,0,.46-.11.43-.5,0-.1,0-.21-.07-.3h-.13c-.28,0-.34,0-.35-.28,0-.55,0-1.09,0-1.63,0-.1,0-.18.15-.19h.09c.3,0,.29,0,.29-.31a2.44,2.44,0,0,0,0-.27c0-.09,0-.15-.12-.15h-.14c-.26,0-.27,0-.27-.29S25,88.49,25,88.11Zm55.33,3.06c0,.41,0,.82,0,1.23,0,.64-.08.55.59.55h.05a.13.13,0,0,0,.13-.15c0-.11,0-.21,0-.32V89.9c0-.58.06-.51-.55-.52-.2,0-.23,0-.23.25C80.28,90.14,80.29,90.66,80.29,91.17ZM35.94,88.58c0-.7.1-.58-.6-.59h-.05a.12.12,0,0,0-.11.11c0,.23,0,.46,0,.68s.07.12.15.14.22.08.18.26a.58.58,0,0,1-.28.39.17.17,0,0,0-.07.19c.08.24.15.27.34.12a1,1,0,0,0,.39-.59A2.92,2.92,0,0,0,35.94,88.58Zm45.12-.09c0-.49.06-.46-.45-.46h-.18a.15.15,0,0,0-.14.15.29.29,0,0,0,0,.13c0,.7-.1.59.64.59a.12.12,0,0,0,.13-.14A2.43,2.43,0,0,0,81.06,88.49Z" transform="translate(-2.08 -5.53)" fill="#232b54"/><path d="M106.85,41.13q0,12.28,0,24.57c0,.71.13.55-.58.67-1.25.22-2.51.41-3.76.61l-3.63.58-3.58.58-3.71.6-3.67.6-3.63.58-3.63.59L77,71.1l-3.67.6-3,.49-3.72.6-3.62.59L59.31,74l-1.79.29a1.07,1.07,0,0,1-.31,0L52,73.39l-5.91-.94-6.44-1-4.75-.76-4.74-.78-3.63-.58-3.67-.59L19.2,68.1l-3.62-.58L12.49,67l-3.63-.59-.8-.13a.17.17,0,0,1-.15-.19V16.48c0-.61-.06-.47.5-.57,1.78-.3,3.55-.57,5.33-.85s3.55-.59,5.33-.87l4.74-.76L28,12.74l3.62-.58,3.67-.6L38.94,11l3.67-.6,3.63-.58,3.62-.59L53,8.71l3.63-.58L57.25,8a.62.62,0,0,1,.27,0l2.86.46,3.09.5,3.71.6,3,.49,3.63.59,3.67.59,3.71.61,3.63.58,3.67.59,3,.49,3.63.59,3.71.6,3.67.6,3.58.57.49.09c.19,0,.19,0,.19.24s0,.27,0,.41Zm-2.1-23.31a1.37,1.37,0,0,0-.44-.12l-3.13-.5-3.63-.59-3.09-.5-3.62-.58-3.72-.61-3.58-.57-3.71-.61-3.63-.58-3.67-.59L68.9,12l-3.62-.58-3.67-.6-3.67-.59a3,3,0,0,0-1.08,0l-3.72.6-3.58.58-3.71.6-3.67.6-3.63.58-3,.49-3.67.6-3.62.58-3.72.61-3.09.5-3.62.58-3.63.59-3.67.59c-.59.09-.48.08-.48.55V64.34a.15.15,0,0,0,.13.16,1.55,1.55,0,0,0,.31.06l3.71.61,3.58.57,3.63.58,3.67.6,3.71.6,3.63.59,3.09.5,3.67.59,3,.49,3.68.59,3.62.59,3.72.6,3.67.6a3.26,3.26,0,0,0,1.08,0c.84-.15,1.7-.28,2.55-.42l3.62-.58,3.72-.61,3.58-.57,3.71-.61,3-.49,3.67-.59,3.67-.6L89.14,67l3.62-.59,3.72-.6,3.58-.57c1.25-.21,2.51-.4,3.76-.62a3.35,3.35,0,0,0,.93-.19Z" transform="translate(-2.08 -5.53)" fill="#1d1a1a"/><path d="M21.89,78.64v2.94c0,.3,0,.3-.32.3H21.3a.15.15,0,0,1-.14-.15,1.09,1.09,0,0,1,0-.18v-4c0-.07,0-.15,0-.22a.13.13,0,0,1,.12-.12h.09a6.76,6.76,0,0,1,.9,0,2.35,2.35,0,0,1,.24.86c.13.56.25,1.12.37,1.68,0,.13.07.26.11.4a.7.7,0,0,0,.14-.35c.16-.72.31-1.45.47-2.17a2.44,2.44,0,0,1,.06-.26.19.19,0,0,1,.21-.18h.82a.15.15,0,0,1,.17.17v4.35a.15.15,0,0,1-.14.15h-.09c-.54,0-.5.05-.5-.47V78.69a.51.51,0,0,0-.16.36c-.16.77-.3,1.54-.48,2.3s0,.53-.65.53c-.19,0-.21,0-.25-.2l-.54-2.61A1,1,0,0,0,21.89,78.64Z" transform="translate(-2.08 -5.53)" fill="#2b376b"/><path d="M47,79.54a2.84,2.84,0,0,1-.16,1.16,2.19,2.19,0,0,1-.34.64,1.53,1.53,0,0,1-1,.59,1.69,1.69,0,0,1-2-1.16,3.65,3.65,0,0,1,0-2.44,1.85,1.85,0,0,1,.13-.29,1.74,1.74,0,0,1,3-.1A2.6,2.6,0,0,1,47,79.09C47,79.24,47,79.39,47,79.54Zm-.79,0a5.63,5.63,0,0,0,0-.59,1.08,1.08,0,0,0-.1-.35,1,1,0,0,0-.64-.6.93.93,0,0,0-1.15.63,2.59,2.59,0,0,0,0,1.82.94.94,0,0,0,.91.69,1,1,0,0,0,.92-.75A2.72,2.72,0,0,0,46.22,79.53Z" transform="translate(-2.08 -5.53)" fill="#2b376b"/><path d="M75.89,79.53a3.56,3.56,0,0,1-.18,1.16,1.9,1.9,0,0,1-.33.63,1.55,1.55,0,0,1-1.07.61,1.67,1.67,0,0,1-1.93-1.14,3.67,3.67,0,0,1,0-2.49,2,2,0,0,1,.18-.36,1.62,1.62,0,0,1,1.57-.8,1.67,1.67,0,0,1,1.5,1.06A3.19,3.19,0,0,1,75.89,79.53Zm-.82,0a2.42,2.42,0,0,0-.17-1A.93.93,0,0,0,73.74,78a1,1,0,0,0-.65.71,3,3,0,0,0,0,1.65,1.19,1.19,0,0,0,.34.54.89.89,0,0,0,1.23,0,1.19,1.19,0,0,0,.33-.59A2.65,2.65,0,0,0,75.07,79.56Z" transform="translate(-2.08 -5.53)" fill="#2b376b"/><path d="M48.33,80.45a.38.38,0,0,0,.14-.27c.1-.47.19-.94.3-1.41.06-.26.08-.28.32-.28.53,0,.43,0,.55.45s.21,1,.31,1.5c.11,0,.13-.09.15-.17.12-.51.24-1,.37-1.54.06-.23.06-.24.3-.24.47,0,.52-.07.37.45-.23.84-.45,1.69-.67,2.54a2.58,2.58,0,0,1-.08.26c0,.11-.1.14-.2.14-.56,0-.52.1-.64-.49-.08-.4-.18-.8-.27-1.2a.19.19,0,0,0-.13-.19c0,.17-.09.33-.13.5-.09.39-.18.79-.26,1.19,0,.12-.08.19-.21.19-.63,0-.52.07-.67-.48-.24-.9-.47-1.81-.71-2.71,0-.15,0-.19.15-.2h0c.47,0,.48-.1.6.45s.21.91.32,1.37A1.21,1.21,0,0,0,48.33,80.45Z" transform="translate(-2.08 -5.53)" fill="#2b376b"/><path d="M77.11,81.62c-.07.07,0,.14,0,.22,0,.27,0,.54,0,.81s.09.37-.06.47-.38,0-.57,0-.1-.06-.1-.12a2.44,2.44,0,0,1,0-.27V78.63a.14.14,0,0,1,.14-.14h.32c.15,0,.22.05.23.2s0,.12.11.07.14-.12.22-.17a.92.92,0,0,1,1.13.06,1.35,1.35,0,0,1,.42.63,3.17,3.17,0,0,1,0,1.83,1.39,1.39,0,0,1-.33.53.89.89,0,0,1-1.26.09C77.23,81.69,77.2,81.6,77.11,81.62Zm1.15-1.53s0-.14,0-.24a.79.79,0,0,0-.06-.22.92.92,0,0,0-.14-.28.48.48,0,0,0-.78,0,.89.89,0,0,0-.18.41,2.76,2.76,0,0,0,0,.86.81.81,0,0,0,.25.47.46.46,0,0,0,.71,0,1.47,1.47,0,0,0,.14-.28A1.88,1.88,0,0,0,78.26,80.09Z" transform="translate(-2.08 -5.53)" fill="#2b376b"/><path d="M69.64,78.8V77.71c0-.12,0-.24,0-.36a.14.14,0,0,1,.15-.14c.66,0,.6-.1.6.55V81.7a.16.16,0,0,1-.16.18h-.32c-.17,0-.17,0-.21-.21s-.07-.13-.14-.07-.13.13-.2.18a.89.89,0,0,1-1.13-.06,1.25,1.25,0,0,1-.36-.52,3,3,0,0,1,0-2,1,1,0,0,1,.26-.42,1,1,0,0,1,1.27-.15Zm0,1.39c0-.14,0-.29,0-.44a.86.86,0,0,0-.16-.41.47.47,0,0,0-.8,0,1.81,1.81,0,0,0,0,1.68.48.48,0,0,0,.8,0,1,1,0,0,0,.18-.46C69.64,80.44,69.65,80.32,69.65,80.19Z" transform="translate(-2.08 -5.53)" fill="#2b376b"/><path d="M59.26,81.53c-.14.11-.24.2-.35.27a.87.87,0,0,1-1,0,1.34,1.34,0,0,1-.48-.69,3.12,3.12,0,0,1,0-1.79,1.28,1.28,0,0,1,.28-.51A1,1,0,0,1,59,78.6l.15.11a.08.08,0,0,0,.1-.06c0-.23,0-.45,0-.68v-.36c0-.4,0-.4.39-.4s.37,0,.37.34v4c0,.06,0,.12,0,.18a.13.13,0,0,1-.12.11,1.22,1.22,0,0,1-.27,0C59.3,81.87,59.31,81.92,59.26,81.53ZM58,80.15l.06.44a1.43,1.43,0,0,0,0,.22.59.59,0,0,0,.49.42c.2,0,.39-.12.51-.37a.61.61,0,0,0,.05-.12,2.17,2.17,0,0,0,0-1.16.58.58,0,0,0-.49-.47.6.6,0,0,0-.56.46A2.2,2.2,0,0,0,58,80.15Z" transform="translate(-2.08 -5.53)" fill="#2b376b"/><path d="M105.14,69a2.64,2.64,0,1,1-2.63,2.61A2.59,2.59,0,0,1,105.14,69ZM103,71.71a1.71,1.71,0,0,0,.11.61,2.07,2.07,0,0,0,1.71,1.5,2,2,0,0,0,2.06-1,2.22,2.22,0,0,0-.13-2.48,2,2,0,0,0-3.17-.19A2.28,2.28,0,0,0,103,71.71Z" transform="translate(-2.08 -5.53)" fill="#1d1a1a"/><path d="M93.24,78.74l.07-.06c0-.22,0-.45,0-.68v-.59c0-.17,0-.2.22-.2.57,0,.52-.06.52.51v3.72c0,.1,0,.21,0,.31s0,.12-.11.12h-.23c-.29,0-.29,0-.39-.31-.13,0-.19.14-.28.2a.88.88,0,0,1-1.16-.08,1.58,1.58,0,0,1-.45-.78,3.09,3.09,0,0,1,0-1.48,1.41,1.41,0,0,1,.38-.71.94.94,0,0,1,1.24-.12Zm-1.12,1.42c0,.14,0,.27,0,.41a.93.93,0,0,0,.15.42.48.48,0,0,0,.83,0,1.18,1.18,0,0,0,.11-.19,2.11,2.11,0,0,0,0-1.29.78.78,0,0,0-.11-.2.47.47,0,0,0-.77,0,.76.76,0,0,0-.19.45C92.13,79.89,92.13,80,92.12,80.16Z" transform="translate(-2.08 -5.53)" fill="#2b376b"/><path d="M85.77,81.6c-.14.09-.24.18-.36.24A.91.91,0,0,1,84,81.11a1,1,0,0,1,.77-1.17l.69-.19c.2-.06.23-.1.23-.23a.36.36,0,0,0-.22-.36.46.46,0,0,0-.63.17.28.28,0,0,1-.4.14l-.18,0c-.15,0-.19-.12-.14-.27a1,1,0,0,1,.93-.74,3.32,3.32,0,0,1,.63,0,.83.83,0,0,1,.72.76c0,.4,0,.81,0,1.22a4.09,4.09,0,0,0,.11,1.3c0,.09,0,.14-.11.15H86.2C86,81.88,86,81.88,85.77,81.6Zm-.08-1.27a1.6,1.6,0,0,0-.68.18.41.41,0,0,0-.18.57.39.39,0,0,0,.54.18.51.51,0,0,0,.33-.39A.9.9,0,0,0,85.69,80.33Z" transform="translate(-2.08 -5.53)" fill="#2b376b"/><path d="M41.55,80.33c0,.24,0,.48,0,.73a2.72,2.72,0,0,0,0,.49c.06.33.06.33-.25.33h-.27a.18.18,0,0,1-.12-.05c-.06-.06,0-.21-.14-.19s-.15.09-.23.14a1,1,0,0,1-.68.17.82.82,0,0,1-.76-.61A1,1,0,0,1,39.84,80c.24-.08.49-.14.74-.21s.24-.07.23-.23a.37.37,0,0,0-.22-.36.48.48,0,0,0-.66.2c-.09.15-.18.15-.33.12-.48-.08-.46-.13-.25-.55a.87.87,0,0,1,.67-.48,2.49,2.49,0,0,1,.77,0,.82.82,0,0,1,.72.71A6.54,6.54,0,0,1,41.55,80.33Zm-.76,0-.52.14a1.33,1.33,0,0,0-.21.09.41.41,0,0,0-.17.54.39.39,0,0,0,.49.22.52.52,0,0,0,.38-.35A1.15,1.15,0,0,0,40.79,80.29Z" transform="translate(-2.08 -5.53)" fill="#2b376b"/><path d="M64.17,80.34c0,.24,0,.48,0,.72a2.73,2.73,0,0,0,0,.41c.07.43.08.42-.37.41-.15,0-.27,0-.3-.19s-.08-.09-.14,0a2,2,0,0,1-.3.2.91.91,0,0,1-1.37-.79,1,1,0,0,1,.78-1.11l.7-.19c.18-.06.24-.12.22-.23a.35.35,0,0,0-.22-.36.49.49,0,0,0-.66.21c-.08.12-.15.17-.29.12s-.21,0-.31-.07-.14-.1-.1-.21a1,1,0,0,1,1-.78,2.19,2.19,0,0,1,.63,0,.76.76,0,0,1,.66.66,2.72,2.72,0,0,1,0,.49c0,.25,0,.49,0,.73Zm-.77,0a2.34,2.34,0,0,0-.7.19.42.42,0,1,0,.38.75.51.51,0,0,0,.29-.32A1.09,1.09,0,0,0,63.4,80.31Z" transform="translate(-2.08 -5.53)" fill="#2b376b"/><path d="M33.88,79.52l-.19,0c-.52-.1-.55-.09-.24-.63a.84.84,0,0,1,.62-.41,2.44,2.44,0,0,1,.81,0,.8.8,0,0,1,.69.74,5.62,5.62,0,0,1,0,.58c0,.37,0,.73,0,1.09a2.94,2.94,0,0,0,.08.72c.06.24.13.3-.24.29h-.18c-.18,0-.25-.07-.29-.21s0,0-.06-.08a3.88,3.88,0,0,1-.33.23.91.91,0,0,1-1.39-.63A1,1,0,0,1,33.85,80c.26-.09.53-.15.79-.23s.22-.1.22-.23a.33.33,0,0,0-.22-.36.51.51,0,0,0-.67.2Zm1,.76-.56.16-.2.09a.44.44,0,0,0-.15.52.39.39,0,0,0,.43.25.55.55,0,0,0,.47-.48A4.53,4.53,0,0,0,34.85,80.28Z" transform="translate(-2.08 -5.53)" fill="#2b376b"/><path d="M36.91,78.85a2.82,2.82,0,0,1,.32-.26.93.93,0,0,1,.91-.1.86.86,0,0,1,.52.69,4.07,4.07,0,0,1,0,.5c0,.63,0,1.27,0,1.9a1.09,1.09,0,0,1,0,.18.14.14,0,0,1-.12.12c-.12,0-.24,0-.37,0s-.25,0-.25-.26c0-.58,0-1.15,0-1.73a1.6,1.6,0,0,0,0-.44.42.42,0,0,0-.68-.24.7.7,0,0,0-.27.51,5.72,5.72,0,0,0,0,.59c0,.45,0,.9,0,1.36,0,.17,0,.2-.21.21h-.09c-.45,0-.45,0-.45-.44V78.9a2.44,2.44,0,0,1,0-.27c0-.09.06-.13.14-.14h.18C36.82,78.48,36.82,78.48,36.91,78.85Z" transform="translate(-2.08 -5.53)" fill="#2b376b"/><path d="M25.31,80.16A1.94,1.94,0,0,1,25.6,79a1.33,1.33,0,0,1,2.24,0,2.29,2.29,0,0,1,0,2.32,1.32,1.32,0,0,1-2.26-.06A2,2,0,0,1,25.31,80.16Zm2.09.08a1.25,1.25,0,0,0-.25-.88.55.55,0,0,0-.84,0,.74.74,0,0,0-.16.27,1.63,1.63,0,0,0,0,1.11.63.63,0,0,0,.47.45.56.56,0,0,0,.65-.36A1.27,1.27,0,0,0,27.4,80.24Z" transform="translate(-2.08 -5.53)" fill="#2b376b"/><path d="M56.92,80.94a1.15,1.15,0,0,1-.44.78,1.28,1.28,0,0,1-1.74-.24l0,0a2.54,2.54,0,0,1,.06-2.58,1.18,1.18,0,0,1,1.87,0A2.52,2.52,0,0,1,57,80.3c0,.12-.08.15-.18.15H55.36c-.16,0-.2.06-.17.23a.72.72,0,0,0,.29.5.41.41,0,0,0,.6-.08.51.51,0,0,0,.09-.16.16.16,0,0,1,.21-.12Zm-1.19-1H56c.25,0,.26,0,.22-.26a.58.58,0,0,0-.52-.53.61.61,0,0,0-.51.6c0,.12,0,.18.14.18S55.6,79.89,55.73,79.89Z" transform="translate(-2.08 -5.53)" fill="#2b376b"/><path d="M52.22,78.85l.28-.23a.92.92,0,0,1,.86-.16.75.75,0,0,1,.55.5,1.51,1.51,0,0,1,.1.53c0,.72,0,1.45,0,2.17,0,.19,0,.21-.2.22h-.19c-.34,0-.34,0-.35-.35V80a1.6,1.6,0,0,0-.07-.54.4.4,0,0,0-.58-.24.53.53,0,0,0-.33.45q0,.36-.06.72v1.32c0,.18,0,.22-.2.22-.62,0-.55.06-.55-.52V78.64a.16.16,0,0,1,.14-.15h.23C52.15,78.49,52.15,78.49,52.22,78.85Z" transform="translate(-2.08 -5.53)" fill="#2b376b"/><path d="M29.34,78.83a2.83,2.83,0,0,1,.31-.25.89.89,0,0,1,1.41.57,2.3,2.3,0,0,1,.05.45c0,.68,0,1.36,0,2,0,.21,0,.24-.24.24-.55,0-.51.07-.51-.51,0-.42,0-.84,0-1.27a3.35,3.35,0,0,0-.05-.63.41.41,0,0,0-.66-.27.63.63,0,0,0-.26.36,2.69,2.69,0,0,0-.06.63c0,.5,0,1,0,1.5,0,.15,0,.19-.19.19-.61,0-.54.07-.55-.51V79c0-.11,0-.22,0-.32s0-.19.18-.2h.13C29.22,78.48,29.22,78.48,29.34,78.83Z" transform="translate(-2.08 -5.53)" fill="#2b376b"/><path d="M89.27,80.46a.76.76,0,0,0,.17.61.43.43,0,0,0,.75,0,.34.34,0,0,0,.06-.12.16.16,0,0,1,.19-.1l.48.11c.07,0,.08.07.07.14a1.15,1.15,0,0,1-1,.87,1.19,1.19,0,0,1-1.36-.8,2.73,2.73,0,0,1,0-1.91,1.92,1.92,0,0,1,.18-.31,1.15,1.15,0,0,1,1.91,0,2.42,2.42,0,0,1,.32,1.39.12.12,0,0,1-.12.11H89.27Zm.53-.57H90c.32,0,.36-.08.25-.38a.77.77,0,0,0-.17-.27.43.43,0,0,0-.64,0,.76.76,0,0,0-.2.49.12.12,0,0,0,.13.14Z" transform="translate(-2.08 -5.53)" fill="#2b376b"/><path d="M81.78,81a1.16,1.16,0,0,1-.91,1,1.21,1.21,0,0,1-1.34-.52,1.71,1.71,0,0,1-.21-.5,2.93,2.93,0,0,1,0-1.47,2,2,0,0,1,.18-.42,1.09,1.09,0,0,1,1-.59,1.13,1.13,0,0,1,1,.65,2.52,2.52,0,0,1,.25,1.23c0,.12-.08.15-.18.15H80.24c-.22,0-.25.06-.19.29a.66.66,0,0,0,.28.44.41.41,0,0,0,.6-.09.8.8,0,0,0,.08-.16.17.17,0,0,1,.22-.1l.18,0Zm-1.23-1h.27c.25,0,.31-.08.23-.33A.61.61,0,0,0,81,79.4a.47.47,0,0,0-.42-.28.46.46,0,0,0-.43.27,1.22,1.22,0,0,0-.07.17c-.07.28-.06.35.26.34A1.77,1.77,0,0,1,80.55,79.9Z" transform="translate(-2.08 -5.53)" fill="#2b376b"/><path d="M65.47,78.84c.12-.09.19-.17.28-.23a.9.9,0,0,1,1.46.57,1.49,1.49,0,0,1,.05.36v2.12c0,.19,0,.21-.21.22h-.18c-.35,0-.35,0-.35-.35V80.08c0-.19,0-.39,0-.58a.39.39,0,0,0-.3-.36.45.45,0,0,0-.49.16.51.51,0,0,0-.15.32c0,.21,0,.42,0,.63,0,.45,0,.91,0,1.36,0,.25,0,.27-.24.27-.55,0-.5,0-.5-.47V78.69c0-.16,0-.19.18-.2h.18C65.39,78.49,65.39,78.49,65.47,78.84Z" transform="translate(-2.08 -5.53)" fill="#2b376b"/><path d="M87.83,77.3v1a.15.15,0,0,0,.16.17l.23,0a.12.12,0,0,1,.1.13c0,.18,0,.36,0,.51-.16.13-.35,0-.45.14s0,.32,0,.48,0,.57,0,.86a2.17,2.17,0,0,0,0,.36c0,.16.07.2.24.2a.91.91,0,0,0,.17,0c.1.06.08.16.08.25,0,.45,0,.49-.43.53a.66.66,0,0,1-.8-.61,5.65,5.65,0,0,1,0-.59V79.44c0-.09,0-.21-.12-.21s-.22-.12-.21-.27,0-.22,0-.32a.14.14,0,0,1,.14-.15c.17,0,.19-.1.18-.24a2.43,2.43,0,0,0,0-.27.28.28,0,0,1,.12-.23Z" transform="translate(-2.08 -5.53)" fill="#2b376b"/><path d="M32.48,78.45c.52.06.52.06.5.51V79c0,.16,0,.18-.17.2h-.18a.14.14,0,0,0-.14.15c0,.53,0,1.06,0,1.58,0,.19.06.23.26.23s.23,0,.25.21c.06.45,0,.53-.45.56a.66.66,0,0,1-.79-.66c0-.21,0-.42,0-.63V79.48c0-.16,0-.27-.21-.27s-.13-.07-.13-.16,0-.21,0-.31,0-.26.23-.26a.13.13,0,0,0,.11-.17c-.09-.42.16-.63.47-.82.08,0,.13-.13.27-.08Z" transform="translate(-2.08 -5.53)" fill="#2b376b"/><path d="M83,78.79l.12-.14a.59.59,0,0,1,.69-.19c.18.05.22.14.17.34s-.06.23-.1.34-.06.18-.24.14c-.33-.07-.5,0-.57.34a4.9,4.9,0,0,0-.08.76c0,.44,0,.88,0,1.31,0,.15,0,.19-.19.19-.62,0-.55.06-.55-.51V78.93c0-.11,0-.21,0-.32a.1.1,0,0,1,.11-.11h.27C82.9,78.49,82.9,78.49,83,78.79Z" transform="translate(-2.08 -5.53)" fill="#2b376b"/><path d="M49.76,96c.06.12.17.14.26.19a2,2,0,0,1,1,1.41,3.37,3.37,0,0,1-.07,1.48,2.44,2.44,0,0,1-.53.94,1.67,1.67,0,0,1-1.12.62c-.23,0-.45,0-.68,0l-3.31,0a.55.55,0,0,1-.18,0s-.08,0-.08-.08a2.29,2.29,0,0,1,0-.37c0-2.61,0-5.23,0-7.84,0-.55-.05-.49.48-.49.74,0,1.48,0,2.22,0a8.56,8.56,0,0,1,1.13.06,1.87,1.87,0,0,1,1.75,1.46,2.35,2.35,0,0,1-.32,2.07A2.06,2.06,0,0,1,49.76,96Zm-3.3,2c0,.33,0,.67,0,1,0,.17,0,.2.21.2.47,0,.94,0,1.41,0,.23,0,.45,0,.68-.06a.81.81,0,0,0,.66-.48,1.19,1.19,0,0,0-1-1.79h0l-1.77,0c-.15,0-.17,0-.17.2S46.46,97.72,46.46,98Zm1-4.68h-.86c-.14,0-.18,0-.18.19q0,.84,0,1.68c0,.14,0,.18.19.18h1.59a2.36,2.36,0,0,0,.45-.08.76.76,0,0,0,.48-.45,1.21,1.21,0,0,0,0-1,.72.72,0,0,0-.64-.49Z" transform="translate(-2.08 -5.53)" fill="#fdfdfd"/><path d="M52,96.32v-3.9c0-.12,0-.25,0-.37s.06-.13.15-.13h5c.09,0,.15,0,.15.13,0,.4,0,.81,0,1.22a.13.13,0,0,1-.14.14H53.62a.11.11,0,0,0-.12.11.28.28,0,0,0,0,.09v1.54c0,.15,0,.19.19.19H57c.11,0,.16.06.16.17,0,.38,0,.75,0,1.13,0,.14,0,.17-.19.18H53.79c-.27,0-.3,0-.3.28V99c0,.22,0,.26.26.26h3.58c.18,0,.2,0,.21.22v1.09c0,.11-.07.16-.17.17H52.29c-.22,0-.24,0-.25-.23V96.32Z" transform="translate(-2.08 -5.53)" fill="#f7f7f9"/><path d="M62.38,94.49l-.12-.43a1.07,1.07,0,0,0-1-.81,1.91,1.91,0,0,0-.89.11.8.8,0,0,0-.52.82.75.75,0,0,0,.37.59,2.63,2.63,0,0,0,.66.3c.29.09.58.17.87.27s.54.19.8.3A2.34,2.34,0,0,1,64,97.44,3.38,3.38,0,0,1,63.9,99,2.34,2.34,0,0,1,62,100.78a4.11,4.11,0,0,1-1.71,0,2.41,2.41,0,0,1-1.65-1.17,4,4,0,0,1-.49-1.55c0-.19,0-.23.22-.26l.81-.09c.34,0,.34,0,.43.28a2.23,2.23,0,0,0,.13.44,1.52,1.52,0,0,0,2.2.73A1.11,1.11,0,0,0,62.54,98a.79.79,0,0,0-.4-.58,2.57,2.57,0,0,0-.45-.2l-1.12-.37a7.77,7.77,0,0,1-.8-.31,2.33,2.33,0,0,1-1.29-1.71,2.65,2.65,0,0,1,0-1.22,2.22,2.22,0,0,1,1.83-1.73,3.77,3.77,0,0,1,1.67,0,2.23,2.23,0,0,1,1.66,1.57,4,4,0,0,1,.15.75c0,.18,0,.22-.19.23l-.86,0C62.64,94.5,62.52,94.49,62.38,94.49Z" transform="translate(-2.08 -5.53)" fill="#fdfdfd"/><path d="M66.63,97V93.9c0-.12,0-.24,0-.36a.11.11,0,0,0-.12-.11H64.69c-.18,0-.21,0-.21-.22,0-.36,0-.73,0-1.09,0-.15,0-.19.18-.19h5.4c.09,0,.14,0,.14.13q0,.61,0,1.23c0,.11-.09.14-.19.14H68.2a.1.1,0,0,0-.11.11c0,.14,0,.27,0,.41v6.62c0,.09,0,.14-.14.14-.39,0-.79,0-1.18,0a.12.12,0,0,1-.13-.14V97Z" transform="translate(-2.08 -5.53)" fill="#f7f7f9"/><path d="M13.82,89.51a1.07,1.07,0,0,0-.06.51c0,.8,0,1.6,0,2.4v.36a.13.13,0,0,1-.12.12h0c-.69,0-.6.09-.6-.55,0-1.29,0-2.57,0-3.86v-.36c0-.09.06-.13.14-.14h0a8.19,8.19,0,0,1,1,0,3.22,3.22,0,0,1,.24.91c.16.66.3,1.33.44,2a1.74,1.74,0,0,1,.05.22c.12,0,.13-.17.15-.26l.54-2.53c0-.07,0-.15.05-.22A.16.16,0,0,1,15.8,88h.13a4.52,4.52,0,0,1,.9,0,2.22,2.22,0,0,1,.05.89c0,1.16,0,2.32,0,3.49v.36a.13.13,0,0,1-.14.14c-.7,0-.6.1-.6-.55v-3a.57.57,0,0,0-.16.33c-.18.9-.37,1.8-.56,2.71,0,.14-.06.29-.1.42l-.1,0c-.21,0-.46.08-.62,0s-.14-.39-.18-.59l-.54-2.57A.86.86,0,0,0,13.82,89.51Z" transform="translate(-2.08 -5.53)" fill="#f7f7f9"/><path d="M87,90.43l-.35.1a.82.82,0,0,1-.31,0c-.12,0-.12-.16-.16-.25a.53.53,0,0,0-.85-.07.71.71,0,0,0-.16.31,2.4,2.4,0,0,0,0,1.22.66.66,0,0,0,.23.38.49.49,0,0,0,.75-.12,1.48,1.48,0,0,0,.12-.29.15.15,0,0,1,.17-.12h.09c.14,0,.3.16.42,0s0-.29,0-.44a2.38,2.38,0,0,1,.31-1.3,1.17,1.17,0,0,1,1.35-.57,1,1,0,0,1,.64.4,2.35,2.35,0,0,1,.42,1.59c0,.09-.1.1-.17.1H88.25a1.13,1.13,0,0,0-.45,0,.69.69,0,0,0,.12.56c.28.43.75.36.9,0a.8.8,0,0,1,.08-.16c.13-.06.24,0,.36,0,.42.07.43.11.24.48a1.31,1.31,0,0,1-2.22.07L87,92l-.16.35A1.17,1.17,0,0,1,85.7,93a1.15,1.15,0,0,1-1.13-.69,1.77,1.77,0,0,1-.15-.38,2.81,2.81,0,0,1,0-1.65,1.31,1.31,0,0,1,1.61-1A1.23,1.23,0,0,1,87,90.43Zm1.34.44h.41c.16,0,.21-.07.18-.23a2,2,0,0,0-.07-.26.55.55,0,0,0-.48-.37.52.52,0,0,0-.49.33.83.83,0,0,0-.1.35c0,.11,0,.17.15.17Z" transform="translate(-2.08 -5.53)" fill="#f7f7f9"/><path d="M76.78,91.39a.89.89,0,0,1,.39-.09c.41-.06.34,0,.44.27a.83.83,0,0,0,1.06.6.66.66,0,0,0,.53-.55.49.49,0,0,0-.25-.54,3.07,3.07,0,0,0-.42-.17l-.77-.27A1.43,1.43,0,0,1,77,88.75,1.24,1.24,0,0,1,78,88a2.83,2.83,0,0,1,.77,0,1.29,1.29,0,0,1,1.15,1.43,2.21,2.21,0,0,1-.63,0q-.15,0-.18-.15a1.3,1.3,0,0,0-.1-.25.49.49,0,0,0-.31-.24,1,1,0,0,0-.63,0,.43.43,0,0,0-.34.38.44.44,0,0,0,.26.44,3,3,0,0,0,.63.24,4.28,4.28,0,0,1,.68.25A1.28,1.28,0,0,1,80,91.21a1.88,1.88,0,0,1-.08.94,1.31,1.31,0,0,1-1,.84A2.48,2.48,0,0,1,78,93a1.35,1.35,0,0,1-1-.7A1.69,1.69,0,0,1,76.78,91.39Z" transform="translate(-2.08 -5.53)" fill="#f7f7f9"/><path d="M96,91a2.16,2.16,0,0,1-.22.16.9.9,0,0,1-1.06-.06,1.37,1.37,0,0,1-.46-.66,2.45,2.45,0,0,1,0-1.56,1.26,1.26,0,0,1,.39-.55,1.15,1.15,0,0,1,1.53,0,1.66,1.66,0,0,1,.5.89,4,4,0,0,1,.12.76,7.41,7.41,0,0,1-.1,1.76,2,2,0,0,1-.4.86,1.16,1.16,0,0,1-.63.41,1.07,1.07,0,0,1-1.38-.77c-.12-.37-.1-.39.28-.46l.22,0a.15.15,0,0,1,.18.1A1,1,0,0,0,95,92a.39.39,0,0,0,.62.11.74.74,0,0,0,.22-.33A2.39,2.39,0,0,0,96,91Zm-1.1-1.31a1.22,1.22,0,0,0,.12.64.44.44,0,0,0,.82,0A1.4,1.4,0,0,0,95.74,89a.43.43,0,0,0-.78.11A1.25,1.25,0,0,0,94.87,89.67Z" transform="translate(-2.08 -5.53)" fill="#f7f7f9"/><path d="M97.7,88.1h1.82c.11,0,.18,0,.18.15,0,.89.16.72-.68.74h-.14c-.76,0-.6-.14-.7.72.08.07.17,0,.25,0a1,1,0,0,1,1.08.39,1.49,1.49,0,0,1,.32.64,2.27,2.27,0,0,1-.24,1.67,1.17,1.17,0,0,1-1.16.63,1.22,1.22,0,0,1-1.1-.76l0-.08c-.19-.53-.1-.52.34-.56l.27,0c.06.13.09.24.15.34a.52.52,0,0,0,.46.32.52.52,0,0,0,.48-.36,1.57,1.57,0,0,0,0-1.11.56.56,0,0,0-.86-.28l-.17.14a.24.24,0,0,1-.2.08c-.55-.06-.52,0-.45-.53s.18-1.17.27-1.75C97.63,88.34,97.67,88.23,97.7,88.1Z" transform="translate(-2.08 -5.53)" fill="#f7f7f9"/><path d="M101.18,90.7a.89.89,0,0,1,0-.36.42.42,0,0,1,.34-.44.62.62,0,0,0,.26-.92.43.43,0,0,0-.64-.07.75.75,0,0,0-.18.31c-.07.22-.08.21-.32.17-.45-.08-.51,0-.3-.59a1.14,1.14,0,0,1,1.46-.73,1.24,1.24,0,0,1,.84,1.31,1.06,1.06,0,0,1-.3.69l-.16.18c0,.09,0,.1,0,.12a1.1,1.1,0,0,1,.59,1,1.61,1.61,0,0,1-.45,1.33,1.26,1.26,0,0,1-2-.29,1.82,1.82,0,0,1-.18-.51c0-.17,0-.21.17-.24l.47-.07a.49.49,0,0,1,.14.3.68.68,0,0,0,.18.26.45.45,0,0,0,.65,0,1,1,0,0,0,0-1.29.46.46,0,0,0-.36-.16A1,1,0,0,0,101.18,90.7Z" transform="translate(-2.08 -5.53)" fill="#f7f7f9"/><path d="M25.79,90.22a2.47,2.47,0,0,1,.1-.29,1,1,0,0,1,.77-.63,1.92,1.92,0,0,1,.95,0,.79.79,0,0,1,.62.74c0,.33,0,.67,0,1s0,.76,0,1.13a2.08,2.08,0,0,0,.13.64,1.4,1.4,0,0,1-.67,0s-.06,0-.09-.09,0-.14-.11-.18-.19.14-.29.2a1.06,1.06,0,0,1-.65.17.91.91,0,0,1-.83-.6,1.09,1.09,0,0,1,.74-1.5c.25-.08.5-.13.74-.21s.22,0,.25-.17a.42.42,0,0,0-.16-.44.58.58,0,0,0-.77.14.34.34,0,0,0-.06.12.12.12,0,0,1-.15.07A1.23,1.23,0,0,1,25.79,90.22Zm1.68,1a1.08,1.08,0,0,0-.44.09,1.77,1.77,0,0,0-.38.15.47.47,0,0,0-.11.61.42.42,0,0,0,.54.18.61.61,0,0,0,.41-.5A1.19,1.19,0,0,0,27.47,91.26Z" transform="translate(-2.08 -5.53)" fill="#f7f7f9"/><path d="M34.7,92.86a.89.89,0,0,1-.41,0c-.29,0-.29,0-.43-.28-.08,0-.13.05-.18.09a1.51,1.51,0,0,1-.35.2A.94.94,0,0,1,32,92.15a1.71,1.71,0,0,1,0-.45.85.85,0,0,1,.54-.72,4.36,4.36,0,0,1,.51-.17l.48-.13c.11,0,.24-.07.24-.23a.4.4,0,0,0-.25-.43.55.55,0,0,0-.7.24c-.08.12-.15.18-.29.12h-.05c-.5-.07-.46-.15-.27-.55a.89.89,0,0,1,.61-.49,1.94,1.94,0,0,1,1.07,0,.78.78,0,0,1,.6.67c0,.18,0,.36,0,.54s0,.57,0,.86A4.46,4.46,0,0,0,34.7,92.86Zm-.89-1.35a.51.51,0,0,0,0-.18.13.13,0,0,0-.1-.08,2.72,2.72,0,0,0-.73.24.45.45,0,0,0,.3.83.61.61,0,0,0,.5-.46C33.79,91.74,33.8,91.62,33.81,91.51Z" transform="translate(-2.08 -5.53)" fill="#f7f7f9"/><path d="M17.37,91.12a2.22,2.22,0,0,1,.34-1.22,1.38,1.38,0,0,1,2.32,0,2.33,2.33,0,0,1,0,2.45,1.39,1.39,0,0,1-2.38,0A2.32,2.32,0,0,1,17.37,91.12Zm2.23,0c0-.12,0-.24,0-.35a1,1,0,0,0-.24-.53.58.58,0,0,0-.91,0,.62.62,0,0,0-.12.19,1.74,1.74,0,0,0,0,1.36.75.75,0,0,0,.13.18.58.58,0,0,0,.93,0,.72.72,0,0,0,.15-.27A1.42,1.42,0,0,0,19.6,91.13Z" transform="translate(-2.08 -5.53)" fill="#f7f7f9"/><path d="M82.13,89.42l.05.35c.15,0,.2-.16.29-.23a1,1,0,0,1,1-.16.9.9,0,0,1,.58.8c0,.11,0,.21,0,.32v2.22a.29.29,0,0,1,0,.13s0,.09-.08.09l-.27,0c-.4,0-.4,0-.4-.4V90.89a1.43,1.43,0,0,0-.06-.5.46.46,0,0,0-.78-.22.7.7,0,0,0-.24.47q0,.36,0,.72c0,.45,0,.91,0,1.36,0,.2,0,.23-.24.24h-.09c-.48,0-.44,0-.44-.44v-3a.14.14,0,0,1,.15-.14A1.65,1.65,0,0,1,82.13,89.42Z" transform="translate(-2.08 -5.53)" fill="#f7f7f9"/><path d="M28.88,91.12V89.57c0-.18,0-.21.21-.22h.27c.21,0,.21,0,.24.22,0,0,0,.07,0,.09a.07.07,0,0,0,.11,0c.08-.07.15-.15.23-.21a.94.94,0,0,1,1.55.61,4.23,4.23,0,0,1,.05.5c0,.7,0,1.39,0,2.09,0,.2,0,.23-.24.23-.62,0-.54.07-.55-.52V90.76a1.84,1.84,0,0,0,0-.41.47.47,0,0,0-.79-.23.74.74,0,0,0-.24.48,4,4,0,0,0,0,.49v1.55c0,.25,0,.27-.25.27-.6,0-.54.07-.54-.52V91.12Z" transform="translate(-2.08 -5.53)" fill="#f7f7f9"/><path d="M37.57,93a1.6,1.6,0,0,1-.75-.15,1.15,1.15,0,0,1-.49-.46c-.26-.51-.2-.47.27-.57l.13,0a.19.19,0,0,1,.24.14.64.64,0,0,0,.88.33.37.37,0,0,0,.2-.17A.26.26,0,0,0,38,91.7a2.5,2.5,0,0,0-.25-.09c-.27-.1-.55-.17-.82-.28a1,1,0,0,1-.62-1.09,1,1,0,0,1,.83-.94,1.92,1.92,0,0,1,.95,0,.91.91,0,0,1,.58.47c.15.31.23.42-.2.47l-.18,0a.21.21,0,0,1-.26-.1.65.65,0,0,0-.83-.23.27.27,0,0,0-.18.24.23.23,0,0,0,.15.21l.47.18c.21.07.43.13.64.22a.93.93,0,0,1,.63,1,1.13,1.13,0,0,1-.68,1A1.34,1.34,0,0,1,37.57,93Z" transform="translate(-2.08 -5.53)" fill="#f7f7f9"/><path d="M21.61,89.74c.13-.11.21-.19.31-.26a1,1,0,0,1,1.54.57,1.65,1.65,0,0,1,0,.31c0,.79,0,1.57,0,2.36,0,.15,0,.18-.19.18h-.41c-.12,0-.16-.07-.16-.17,0-.53,0-1.06,0-1.59,0-.24,0-.48-.05-.72a.44.44,0,0,0-.35-.43.52.52,0,0,0-.52.19.71.71,0,0,0-.15.33,2.92,2.92,0,0,0-.06.72v1.5c0,.1,0,.17-.16.17-.69,0-.6.1-.6-.55V89.55c0-.16,0-.19.18-.2h.18C21.54,89.35,21.54,89.35,21.61,89.74Z" transform="translate(-2.08 -5.53)" fill="#fdfdfd"/><path d="M91.42,90a3.61,3.61,0,0,1,0-.66.21.21,0,0,1,.12-.18,2.41,2.41,0,0,0,.54-.41,1.69,1.69,0,0,0,.43-.63.21.21,0,0,1,.24-.15H93a.14.14,0,0,1,.15.13v4.49a1.08,1.08,0,0,1,0,.18A.13.13,0,0,1,93,93H92.6c-.17,0-.2,0-.2-.22V90.06c0-.13,0-.27,0-.41s0-.09,0-.11a.11.11,0,0,0-.12,0c-.17.12-.34.26-.51.37A.35.35,0,0,1,91.42,90Z" transform="translate(-2.08 -5.53)" fill="#f7f7f9"/><path d="M25,88.11c0,.38,0,.66,0,1s0,.3.27.29h.14c.09,0,.12.06.12.15a2.44,2.44,0,0,1,0,.27c0,.27,0,.32-.29.31h-.09c-.12,0-.15.09-.15.19,0,.54,0,1.08,0,1.63,0,.24.07.29.35.28h.13c.08.09.06.2.07.3,0,.39,0,.46-.43.5h-.18a.65.65,0,0,1-.67-.61,1.8,1.8,0,0,1,0-.4c0-.55,0-1.09,0-1.64,0-.07,0-.16-.05-.21a.43.43,0,0,0-.17,0c-.1,0-.12-.07-.13-.15v-.32a1.33,1.33,0,0,1,0-.21c0-.09.14,0,.21-.06a.15.15,0,0,0,.11-.13,1.22,1.22,0,0,0,0-.27.45.45,0,0,1,.28-.51C24.62,88.36,24.75,88.26,25,88.11Z" transform="translate(-2.08 -5.53)" fill="#fdfdfd"/><path d="M80.29,91.17c0-.51,0-1,0-1.54,0-.21,0-.25.23-.25.61,0,.54-.06.55.52v2.58c0,.11,0,.21,0,.32a.13.13,0,0,1-.13.15h-.05c-.67,0-.59.09-.59-.55C80.28,92,80.29,91.58,80.29,91.17Z" transform="translate(-2.08 -5.53)" fill="#f7f7f9"/><path d="M35.94,88.58a2.92,2.92,0,0,1-.06.72,1,1,0,0,1-.39.59c-.19.15-.26.12-.34-.12a.17.17,0,0,1,.07-.19.58.58,0,0,0,.28-.39c0-.18,0-.21-.18-.26s-.15-.05-.15-.14,0-.45,0-.68a.12.12,0,0,1,.11-.11h.05C36,88,35.93,87.88,35.94,88.58Z" transform="translate(-2.08 -5.53)" fill="#f7f7f9"/><path d="M71.47,89.43a.45.45,0,0,1,.14.1.19.19,0,0,1,.07.2c0,.08-.11.08-.19.08H69.15c-.26,0-.33-.07-.33-.32s0-.66,0-1V86.6c0-.11,0-.21,0-.32s0-.12.07-.15.14,0,.17.11.09.19.13.28l0,0c-.13-.07-.17-.07-.17,0,0,1,0,1.9,0,2.85,0,.19,0,.21.21.21h2.17c.1,0,.07-.11.06-.18Z" transform="translate(-2.08 -5.53)" fill="#2b376b"/><path d="M46.09,86.43a.51.51,0,0,1,.15-.28.1.1,0,0,1,.08,0s0,0,0,.06a1.64,1.64,0,0,1,0,.22v3c0,.4,0,.4-.41.4H43.59c-.06,0-.1-.1-.07-.14s.13-.28.3-.32l0,0a.05.05,0,0,1,0,0c-.1.22-.09.24.11.24h2.17a.13.13,0,0,0,.11-.12s0-.09,0-.13c0-.91,0-1.81,0-2.71a.57.57,0,0,0,0-.18l-.08,0Z" transform="translate(-2.08 -5.53)" fill="#2b376b"/><path d="M81.06,88.49a2.43,2.43,0,0,1,0,.27.12.12,0,0,1-.13.14c-.74,0-.64.11-.64-.59a.29.29,0,0,1,0-.13.15.15,0,0,1,.14-.15h.18C81.12,88,81.06,88,81.06,88.49Z" transform="translate(-2.08 -5.53)" fill="#f7f7f9"/><path d="M45.55,87.07a.89.89,0,0,1,.36-.45l.06,0a1.79,1.79,0,0,1-.36.46Z" transform="translate(-2.08 -5.53)" fill="#2b376b"/><path d="M45.28,87.44a.19.19,0,0,1,.18-.19l0,0a.35.35,0,0,1-.16.2Z" transform="translate(-2.08 -5.53)" fill="#2b376b"/><path d="M70.83,88.61a.22.22,0,0,1,.18.19l-.06,0a.42.42,0,0,1-.16-.21Z" transform="translate(-2.08 -5.53)" fill="#2b376b"/><path d="M71.1,89a.19.19,0,0,1,.18.18l0,0a.42.42,0,0,1-.16-.21Z" transform="translate(-2.08 -5.53)" fill="#2b376b"/><path d="M43.82,89.34a.36.36,0,0,1,.19-.27l.05.05a.49.49,0,0,1-.2.25Z" transform="translate(-2.08 -5.53)" fill="#2b376b"/><path d="M45.91,86.62a.21.21,0,0,1,.18-.19l0,0a.37.37,0,0,1-.15.2Z" transform="translate(-2.08 -5.53)" fill="#2b376b"/><path d="M44.28,88.71a.21.21,0,0,1,.18-.19l0,0a.4.4,0,0,1-.16.2Z" transform="translate(-2.08 -5.53)" fill="#2b376b"/><path d="M44.46,88.52a.37.37,0,0,1,.18-.27l.06,0a.73.73,0,0,1-.2.26Z" transform="translate(-2.08 -5.53)" fill="#2b376b"/><path d="M70.47,88.16a.19.19,0,0,1,.17.18l0,0a.34.34,0,0,1-.16-.21Z" transform="translate(-2.08 -5.53)" fill="#2b376b"/><path d="M69.19,86.52a.2.2,0,0,1,.18.19l0,.05a.39.39,0,0,1-.17-.21Z" transform="translate(-2.08 -5.53)" fill="#2b376b"/><path d="M44.64,88.25a.19.19,0,0,1,.18-.18l0,0a.34.34,0,0,1-.15.2Z" transform="translate(-2.08 -5.53)" fill="#2b376b"/><path d="M69.56,87a.21.21,0,0,1,.18.18l-.06.06a.47.47,0,0,1-.16-.21Z" transform="translate(-2.08 -5.53)" fill="#2b376b"/><path d="M70.19,87.8a.19.19,0,0,1,.18.18l-.05,0a.32.32,0,0,1-.16-.2Z" transform="translate(-2.08 -5.53)" fill="#2b376b"/><path d="M44.92,87.89a.2.2,0,0,1,.17-.19l0,0A.39.39,0,0,1,45,88Z" transform="translate(-2.08 -5.53)" fill="#2b376b"/><path d="M45.09,87.7a.38.38,0,0,1,.19-.26l0,0a.47.47,0,0,1-.2.26Z" transform="translate(-2.08 -5.53)" fill="#2b376b"/><path d="M69.83,87.34a.2.2,0,0,1,.18.19l-.05,0a.35.35,0,0,1-.16-.2Z" transform="translate(-2.08 -5.53)" fill="#2b376b"/><path d="M44,89.07c0-.1.07-.17.17-.18l0,0a.42.42,0,0,1-.16.21Z" transform="translate(-2.08 -5.53)" fill="#2b376b"/><path d="M71,88.8a.24.24,0,0,1,.09.18l0,0a.26.26,0,0,1-.12-.15Z" transform="translate(-2.08 -5.53)" fill="#2b376b"/><path d="M44.18,88.89a.29.29,0,0,1,.1-.18l.06.05c0,.07-.05.13-.12.15Z" transform="translate(-2.08 -5.53)" fill="#2b376b"/><path d="M70.73,88.43a.27.27,0,0,1,.1.18l0,0a.3.3,0,0,1-.12-.15Z" transform="translate(-2.08 -5.53)" fill="#2b376b"/><path d="M71.37,89.25a.29.29,0,0,1,.1.18l0,0a.27.27,0,0,1-.13-.15Z" transform="translate(-2.08 -5.53)" fill="#2b376b"/><path d="M69.46,86.8a.29.29,0,0,1,.1.18l0,0c-.07,0-.09-.09-.12-.15Z" transform="translate(-2.08 -5.53)" fill="#2b376b"/><path d="M69.74,87.16a.26.26,0,0,1,.09.18l0,0a.22.22,0,0,1-.12-.15Z" transform="translate(-2.08 -5.53)" fill="#2b376b"/><path d="M70.37,88a.29.29,0,0,1,.1.18l0,0a.19.19,0,0,1-.12-.15Z" transform="translate(-2.08 -5.53)" fill="#2b376b"/><path d="M45.46,87.25a.26.26,0,0,1,.09-.18l.06.06a.22.22,0,0,1-.12.15Z" transform="translate(-2.08 -5.53)" fill="#2b376b"/><path d="M44.82,88.07a.29.29,0,0,1,.1-.18L45,88a.27.27,0,0,1-.13.15Z" transform="translate(-2.08 -5.53)" fill="#2b376b"/><path d="M70.1,87.62a.24.24,0,0,1,.09.18l0,0a.27.27,0,0,1-.13-.15Z" transform="translate(-2.08 -5.53)" fill="#2b376b"/><path d="M71.28,89.16l.09.09-.07.06-.07-.1Z" transform="translate(-2.08 -5.53)" fill="#2b376b"/><path d="M70.64,88.34l.09.09-.06.06-.07-.1Z" transform="translate(-2.08 -5.53)" fill="#2b376b"/><path d="M69.37,86.71l.09.09-.06.06-.07-.1Z" transform="translate(-2.08 -5.53)" fill="#2b376b"/><path d="M70,87.53l.09.09-.07.06L70,87.57Z" transform="translate(-2.08 -5.53)" fill="#2b376b"/><path d="M104.75,17.82V64.45a3.35,3.35,0,0,1-.93.19c-1.25.22-2.51.41-3.76.62l-3.58.57-3.72.6L89.14,67l-3.63.58-3.67.6-3.67.59-3,.49-3.71.61-3.58.57-3.72.61-3.62.58c-.85.14-1.71.27-2.55.42a3.26,3.26,0,0,1-1.08,0l-3.67-.6-3.72-.6-3.62-.59-3.68-.59-3-.49-3.67-.59-3.09-.5-3.63-.59L25,66.92l-3.67-.6-3.63-.58-3.58-.57-3.71-.61a1.55,1.55,0,0,1-.31-.06.15.15,0,0,1-.13-.16V18.25c0-.47-.11-.46.48-.55l3.67-.59,3.63-.59,3.62-.58,3.09-.5,3.72-.61,3.62-.58,3.67-.6,3-.49,3.63-.58,3.67-.6,3.71-.6,3.58-.58,3.72-.6a3,3,0,0,1,1.08,0l3.67.59,3.67.6L68.9,12l3.63.59,3.67.59,3.63.58,3.71.61,3.58.57,3.72.61,3.62.58,3.09.5,3.63.59,3.13.5A1.37,1.37,0,0,1,104.75,17.82ZM57.39,40.52H98.25a4.13,4.13,0,0,0,3.9-3.15,5.06,5.06,0,0,0,.13-1.22V22.52a3.5,3.5,0,0,0-1.69-3,7.65,7.65,0,0,0-2.73-1.06c-.61-.11-1.22-.2-1.83-.3l-4.26-.68-4.25-.67L82.68,16l-4.84-.77L73,14.45l-4.84-.77-4.84-.78L57.74,12a1.72,1.72,0,0,0-.64,0l-1.88.31-3.67.58-3.67.58-3.76.6-3.63.58-4.26.68L32,16l-4.84.78-4.84.76-5,.8a8.1,8.1,0,0,0-2.17.64,5.22,5.22,0,0,0-1.24.74,3.46,3.46,0,0,0-1.32,2.2,4,4,0,0,0-.05.77V36.41a4.15,4.15,0,0,0,3.26,4,6.23,6.23,0,0,0,1.36.1Zm0,1.23h-41a3,3,0,0,0-.89.15,4.17,4.17,0,0,0-3,4c0,1.29,0,2.58,0,3.86v9.72a4.53,4.53,0,0,0,.05.9,3.54,3.54,0,0,0,1.49,2.3,6.85,6.85,0,0,0,2.69,1.15c1.33.25,2.66.43,4,.64l3.67.59,3.72.59,3.72.59,3.67.59,3.67.58,4.25.69,4.26.67,4.84.78,4.43.71a2.72,2.72,0,0,0,.9,0c.67-.12,1.34-.22,2-.33l3.68-.58,3.76-.6L71,68.15l3.72-.59,3.71-.6,3.68-.58,3.67-.58,3.76-.6,3.63-.58c1.42-.23,2.83-.47,4.25-.68a9.15,9.15,0,0,0,2.47-.74,4.87,4.87,0,0,0,1.25-.81,3.21,3.21,0,0,0,1-1.72,4.93,4.93,0,0,0,.13-1.21V46.15a6.47,6.47,0,0,0-.05-.76,4.16,4.16,0,0,0-3.15-3.53,5.37,5.37,0,0,0-1.26-.11Z" transform="translate(-2.08 -5.53)" fill="#fdfdfd"/><path d="M46.22,79.53a2.72,2.72,0,0,1-.11.85,1,1,0,0,1-.92.75.94.94,0,0,1-.91-.69,2.59,2.59,0,0,1,0-1.82A.93.93,0,0,1,45.43,78a1,1,0,0,1,.64.6,1.08,1.08,0,0,1,.1.35A5.63,5.63,0,0,1,46.22,79.53Z" transform="translate(-2.08 -5.53)" fill="#fdfdfd"/><path d="M75.07,79.56a2.65,2.65,0,0,1-.08.72,1.19,1.19,0,0,1-.33.59.89.89,0,0,1-1.23,0,1.19,1.19,0,0,1-.34-.54,3,3,0,0,1,0-1.65,1,1,0,0,1,.65-.71.93.93,0,0,1,1.16.55A2.42,2.42,0,0,1,75.07,79.56Z" transform="translate(-2.08 -5.53)" fill="#fdfdfd"/><path d="M78.26,80.09a1.88,1.88,0,0,1-.07.66,1.47,1.47,0,0,1-.14.28.46.46,0,0,1-.71,0,.81.81,0,0,1-.25-.47,2.76,2.76,0,0,1,0-.86.89.89,0,0,1,.18-.41.48.48,0,0,1,.78,0,.92.92,0,0,1,.14.28.79.79,0,0,1,.06.22C78.25,80,78.25,80.06,78.26,80.09Z" transform="translate(-2.08 -5.53)" fill="#f7f7f9"/><path d="M69.65,80.19c0,.13,0,.25,0,.37a1,1,0,0,1-.18.46.48.48,0,0,1-.8,0,1.81,1.81,0,0,1,0-1.68.47.47,0,0,1,.8,0,.86.86,0,0,1,.16.41C69.64,79.9,69.64,80.05,69.65,80.19Z" transform="translate(-2.08 -5.53)" fill="#f7f7f9"/><path d="M58,80.15a2.2,2.2,0,0,1,.09-.58.6.6,0,0,1,.56-.46.58.58,0,0,1,.49.47,2.17,2.17,0,0,1,0,1.16.61.61,0,0,1-.05.12c-.12.25-.31.4-.51.37a.59.59,0,0,1-.49-.42,1.43,1.43,0,0,1,0-.22Z" transform="translate(-2.08 -5.53)" fill="#f7f7f9"/><path d="M103,71.71a2.28,2.28,0,0,1,.58-1.59,2,2,0,0,1,3.17.19,2.22,2.22,0,0,1,.13,2.48,2,2,0,0,1-2.06,1,2.07,2.07,0,0,1-1.71-1.5A1.71,1.71,0,0,1,103,71.71Zm2.66,0,.16-.11a.71.71,0,0,0,.3-.79c-.05-.34-.28-.48-.57-.58a1.17,1.17,0,0,0-.27,0,4.1,4.1,0,0,0-1,0c-.1,0-.17.06-.17.17V73c0,.09.07.13.15.13.28,0,.36,0,.35-.31,0-.12,0-.24,0-.36v-.45a.13.13,0,0,1,.14-.14h.27a.5.5,0,0,1,.49.4c0,.07,0,.15,0,.22s.07.33.11.48a.2.2,0,0,0,.21.15.46.46,0,0,0,.32,0l-.12-.61A1.08,1.08,0,0,0,105.69,71.7Z" transform="translate(-2.08 -5.53)" fill="#f7f7f9"/><path d="M92.12,80.16c0-.13,0-.27,0-.4a.76.76,0,0,1,.19-.45.47.47,0,0,1,.77,0,.78.78,0,0,1,.11.2,2.11,2.11,0,0,1,0,1.29,1.18,1.18,0,0,1-.11.19.48.48,0,0,1-.83,0,.93.93,0,0,1-.15-.42C92.13,80.43,92.13,80.3,92.12,80.16Z" transform="translate(-2.08 -5.53)" fill="#f7f7f9"/><path d="M85.69,80.33a.9.9,0,0,1,0,.54.51.51,0,0,1-.33.39.39.39,0,0,1-.54-.18.41.41,0,0,1,.18-.57A1.6,1.6,0,0,1,85.69,80.33Z" transform="translate(-2.08 -5.53)" fill="#f7f7f9"/><path d="M40.79,80.29a1.15,1.15,0,0,1,0,.64.52.52,0,0,1-.38.35.39.39,0,0,1-.49-.22.41.41,0,0,1,.17-.54,1.33,1.33,0,0,1,.21-.09Z" transform="translate(-2.08 -5.53)" fill="#f7f7f9"/><path d="M63.4,80.31a1.09,1.09,0,0,1,0,.62.51.51,0,0,1-.29.32.42.42,0,1,1-.38-.75A2.34,2.34,0,0,1,63.4,80.31Z" transform="translate(-2.08 -5.53)" fill="#f7f7f9"/><path d="M34.85,80.28a4.53,4.53,0,0,1,0,.54.55.55,0,0,1-.47.48.39.39,0,0,1-.43-.25.44.44,0,0,1,.15-.52l.2-.09Z" transform="translate(-2.08 -5.53)" fill="#f7f7f9"/><path d="M27.4,80.24a1.27,1.27,0,0,1-.13.59.56.56,0,0,1-.65.36.63.63,0,0,1-.47-.45,1.63,1.63,0,0,1,0-1.11.74.74,0,0,1,.16-.27.55.55,0,0,1,.84,0A1.25,1.25,0,0,1,27.4,80.24Z" transform="translate(-2.08 -5.53)" fill="#f7f7f9"/><path d="M55.73,79.89c-.13,0-.27,0-.4,0s-.15-.06-.14-.18a.61.61,0,0,1,.51-.6.58.58,0,0,1,.52.53c0,.22,0,.25-.22.26h-.27Z" transform="translate(-2.08 -5.53)" fill="#f7f7f9"/><path d="M89.8,79.89h-.41a.12.12,0,0,1-.13-.14.76.76,0,0,1,.2-.49.43.43,0,0,1,.64,0,.77.77,0,0,1,.17.27c.11.3.07.37-.25.38H89.8Z" transform="translate(-2.08 -5.53)" fill="#f7f7f9"/><path d="M80.55,79.9a1.77,1.77,0,0,0-.23,0c-.32,0-.33-.06-.26-.34a1.22,1.22,0,0,1,.07-.17.46.46,0,0,1,.43-.27.47.47,0,0,1,.42.28.61.61,0,0,1,.07.17c.08.25,0,.32-.23.33Z" transform="translate(-2.08 -5.53)" fill="#f7f7f9"/><path d="M46.46,98c0-.32,0-.63,0-1s0-.2.17-.2l1.77,0h0a1.19,1.19,0,0,1,1,1.79.81.81,0,0,1-.66.48c-.23,0-.45,0-.68.06-.47,0-.94,0-1.41,0-.18,0-.21,0-.21-.2C46.46,98.71,46.46,98.37,46.46,98Z" transform="translate(-2.08 -5.53)" fill="#232b54"/><path d="M47.51,93.36l1.05.07a.72.72,0,0,1,.64.49,1.21,1.21,0,0,1,0,1,.76.76,0,0,1-.48.45,2.36,2.36,0,0,1-.45.08H46.66c-.15,0-.19,0-.19-.18q0-.84,0-1.68c0-.15,0-.19.18-.19h.86Z" transform="translate(-2.08 -5.53)" fill="#232b54"/><path d="M88.33,90.87h-.4c-.11,0-.15-.06-.15-.17a.83.83,0,0,1,.1-.35.52.52,0,0,1,.49-.33.55.55,0,0,1,.48.37,2,2,0,0,1,.07.26c0,.16,0,.22-.18.23h-.41Z" transform="translate(-2.08 -5.53)" fill="#2b376b"/><path d="M94.87,89.67a1.25,1.25,0,0,1,.09-.55.43.43,0,0,1,.78-.11,1.4,1.4,0,0,1,.07,1.33.44.44,0,0,1-.82,0A1.22,1.22,0,0,1,94.87,89.67Z" transform="translate(-2.08 -5.53)" fill="#232b54"/><path d="M27.47,91.26a1.19,1.19,0,0,1,0,.53.61.61,0,0,1-.41.5.42.42,0,0,1-.54-.18.47.47,0,0,1,.11-.61,1.77,1.77,0,0,1,.38-.15A1.08,1.08,0,0,1,27.47,91.26Z" transform="translate(-2.08 -5.53)" fill="#232b54"/><path d="M33.81,91.51c0,.11,0,.23,0,.35a.61.61,0,0,1-.5.46.45.45,0,0,1-.3-.83,2.72,2.72,0,0,1,.73-.24.13.13,0,0,1,.1.08A.51.51,0,0,1,33.81,91.51Z" transform="translate(-2.08 -5.53)" fill="#232b54"/><path d="M19.6,91.13a1.42,1.42,0,0,1-.1.58.72.72,0,0,1-.15.27.58.58,0,0,1-.93,0,.75.75,0,0,1-.13-.18,1.74,1.74,0,0,1,0-1.36.62.62,0,0,1,.12-.19.58.58,0,0,1,.91,0,1,1,0,0,1,.24.53C19.59,90.89,19.59,91,19.6,91.13Z" transform="translate(-2.08 -5.53)" fill="#232b54"/><path d="M70,87.57l.07.11a.27.27,0,0,0,.13.15.32.32,0,0,0,.16.2.19.19,0,0,0,.12.15.34.34,0,0,0,.16.21l.07.1a.3.3,0,0,0,.12.15.42.42,0,0,0,.16.21.26.26,0,0,0,.12.15.42.42,0,0,0,.16.21l.07.1a.27.27,0,0,0,.13.15c0,.07,0,.15-.06.18H69.2c-.19,0-.21,0-.21-.21,0-1,0-1.9,0-2.85,0-.11,0-.11.17,0a.39.39,0,0,0,.17.21l.07.1c0,.06,0,.12.12.15a.47.47,0,0,0,.16.21.22.22,0,0,0,.12.15A.35.35,0,0,0,70,87.57Z" transform="translate(-2.08 -5.53)" fill="#da1c16"/><path d="M44.85,88.1A.27.27,0,0,0,45,88a.39.39,0,0,0,.15-.21.47.47,0,0,0,.2-.26.35.35,0,0,0,.16-.2.22.22,0,0,0,.12-.15,1.79,1.79,0,0,0,.36-.46.37.37,0,0,0,.15-.2l.08,0a.57.57,0,0,1,0,.18c0,.9,0,1.8,0,2.71,0,0,0,.09,0,.13a.13.13,0,0,1-.11.12H44c-.2,0-.21,0-.11-.24a.05.05,0,0,0,0,0,.49.49,0,0,0,.2-.25.42.42,0,0,0,.16-.21c.07,0,.09-.08.12-.15a.4.4,0,0,0,.16-.2.73.73,0,0,0,.2-.26A.34.34,0,0,0,44.85,88.1Z" transform="translate(-2.08 -5.53)" fill="#da1c16"/><path d="M57.39,40.52H17.13a6.23,6.23,0,0,1-1.36-.1,4.15,4.15,0,0,1-3.26-4V22.7a4,4,0,0,1,.05-.77,3.46,3.46,0,0,1,1.32-2.2A5.22,5.22,0,0,1,15.12,19a8.1,8.1,0,0,1,2.17-.64l5-.8,4.84-.76L32,16l4.25-.68,4.26-.68,3.63-.58,3.76-.6,3.67-.58,3.67-.58L57.1,12a1.72,1.72,0,0,1,.64,0l5.59.89,4.84.78,4.84.77,4.83.77,4.84.77,4.84.78,4.25.67,4.26.68c.61.1,1.22.19,1.83.3a7.65,7.65,0,0,1,2.73,1.06,3.5,3.5,0,0,1,1.69,3V36.14a5.06,5.06,0,0,1-.13,1.22,4.13,4.13,0,0,1-3.9,3.15H57.39Zm10.46-2.19a.46.46,0,0,1,.1.05,2,2,0,0,0,1.56.59h7.67l1,0a3.54,3.54,0,0,0,1-.18,2.35,2.35,0,0,0,1.5-1.42,4.84,4.84,0,0,0,.19-.65,8,8,0,0,0,.13-1.76q0-3.75,0-7.49c0-.12,0-.25,0-.37s-.06-.18-.21-.18H76.55c-.52,0-.53-.05-.53.51,0,1.93,0,3.85,0,5.77,0,.3,0,.61,0,.91a2.7,2.7,0,0,1-.08.39.41.41,0,0,1-.35.32,4.23,4.23,0,0,1-.5.05h-3.9a3.93,3.93,0,0,1-.59-.06.56.56,0,0,1-.45-.4,1.66,1.66,0,0,1-.06-.21A4,4,0,0,1,70,33.08c0-1.87,0-3.75,0-5.63v-.4a.16.16,0,0,0-.15-.15H66a.15.15,0,0,0-.14.15c0,.12,0,.24,0,.36V31.5c0,.57,0,1.15,0,1.72a3.82,3.82,0,0,1-.1.9.73.73,0,0,1-.7.66,4.48,4.48,0,0,1-.63.06H60.47c-.5,0-.64-.12-.77-.59a1.76,1.76,0,0,1-.06-.4q0-.36,0-.72v-6c0-.13-.07-.18-.21-.19H55.13c-.17,0-.21,0-.22.2s0,.25,0,.37v8A4.68,4.68,0,0,0,55,36.58a2.74,2.74,0,0,0,2.09,2.22,4.51,4.51,0,0,0,1.16.16H66A2.43,2.43,0,0,0,67.85,38.33ZM29.08,31.14h5.27a.15.15,0,0,0,.14-.15c0-.12,0-.24,0-.36v-3c0-.68.07-.6-.61-.6H23.77a.14.14,0,0,1-.14-.15c0-.12,0-.24,0-.37V23.29c0-.12,0-.25,0-.37a.1.1,0,0,0-.11-.11l-.27,0H19.27c-.39,0-.39,0-.39.41v3.27c0,.12,0,.24,0,.36a.15.15,0,0,1-.14.15H16.19a.14.14,0,0,0-.14.15,2.44,2.44,0,0,0,0,.27v3.32a2.44,2.44,0,0,0,0,.27.15.15,0,0,0,.15.14h2.45c.19,0,.22,0,.22.2s0,.21,0,.32c0,1.19,0,2.39,0,3.59a4,4,0,0,0,.11,1,3.22,3.22,0,0,0,2.55,2.59A5.13,5.13,0,0,0,22.7,39l7.17,0a11.27,11.27,0,0,0,1.54-.1,5.42,5.42,0,0,0,.89-.19,2.77,2.77,0,0,0,1.9-2,7.79,7.79,0,0,0,.25-1.43,17.22,17.22,0,0,0,0-1.9c0-.14-.05-.18-.2-.19H30.11a.14.14,0,0,0-.13.15c0,.14,0,.27,0,.41a4.9,4.9,0,0,1,0,.54c-.07.36-.19.45-.55.47H24.57a1.69,1.69,0,0,1-.32,0c-.37,0-.52-.17-.57-.52a6,6,0,0,1-.06-.73c0-.62,0-1.24,0-1.86,0-.42,0-.43.42-.43ZM90.67,27H86a4.76,4.76,0,0,0-1.13.1,2.72,2.72,0,0,0-2,1.81,4.86,4.86,0,0,0-.26,1.56c0,1.72,0,3.45,0,5.17,0,1,.06,2,0,2.95,0,.39,0,.39.42.39H87c.58,0,.54.06.54-.54V31.82c0-.14,0-.27,0-.41a.22.22,0,0,1,.19-.22,1.63,1.63,0,0,1,.54-.05h5c.25,0,.31.07.34.33s0,.27,0,.41q0,3.33,0,6.67c0,.4,0,.39.41.39h4.4c.17,0,.21,0,.21-.23s0-.39,0-.59V30.77a6.76,6.76,0,0,0-.11-1.49A2.64,2.64,0,0,0,96.29,27,5.61,5.61,0,0,0,95.21,27Zm-46.07,12h4.5a7.17,7.17,0,0,0,1.13-.09,2.51,2.51,0,0,0,2.15-1.94,5,5,0,0,0,.17-1.21V30.22a4.7,4.7,0,0,0-.19-1.3,2.51,2.51,0,0,0-1.87-1.86,5.08,5.08,0,0,0-1.34-.17H40A5.52,5.52,0,0,0,39,27a2.71,2.71,0,0,0-2.23,1.89,4.63,4.63,0,0,0-.23,1.48V35.7a4,4,0,0,0,.29,1.42,2.71,2.71,0,0,0,1.81,1.65,4.43,4.43,0,0,0,1.3.17Z" transform="translate(-2.08 -5.53)" fill="#da1c16"/><path d="M57.38,41.75H97.83a5.37,5.37,0,0,1,1.26.11,4.16,4.16,0,0,1,3.15,3.53,6.47,6.47,0,0,1,.05.76V59.46a4.93,4.93,0,0,1-.13,1.21,3.21,3.21,0,0,1-1,1.72,4.87,4.87,0,0,1-1.25.81,9.15,9.15,0,0,1-2.47.74c-1.42.21-2.83.45-4.25.68l-3.63.58-3.76.6-3.67.58L78.41,67l-3.71.6L71,68.15l-3.67.59-3.76.6-3.68.58c-.67.11-1.34.21-2,.33a2.72,2.72,0,0,1-.9,0l-4.43-.71-4.84-.78-4.26-.67-4.25-.69-3.67-.58-3.67-.59-3.72-.59-3.72-.59-3.67-.59c-1.33-.21-2.66-.39-4-.64a6.85,6.85,0,0,1-2.69-1.15,3.54,3.54,0,0,1-1.49-2.3,4.53,4.53,0,0,1-.05-.9V49.76c0-1.28,0-2.57,0-3.86a4.17,4.17,0,0,1,3-4,3,3,0,0,1,.89-.15h41ZM68,44.3a2.57,2.57,0,0,0-1.78-.64c-2.58,0-5.17,0-7.76,0a5.65,5.65,0,0,0-1.08.11,3.09,3.09,0,0,0-1.27.56,2.41,2.41,0,0,0-.75.95,4.41,4.41,0,0,0-.38,1.85c0,2.62,0,5.24,0,7.86a.66.66,0,0,0,.77.75c1.06,0,2.12,0,3.18,0h.23a.53.53,0,0,0,.54-.59,2.43,2.43,0,0,0,0-.27V49.52a5.51,5.51,0,0,1,.08-1c.1-.52.24-.78.91-.77,1.19,0,2.39,0,3.59,0a4.41,4.41,0,0,1,.89.09.7.7,0,0,1,.59.5,1.67,1.67,0,0,1,.11.44c0,.57.08,1.14.08,1.72,0,1.46,0,2.93,0,4.4v.32a.44.44,0,0,0,.28.43.85.85,0,0,0,.39.08h2.77a.55.55,0,0,0,.18,0c.32-.07.51-.26.48-.56,0-.1,0-.21,0-.32,0-1.75,0-3.51,0-5.26a8.32,8.32,0,0,1,.11-1.13.63.63,0,0,1,.6-.63,3.86,3.86,0,0,1,.49-.06h3.86a2.63,2.63,0,0,1,.49.06.48.48,0,0,1,.44.44,5.51,5.51,0,0,1,.1.9c0,.8,0,1.61,0,2.41,0,1.16,0,2.33,0,3.49,0,.47.19.67.66.67h3.59c.47,0,.64-.19.65-.67,0-2.74,0-5.47,0-8.21a4.93,4.93,0,0,0-.28-1.56,2.16,2.16,0,0,0-.9-1.16,2.92,2.92,0,0,0-1.54-.46h-9a1.9,1.9,0,0,0-.74.17A2.13,2.13,0,0,0,68,44.3ZM45,55.75h3.86a10.52,10.52,0,0,0,1.68-.09,2.8,2.8,0,0,0,1.6-.77,2.49,2.49,0,0,0,.54-.88,4.57,4.57,0,0,0,.28-1.55q0-4,0-8c0-.53-.17-.67-.66-.67-1.23,0-2.45,0-3.68,0h-.18a.42.42,0,0,0-.46.4,1.88,1.88,0,0,0,0,.41v6.31c0,.14,0,.27,0,.41a.18.18,0,0,1-.19.2H42.46c-.62,0-.62,0-.62-.65V44.59a2.26,2.26,0,0,0,0-.37c0-.37-.23-.46-.5-.46-1.27,0-2.54,0-3.81,0a.54.54,0,0,0-.56.49,2.77,2.77,0,0,0,0,.41V51A14.06,14.06,0,0,0,37,52.72,5.09,5.09,0,0,0,37.32,54a2.59,2.59,0,0,0,1.34,1.4,3.87,3.87,0,0,0,1.67.34Zm-26.27-3h0v5.72c0,.61.12.73.75.73h3.63a.53.53,0,0,0,.47-.3.64.64,0,0,0,.05-.36c0-.72,0-1.45,0-2.18s-.06-.61.61-.61H31.4a4.3,4.3,0,0,0,1.08-.1,2.34,2.34,0,0,0,1.62-1,2.85,2.85,0,0,0,.38-.92,6.73,6.73,0,0,0,.18-1.48q0-2.39,0-4.77a6.81,6.81,0,0,0-.23-1.74,2.4,2.4,0,0,0-1.5-1.7,3,3,0,0,0-1.14-.24h-10a3.33,3.33,0,0,0-1.61.39,2.54,2.54,0,0,0-1,1,3.87,3.87,0,0,0-.48,1.91C18.69,49,18.69,50.86,18.69,52.76Zm63.93-.11h0v5.63c0,.14,0,.28,0,.41a.53.53,0,0,0,.42.42h4a.5.5,0,0,0,.47-.46c0-.11,0-.21,0-.32v-2c0-.69-.07-.62.64-.62q3.7,0,7.4,0a3.77,3.77,0,0,0,1.33-.24,2.24,2.24,0,0,0,1.36-1.25,3.89,3.89,0,0,0,.35-1.54c0-2,0-3.9,0-5.85a4,4,0,0,0-.24-1.33,2.46,2.46,0,0,0-1.85-1.69,3,3,0,0,0-.85-.1h-10a3.2,3.2,0,0,0-1.15.2,2.49,2.49,0,0,0-1.44,1.24A3.92,3.92,0,0,0,82.62,47C82.61,48.87,82.62,50.76,82.62,52.65Z" transform="translate(-2.08 -5.53)" fill="#232b54"/><path d="M105.69,71.7a1.08,1.08,0,0,1,.42.81l.12.61a.46.46,0,0,1-.32,0,.2.2,0,0,1-.21-.15c0-.15-.07-.32-.11-.48s0-.15,0-.22a.5.5,0,0,0-.49-.4h-.27a.13.13,0,0,0-.14.14v.45c0,.12,0,.24,0,.36,0,.33-.07.32-.35.31-.08,0-.15,0-.15-.13V70.37c0-.11.07-.16.17-.17a4.1,4.1,0,0,1,1,0,1.17,1.17,0,0,1,.27,0c.29.1.52.24.57.58a.71.71,0,0,1-.3.79Zm-1-.67v0c0,.48-.08.52.54.43a.61.61,0,0,0,.18,0,.43.43,0,0,0,.29-.36.44.44,0,0,0-.24-.45.53.53,0,0,0-.3-.09c-.53,0-.47,0-.47.43Z" transform="translate(-2.08 -5.53)" fill="#1d1a1a"/><path d="M67.85,38.33A2.43,2.43,0,0,1,66,39H58.27a4.51,4.51,0,0,1-1.16-.16A2.74,2.74,0,0,1,55,36.58a4.68,4.68,0,0,1-.11-1.12v-8c0-.12,0-.24,0-.37s.05-.2.22-.2H59.4c.14,0,.2.06.21.19v6q0,.36,0,.72a1.76,1.76,0,0,0,.06.4c.13.47.27.59.77.59h3.91a4.48,4.48,0,0,0,.63-.06.73.73,0,0,0,.7-.66,3.82,3.82,0,0,0,.1-.9c0-.57,0-1.15,0-1.72V27.41c0-.12,0-.24,0-.36A.15.15,0,0,1,66,26.9h3.86a.16.16,0,0,1,.15.15v.4c0,1.88,0,3.76,0,5.63a4,4,0,0,0,.08,1.09,1.66,1.66,0,0,0,.06.21.56.56,0,0,0,.45.4,3.93,3.93,0,0,0,.59.06h3.9a4.23,4.23,0,0,0,.5-.05.41.41,0,0,0,.35-.32,2.7,2.7,0,0,0,.08-.39c0-.3,0-.61,0-.91,0-1.92,0-3.84,0-5.77,0-.56,0-.51.53-.51h4.17c.15,0,.2.05.21.18s0,.25,0,.37q0,3.74,0,7.49a8,8,0,0,1-.13,1.76,4.84,4.84,0,0,1-.19.65,2.35,2.35,0,0,1-1.5,1.42,3.54,3.54,0,0,1-1,.18l-1,0H69.51A2,2,0,0,1,68,38.38.46.46,0,0,0,67.85,38.33Zm0-1.15.05,0c.08.06.08.16.11.24a1.39,1.39,0,0,0,1.38,1h8.12a6.63,6.63,0,0,0,1-.08,2,2,0,0,0,1.74-1.55,5.36,5.36,0,0,0,.18-1.44V27.79a2.44,2.44,0,0,0,0-.27c0-.07,0-.1-.11-.11H76.72c-.17,0-.18,0-.19.17V33c0,.28,0,.55,0,.82a4.45,4.45,0,0,1-.1.72,1,1,0,0,1-.93.79,3.39,3.39,0,0,1-.45,0H70.82a1.2,1.2,0,0,1-1.26-1.08l0-.18A9.79,9.79,0,0,1,69.46,33V27.67c0-.26,0-.26-.24-.26q-1.36,0-2.73,0a.93.93,0,0,0-.19,0V28c0,1.6,0,3.2,0,4.81,0,.33,0,.66,0,1a2.43,2.43,0,0,1-.15.71,1.1,1.1,0,0,1-.83.76,2.23,2.23,0,0,1-.63.09H60.3a1,1,0,0,1-1-.74c0-.13-.07-.26-.1-.4a5.15,5.15,0,0,1-.08-1V27.53a.11.11,0,0,0-.11-.12H55.5a.12.12,0,0,0-.11.12c0,.09,0,.19,0,.28,0,2.46,0,4.93,0,7.4a6.56,6.56,0,0,0,.09,1.08,2.26,2.26,0,0,0,1.88,2.06,6,6,0,0,0,1.26.14h7.17a4.3,4.3,0,0,0,1-.08,1.31,1.31,0,0,0,1-.84C67.76,37.44,67.81,37.31,67.85,37.18Z" transform="translate(-2.08 -5.53)" fill="#1d1a1a"/><path d="M29.08,31.14H24c-.42,0-.42,0-.42.43,0,.62,0,1.24,0,1.86a6,6,0,0,0,.06.73c.05.35.2.49.57.52a1.69,1.69,0,0,0,.32,0h4.81c.36,0,.48-.11.55-.47a4.9,4.9,0,0,0,0-.54c0-.14,0-.27,0-.41a.14.14,0,0,1,.13-.15h4.18c.15,0,.2.05.2.19a17.22,17.22,0,0,1,0,1.9,7.79,7.79,0,0,1-.25,1.43,2.77,2.77,0,0,1-1.9,2,5.42,5.42,0,0,1-.89.19,11.27,11.27,0,0,1-1.54.1L22.7,39a5.13,5.13,0,0,1-1.17-.09A3.22,3.22,0,0,1,19,36.29a4,4,0,0,1-.11-1c0-1.2,0-2.4,0-3.59,0-.11,0-.21,0-.32s0-.2-.22-.2H16.2a.15.15,0,0,1-.15-.14,2.44,2.44,0,0,1,0-.27V27.41a2.44,2.44,0,0,1,0-.27.14.14,0,0,1,.14-.15h2.54a.15.15,0,0,0,.14-.15c0-.12,0-.24,0-.36V23.2c0-.4,0-.41.39-.41h3.95l.27,0a.1.1,0,0,1,.11.11c0,.12,0,.25,0,.37v3.17c0,.13,0,.25,0,.37a.14.14,0,0,0,.14.15H33.89c.68,0,.6-.08.61.6v3c0,.12,0,.24,0,.36a.15.15,0,0,1-.14.15H29.08Zm1.41,2.52c0,.07,0,.13,0,.19a3.42,3.42,0,0,1-.13.71.79.79,0,0,1-.71.61,3.42,3.42,0,0,1-.45,0H24.65a4.46,4.46,0,0,1-.63-.05.94.94,0,0,1-.79-.72,2.78,2.78,0,0,1-.09-.76c0-.82,0-1.63,0-2.45,0-.18-.08-.4.05-.52s.35,0,.53,0c3.25,0,6.51,0,9.76,0h.41a.15.15,0,0,0,.12-.12,1.08,1.08,0,0,0,0-.18c0-.86,0-1.73,0-2.59,0-.25,0-.25-.25-.26H23.32c-.15,0-.18,0-.18-.2V23.49c0-.15,0-.19-.19-.19H19.59c-.19,0-.21,0-.22.2V27c0,.12,0,.24,0,.36a.13.13,0,0,1-.14.14H16.81c-.29,0-.29,0-.29.31v2.54a1.09,1.09,0,0,0,0,.18.12.12,0,0,0,.11.12h2.59c.09,0,.13.06.14.14v.14c0,1.42,0,2.84,0,4.27a4,4,0,0,0,.25,1.46,2.58,2.58,0,0,0,1.66,1.62,3.79,3.79,0,0,0,1.34.2l7.54-.06a8.72,8.72,0,0,0,1.44-.1,2.41,2.41,0,0,0,2.18-2,.09.09,0,0,1,0,0A11.45,11.45,0,0,0,34,33.8v0c0-.09,0-.15-.13-.15H30.79A.44.44,0,0,0,30.49,33.66Z" transform="translate(-2.08 -5.53)" fill="#1d1a1a"/><path d="M90.67,27h4.54a5.61,5.61,0,0,1,1.08.08,2.64,2.64,0,0,1,2.2,2.24,6.76,6.76,0,0,1,.11,1.49v7.35c0,.2,0,.4,0,.59s0,.22-.21.23H94c-.39,0-.41,0-.41-.39q0-3.34,0-6.67c0-.14,0-.28,0-.41s-.09-.31-.34-.33h-5a1.63,1.63,0,0,0-.54.05.22.22,0,0,0-.19.22c0,.14,0,.27,0,.41V38.4c0,.6,0,.54-.54.54H83c-.41,0-.42,0-.42-.39,0-1-.07-2,0-2.95,0-1.72,0-3.45,0-5.17a4.86,4.86,0,0,1,.26-1.56,2.72,2.72,0,0,1,2-1.81A4.76,4.76,0,0,1,86,27Zm0,.48h-4.4a6,6,0,0,0-1,.08,2.27,2.27,0,0,0-2,1.8,5.79,5.79,0,0,0-.15,1.31c0,1.92,0,3.84,0,5.76,0,.61,0,1.21,0,1.82,0,.21,0,.23.24.24h3.32c.38,0,.36,0,.36-.38V31.84a4.1,4.1,0,0,1,0-.5.65.65,0,0,1,.64-.65,4.43,4.43,0,0,1,.63,0c1.59,0,3.18,0,4.77,0a2.17,2.17,0,0,1,.36,0,.61.61,0,0,1,.62.6,4.13,4.13,0,0,1,0,.5v6.17c0,.12,0,.25,0,.37a.12.12,0,0,0,.11.12H98a.14.14,0,0,0,.12-.11,1.09,1.09,0,0,0,0-.18q0-3.84,0-7.68A4.89,4.89,0,0,0,97.9,29a2,2,0,0,0-1.48-1.41,5.53,5.53,0,0,0-1.35-.14Z" transform="translate(-2.08 -5.53)" fill="#1d1a1a"/><path d="M44.6,38.94H40a4.43,4.43,0,0,1-1.3-.17,2.71,2.71,0,0,1-1.81-1.65,4,4,0,0,1-.29-1.42V30.35a4.63,4.63,0,0,1,.23-1.48A2.71,2.71,0,0,1,39,27a5.52,5.52,0,0,1,1-.09h9.13a5.08,5.08,0,0,1,1.34.17,2.51,2.51,0,0,1,1.87,1.86,4.7,4.7,0,0,1,.19,1.3v5.49a5,5,0,0,1-.17,1.21,2.51,2.51,0,0,1-2.15,1.94A7.17,7.17,0,0,1,49.1,39Zm0-.5H49a8.14,8.14,0,0,0,.86,0A2.1,2.1,0,0,0,52,36.57a6.62,6.62,0,0,0,.11-1.17q0-2.43,0-4.86a5.22,5.22,0,0,0-.22-1.61,2,2,0,0,0-1.57-1.42,4.68,4.68,0,0,0-1.12-.11H40a4.42,4.42,0,0,0-.63,0,2.29,2.29,0,0,0-2.21,1.88,5.28,5.28,0,0,0-.14,1.12c0,1.68,0,3.36,0,5a4.09,4.09,0,0,0,.24,1.38,2.29,2.29,0,0,0,1.64,1.48,4.64,4.64,0,0,0,1.17.11Z" transform="translate(-2.08 -5.53)" fill="#1d1a1a"/><path d="M68,44.3a2.13,2.13,0,0,1,.61-.46,1.9,1.9,0,0,1,.74-.17h9a2.92,2.92,0,0,1,1.54.46,2.16,2.16,0,0,1,.9,1.16A4.93,4.93,0,0,1,81,46.86c0,2.74,0,5.47,0,8.21,0,.48-.18.67-.65.67H76.74c-.47,0-.66-.2-.66-.67,0-1.16,0-2.33,0-3.49,0-.8,0-1.61,0-2.41a5.51,5.51,0,0,0-.1-.9.48.48,0,0,0-.44-.44,2.63,2.63,0,0,0-.49-.06H71.19a3.86,3.86,0,0,0-.49.06.63.63,0,0,0-.6.63A8.32,8.32,0,0,0,70,49.59c0,1.75,0,3.51,0,5.26,0,.11,0,.22,0,.32,0,.3-.16.49-.48.56a.55.55,0,0,1-.18,0H66.57a.85.85,0,0,1-.39-.08.44.44,0,0,1-.28-.43v-.32c0-1.47,0-2.94,0-4.4,0-.58,0-1.15-.08-1.72a1.67,1.67,0,0,0-.11-.44.7.7,0,0,0-.59-.5,4.41,4.41,0,0,0-.89-.09c-1.2,0-2.4,0-3.59,0-.67,0-.81.25-.91.77a5.51,5.51,0,0,0-.08,1v5.36a2.43,2.43,0,0,1,0,.27.53.53,0,0,1-.54.59h-.23c-1.06,0-2.12,0-3.18,0a.66.66,0,0,1-.77-.75c0-2.62,0-5.24,0-7.86a4.41,4.41,0,0,1,.38-1.85,2.41,2.41,0,0,1,.75-.95,3.09,3.09,0,0,1,1.27-.56,5.65,5.65,0,0,1,1.08-.11c2.59,0,5.18,0,7.76,0A2.57,2.57,0,0,1,68,44.3Zm0,1.15c-.14-.11-.15-.28-.2-.41a1.29,1.29,0,0,0-1-.82,3.22,3.22,0,0,0-.76-.09H58.6a6,6,0,0,0-1,.11,2.26,2.26,0,0,0-2,2,5.22,5.22,0,0,0-.09,1V55.1a.11.11,0,0,0,.12.11H59c.09,0,.15,0,.15-.14s0-.15,0-.23c0-1.69,0-3.38,0-5.08,0-.35,0-.69,0-1a2.15,2.15,0,0,1,.15-.71,1,1,0,0,1,1-.72c.53,0,1.06,0,1.59,0h2.54a3.08,3.08,0,0,1,.9.11,1.1,1.1,0,0,1,.74.68,2.54,2.54,0,0,1,.14.47,4.52,4.52,0,0,1,.09,1V55c0,.25,0,.26.25.26h2.76c.09,0,.15,0,.15-.14V49.72q0-.45,0-.9a2.22,2.22,0,0,1,.18-.84,1,1,0,0,1,.64-.59,2.5,2.5,0,0,1,.77-.09h4a3.39,3.39,0,0,1,.45,0,1,1,0,0,1,.85.72,2.7,2.7,0,0,1,.1.58c0,.34,0,.69,0,1v5c0,.13,0,.27,0,.4s0,.11.12.11h3.49a.34.34,0,0,0,.27-.06.7.7,0,0,0,0-.16V47.15a5.27,5.27,0,0,0-.19-1.48,1.92,1.92,0,0,0-1.68-1.45,6,6,0,0,0-1-.09H69.36a1.35,1.35,0,0,0-1.28,1Z" transform="translate(-2.08 -5.53)" fill="#1d1a1a"/><path d="M45,55.75H40.33a3.87,3.87,0,0,1-1.67-.34A2.59,2.59,0,0,1,37.32,54,5.09,5.09,0,0,1,37,52.72,14.06,14.06,0,0,1,37,51V44.65a2.77,2.77,0,0,1,0-.41.54.54,0,0,1,.56-.49c1.27,0,2.54,0,3.81,0,.27,0,.45.09.5.46a2.26,2.26,0,0,1,0,.37v6.26c0,.64,0,.64.62.65h5.27a.18.18,0,0,0,.19-.2c0-.14,0-.27,0-.41V44.57a1.88,1.88,0,0,1,0-.41.42.42,0,0,1,.46-.4h.18c1.23,0,2.45,0,3.68,0,.49,0,.66.14.66.67q0,4,0,8A4.57,4.57,0,0,1,52.64,54a2.49,2.49,0,0,1-.54.88,2.8,2.8,0,0,1-1.6.77,10.52,10.52,0,0,1-1.68.09Zm0-.53h4.77A3.52,3.52,0,0,0,51,55a1.9,1.9,0,0,0,1.1-1,5.17,5.17,0,0,0,.18-.51,6.47,6.47,0,0,0,.16-1.58V44.69a2.44,2.44,0,0,0,0-.27c0-.15,0-.19-.18-.19H48.67c-.19,0-.21,0-.22.19v6.4a3.82,3.82,0,0,1-.05.68.6.6,0,0,1-.52.5,1.23,1.23,0,0,1-.27,0H42.44A3.19,3.19,0,0,1,41.9,52a.65.65,0,0,1-.53-.55,2.93,2.93,0,0,1,0-.59v-6.4c0-.15,0-.18-.19-.18h-3.5c-.11,0-.16.06-.16.17,0,.59-.06,1.18,0,1.77,0,2,0,4.05,0,6.08a4.62,4.62,0,0,0,.11,1,2.27,2.27,0,0,0,1.92,1.92,4.07,4.07,0,0,0,.85.07Z" transform="translate(-2.08 -5.53)" fill="#1d1a1a"/><path d="M18.69,52.76c0-1.9,0-3.79,0-5.68a3.87,3.87,0,0,1,.48-1.91,2.54,2.54,0,0,1,1-1,3.33,3.33,0,0,1,1.61-.39h10a3,3,0,0,1,1.14.24,2.4,2.4,0,0,1,1.5,1.7,6.81,6.81,0,0,1,.23,1.74q0,2.39,0,4.77a6.73,6.73,0,0,1-.18,1.48,2.85,2.85,0,0,1-.38.92,2.34,2.34,0,0,1-1.62,1,4.3,4.3,0,0,1-1.08.1H24.19c-.67,0-.61,0-.61.61s0,1.46,0,2.18a.64.64,0,0,1-.05.36.53.53,0,0,1-.47.3H19.44c-.63,0-.75-.12-.75-.73V52.76Zm.49-.11v5.54c0,.13,0,.27,0,.4a.13.13,0,0,0,.15.14h3.58c.12,0,.16-.07.16-.18v-.31l0-2.45c0-.58-.08-.51.5-.52h7.67a8.24,8.24,0,0,0,1-.07A2,2,0,0,0,34,53.64c0-.08,0-.15,0-.22a6,6,0,0,0,.1-1.27V47.43c0-.23,0-.45,0-.68a3.73,3.73,0,0,0-.26-1.19,1.93,1.93,0,0,0-1.25-1.16,3.54,3.54,0,0,0-1.12-.17h-9.3a4.53,4.53,0,0,0-1,.1,2.23,2.23,0,0,0-1.73,1.5,3.57,3.57,0,0,0-.1.35,5.82,5.82,0,0,0-.14,1.44Z" transform="translate(-2.08 -5.53)" fill="#1d1a1a"/><path d="M82.62,52.65c0-1.89,0-3.78,0-5.67a3.92,3.92,0,0,1,.46-1.87,2.49,2.49,0,0,1,1.44-1.24,3.2,3.2,0,0,1,1.15-.2h10a3,3,0,0,1,.85.1,2.46,2.46,0,0,1,1.85,1.69,4,4,0,0,1,.24,1.33c0,2,0,3.9,0,5.85a3.89,3.89,0,0,1-.35,1.54,2.24,2.24,0,0,1-1.36,1.25,3.77,3.77,0,0,1-1.33.24q-3.69,0-7.4,0c-.71,0-.63-.07-.64.62v2c0,.11,0,.21,0,.32a.5.5,0,0,1-.47.46H83a.53.53,0,0,1-.42-.42c0-.13,0-.27,0-.41V52.65Zm.48-.12v5.9c0,.16.05.19.19.2h3.53c.14,0,.18-.05.19-.2V55.66c0-.53-.05-.48.49-.48h7.58a6.05,6.05,0,0,0,1-.06A2,2,0,0,0,98,53.45a5.85,5.85,0,0,0,.15-1.25v-5A5.45,5.45,0,0,0,98,45.81a2.06,2.06,0,0,0-1.72-1.59,5.81,5.81,0,0,0-1.18-.09H85.93a3.8,3.8,0,0,0-.89.1,2.15,2.15,0,0,0-1.69,1.48,2,2,0,0,0-.1.35,6,6,0,0,0-.15,1.53Z" transform="translate(-2.08 -5.53)" fill="#1d1a1a"/><path d="M104.65,71v0c0-.47-.06-.45.47-.43a.53.53,0,0,1,.3.09.44.44,0,0,1,.24.45.43.43,0,0,1-.29.36.61.61,0,0,1-.18,0c-.62.09-.54,0-.54-.43Z" transform="translate(-2.08 -5.53)" fill="#f7f7f9"/><path d="M67.85,37.18c0,.13-.09.26-.13.39a1.31,1.31,0,0,1-1,.84,4.3,4.3,0,0,1-1,.08H58.61a6,6,0,0,1-1.26-.14,2.26,2.26,0,0,1-1.88-2.06,6.56,6.56,0,0,1-.09-1.08c0-2.47,0-4.94,0-7.4,0-.09,0-.19,0-.28a.12.12,0,0,1,.11-.12H59a.11.11,0,0,1,.11.12v5.62a5.15,5.15,0,0,0,.08,1c0,.14.06.27.1.4a1,1,0,0,0,1,.74h4.36a2.23,2.23,0,0,0,.63-.09,1.1,1.1,0,0,0,.83-.76,2.43,2.43,0,0,0,.15-.71c0-.33,0-.66,0-1,0-1.61,0-3.21,0-4.81v-.51a.93.93,0,0,1,.19,0q1.37,0,2.73,0c.23,0,.24,0,.24.26V33a9.79,9.79,0,0,0,.07,1.08l0,.18a1.2,1.2,0,0,0,1.26,1.08H75a3.39,3.39,0,0,0,.45,0,1,1,0,0,0,.93-.79,4.45,4.45,0,0,0,.1-.72c0-.27,0-.54,0-.82v-5.4c0-.15,0-.17.19-.17h3.59c.07,0,.11,0,.11.11a2.44,2.44,0,0,1,0,.27v7.63a5.36,5.36,0,0,1-.18,1.44,2,2,0,0,1-1.74,1.55,6.63,6.63,0,0,1-1,.08H69.39a1.39,1.39,0,0,1-1.38-1c0-.08,0-.18-.11-.24Z" transform="translate(-2.08 -5.53)" fill="#fdfdfd"/><path d="M30.49,33.66a.44.44,0,0,1,.3-.06h3.09c.09,0,.13.06.13.15v0a11.45,11.45,0,0,1-.23,2.48.09.09,0,0,0,0,0,2.41,2.41,0,0,1-2.18,2,8.72,8.72,0,0,1-1.44.1l-7.54.06a3.79,3.79,0,0,1-1.34-.2,2.58,2.58,0,0,1-1.66-1.62,4,4,0,0,1-.25-1.46c0-1.43,0-2.85,0-4.27V30.8c0-.08-.05-.14-.14-.14H16.64a.12.12,0,0,1-.11-.12,1.09,1.09,0,0,1,0-.18V27.81c0-.29,0-.31.29-.31h2.41a.13.13,0,0,0,.14-.14c0-.12,0-.24,0-.36V23.5c0-.18,0-.2.22-.2H23c.15,0,.19,0,.19.19V27.3c0,.16,0,.19.18.2H33.76c.24,0,.25,0,.25.26,0,.86,0,1.73,0,2.59a1.08,1.08,0,0,1,0,.18.15.15,0,0,1-.12.12h-.41c-3.25,0-6.51,0-9.76,0-.18,0-.4-.08-.53,0s-.05.34-.05.52c0,.82,0,1.63,0,2.45a2.78,2.78,0,0,0,.09.76.94.94,0,0,0,.79.72,4.46,4.46,0,0,0,.63.05h4.54a3.42,3.42,0,0,0,.45,0,.79.79,0,0,0,.71-.61,3.42,3.42,0,0,0,.13-.71C30.48,33.79,30.49,33.73,30.49,33.66Z" transform="translate(-2.08 -5.53)" fill="#fdfdfd"/><path d="M90.67,27.44h4.4a5.53,5.53,0,0,1,1.35.14A2,2,0,0,1,97.9,29a4.89,4.89,0,0,1,.21,1.47q0,3.84,0,7.68a1.09,1.09,0,0,1,0,.18.14.14,0,0,1-.12.11H94.18a.12.12,0,0,1-.11-.12c0-.12,0-.25,0-.37V31.77a4.13,4.13,0,0,0,0-.5.61.61,0,0,0-.62-.6,2.17,2.17,0,0,0-.36,0c-1.59,0-3.18,0-4.77,0a4.43,4.43,0,0,0-.63,0,.65.65,0,0,0-.64.65,4.1,4.1,0,0,0,0,.5v6.22c0,.38,0,.38-.36.38H83.33c-.2,0-.23,0-.24-.24,0-.61,0-1.21,0-1.82,0-1.92,0-3.84,0-5.76a5.79,5.79,0,0,1,.15-1.31,2.27,2.27,0,0,1,2-1.8,6,6,0,0,1,1-.08Z" transform="translate(-2.08 -5.53)" fill="#fdfdfd"/><path d="M44.64,38.44H40.1a4.64,4.64,0,0,1-1.17-.11,2.29,2.29,0,0,1-1.64-1.48,4.09,4.09,0,0,1-.24-1.38c0-1.68,0-3.36,0-5a5.28,5.28,0,0,1,.14-1.12,2.29,2.29,0,0,1,2.21-1.88,4.42,4.42,0,0,1,.63,0h9.12a4.68,4.68,0,0,1,1.12.11,2,2,0,0,1,1.57,1.42,5.22,5.22,0,0,1,.22,1.61q0,2.43,0,4.86A6.62,6.62,0,0,1,52,36.57a2.1,2.1,0,0,1-2.1,1.84,8.14,8.14,0,0,1-.86,0Zm-.13-3.15H47a3.39,3.39,0,0,0,.45,0,.63.63,0,0,0,.6-.63,1.09,1.09,0,0,0,0-.18v-3A1.39,1.39,0,0,0,48,31a.61.61,0,0,0-.52-.44,4.26,4.26,0,0,0-.5,0H41.86c-.63,0-.89.29-.91.93v2.86a1.4,1.4,0,0,0,.06.45.59.59,0,0,0,.47.44,2.78,2.78,0,0,0,.58,0Z" transform="translate(-2.08 -5.53)" fill="#fdfdfd"/><path d="M68,45.45l.12-.33a1.35,1.35,0,0,1,1.28-1h8.21a6,6,0,0,1,1,.09,1.92,1.92,0,0,1,1.68,1.45,5.27,5.27,0,0,1,.19,1.48V55a.7.7,0,0,1,0,.16.34.34,0,0,1-.27.06H76.7c-.07,0-.12,0-.12-.11s0-.27,0-.4v-5c0-.35,0-.7,0-1a2.7,2.7,0,0,0-.1-.58,1,1,0,0,0-.85-.72,3.39,3.39,0,0,0-.45,0h-4a2.5,2.5,0,0,0-.77.09,1,1,0,0,0-.64.59,2.22,2.22,0,0,0-.18.84q0,.45,0,.9v5.36c0,.09-.06.13-.15.14H66.61c-.25,0-.25,0-.25-.26V49.6a4.52,4.52,0,0,0-.09-1,2.54,2.54,0,0,0-.14-.47,1.1,1.1,0,0,0-.74-.68,3.08,3.08,0,0,0-.9-.11H62c-.53,0-1.06,0-1.59,0a1,1,0,0,0-1,.72,2.15,2.15,0,0,0-.15.71c0,.35,0,.69,0,1,0,1.7,0,3.39,0,5.08,0,.08,0,.16,0,.23s-.06.13-.15.14H55.57a.11.11,0,0,1-.12-.11V47.25a5.22,5.22,0,0,1,.09-1,2.26,2.26,0,0,1,2-2,6,6,0,0,1,1-.11H66a3.22,3.22,0,0,1,.76.09,1.29,1.29,0,0,1,1,.82C67.81,45.17,67.82,45.34,68,45.45Z" transform="translate(-2.08 -5.53)" fill="#fdfdfd"/><path d="M45,55.22H40.36a4.07,4.07,0,0,1-.85-.07,2.27,2.27,0,0,1-1.92-1.92,4.62,4.62,0,0,1-.11-1c0-2,0-4.05,0-6.08,0-.59,0-1.18,0-1.77,0-.11.05-.17.16-.17h3.5c.15,0,.18,0,.19.18v6.4a2.93,2.93,0,0,0,0,.59.65.65,0,0,0,.53.55,3.19,3.19,0,0,0,.54.07h5.17a1.23,1.23,0,0,0,.27,0,.6.6,0,0,0,.52-.5,3.82,3.82,0,0,0,.05-.68v-6.4c0-.17,0-.19.22-.19h3.59c.15,0,.18,0,.18.19a2.44,2.44,0,0,1,0,.27v7.22a6.47,6.47,0,0,1-.16,1.58,5.17,5.17,0,0,1-.18.51A1.9,1.9,0,0,1,51,55a3.52,3.52,0,0,1-1.25.2H45Z" transform="translate(-2.08 -5.53)" fill="#fdfdfd"/><path d="M19.18,52.65v-5a5.82,5.82,0,0,1,.14-1.44,3.57,3.57,0,0,1,.1-.35,2.23,2.23,0,0,1,1.73-1.5,4.53,4.53,0,0,1,1-.1h9.3a3.54,3.54,0,0,1,1.12.17,1.93,1.93,0,0,1,1.25,1.16,3.73,3.73,0,0,1,.26,1.19c0,.23,0,.45,0,.68v4.72a6,6,0,0,1-.1,1.27c0,.07,0,.14,0,.22a2,2,0,0,1-1.78,1.57,8.24,8.24,0,0,1-1,.07H23.55c-.58,0-.5-.06-.5.52l0,2.45v.31c0,.11,0,.18-.16.18H19.34a.13.13,0,0,1-.15-.14c0-.13,0-.27,0-.4Zm7.44-.4h1.72c.36,0,.73,0,1.09,0a.66.66,0,0,0,.71-.71V48.4c0-.64-.25-.88-.87-.88-1.74,0-3.47,0-5.21,0-.73,0-1,.3-1,1,0,.9,0,1.81,0,2.72a2.43,2.43,0,0,0,0,.27.71.71,0,0,0,.62.67,2.81,2.81,0,0,0,.5,0Z" transform="translate(-2.08 -5.53)" fill="#fdfdfd"/><path d="M83.1,52.53V47.59a6,6,0,0,1,.15-1.53,2,2,0,0,1,.1-.35A2.15,2.15,0,0,1,85,44.23a3.8,3.8,0,0,1,.89-.1h9.12a5.81,5.81,0,0,1,1.18.09A2.06,2.06,0,0,1,98,45.81a5.45,5.45,0,0,1,.17,1.39v5A5.85,5.85,0,0,1,98,53.45a2,2,0,0,1-1.85,1.67,6.05,6.05,0,0,1-1,.06H87.5c-.54,0-.49,0-.49.48v2.77c0,.15-.05.19-.19.2H83.29c-.14,0-.18,0-.19-.2v-5.9Zm7.49-5.23H87.73a.69.69,0,0,0-.68.61,2.28,2.28,0,0,0,0,.45V51a2.73,2.73,0,0,0,0,.5.57.57,0,0,0,.4.45A1.35,1.35,0,0,0,88,52h5.12a2.74,2.74,0,0,0,.5,0,.62.62,0,0,0,.51-.51,2.87,2.87,0,0,0,0-.41V48.26a1.09,1.09,0,0,0,0-.18.75.75,0,0,0-.86-.78H90.59Z" transform="translate(-2.08 -5.53)" fill="#fdfdfd"/><path d="M44.51,35.29H42.06a2.78,2.78,0,0,1-.58,0A.59.59,0,0,1,41,34.8a1.4,1.4,0,0,1-.06-.45V31.49c0-.64.28-.9.91-.93h5.08a4.26,4.26,0,0,1,.5,0A.61.61,0,0,1,48,31a1.39,1.39,0,0,1,.06.4v3a1.09,1.09,0,0,1,0,.18.63.63,0,0,1-.6.63,3.39,3.39,0,0,1-.45,0Zm0-.51h2.63c.36,0,.38,0,.39-.39V31.58a1.67,1.67,0,0,0,0-.32.19.19,0,0,0-.2-.2H42c-.47,0-.51.05-.52.52V34.3a1.62,1.62,0,0,0,0,.22c0,.18.08.24.25.26h2.77Z" transform="translate(-2.08 -5.53)" fill="#1d1a1a"/><path d="M26.62,52.25H24.17a2.81,2.81,0,0,1-.5,0,.71.71,0,0,1-.62-.67,2.43,2.43,0,0,1,0-.27c0-.91,0-1.82,0-2.72,0-.73.28-1,1-1,1.74,0,3.47,0,5.21,0,.62,0,.88.24.87.88v3.13a.66.66,0,0,1-.71.71c-.36,0-.73,0-1.09,0Zm0-.49h2.58c.36,0,.43-.07.45-.41V48.63a2.44,2.44,0,0,0,0-.27c0-.24-.11-.32-.34-.33H23.84a.32.32,0,0,0-.25.17,1,1,0,0,0-.08.49c0,.82,0,1.63,0,2.45,0,.43,0,.63.64.61Z" transform="translate(-2.08 -5.53)" fill="#1d1a1a"/><path d="M90.59,47.3h2.67a.75.75,0,0,1,.86.78,1.09,1.09,0,0,1,0,.18v2.81a2.87,2.87,0,0,1,0,.41.62.62,0,0,1-.51.51,2.74,2.74,0,0,1-.5,0H88a1.35,1.35,0,0,1-.49-.07.57.57,0,0,1-.4-.45,2.73,2.73,0,0,1,0-.5V48.37a2.28,2.28,0,0,1,0-.45.69.69,0,0,1,.68-.61h2.86Zm0,4.2h2.63c.4,0,.41,0,.41-.41,0-1,0-1.91,0-2.86v-.18a.25.25,0,0,0-.22-.25,1.09,1.09,0,0,0-.31,0H87.86a.36.36,0,0,0-.34.36,1.09,1.09,0,0,0,0,.18V51c0,.43,0,.46.47.47Z" transform="translate(-2.08 -5.53)" fill="#1d1a1a"/><path d="M44.49,34.78H41.72c-.17,0-.23-.08-.25-.26a1.62,1.62,0,0,1,0-.22V31.57c0-.47,0-.52.52-.52h5.31a.19.19,0,0,1,.2.2,1.67,1.67,0,0,1,0,.32v2.81c0,.37,0,.39-.39.39Z" transform="translate(-2.08 -5.53)" fill="#da1c16"/><path d="M26.64,51.76H24.15c-.6,0-.65-.18-.64-.61,0-.82,0-1.63,0-2.45a1,1,0,0,1,.08-.49.32.32,0,0,1,.25-.17h5.48c.23,0,.32.09.34.33a2.44,2.44,0,0,1,0,.27v2.72c0,.34-.09.41-.45.41Z" transform="translate(-2.08 -5.53)" fill="#232b54"/><path d="M90.56,51.5H88c-.43,0-.47,0-.47-.47V48.31a1.09,1.09,0,0,1,0-.18.36.36,0,0,1,.34-.36h5.21a1.09,1.09,0,0,1,.31,0,.25.25,0,0,1,.22.25v.18c0,1,0,1.91,0,2.86,0,.39,0,.4-.41.41Z" transform="translate(-2.08 -5.53)" fill="#232b54"/></svg>