<svg id="Layer_1" data-name="Layer 1" xmlns="http://www.w3.org/2000/svg" width="90.6" height="73.33" viewBox="0 0 90.6 73.33"><title>tsb</title><path d="M93.24,42V75c0,.17,0,.21-.2.21-.35,0-.7,0-1.05,0,0-.32,0-.64,0-1s0-.28-.26-.28H5.08c-.16,0-.23,0-.22.2,0,.34,0,.68,0,1H2.78c-.11,0-.16,0-.14-.13a.17.17,0,0,0,0-.07q0-36.47,0-72.92c0-.16,0-.2.21-.2H47.56c0,.08-.05.12-.1.16q-4.5,5-9,10.07-4.89,5.46-9.77,10.92c-.1.11-.16.11-.28,0-1.47-1.21-2.94-2.41-4.41-3.63-.15-.12-.23-.12-.37,0l-3.77,4.05L11,33,3.68,40.89c-.34.35-.66.71-1,1.09h.15L13.24,39.4a.46.46,0,0,0,.22-.14l4.14-4.79,6-7c.1-.12.15-.12.27,0l5.11,5c.11.11.18.09.29,0l19-12.24a.34.34,0,0,1,.42,0L59.77,27a.29.29,0,0,0,.38,0l3.46-2.62a.21.21,0,0,1,.32,0c1.41,1.34,2.84,2.67,4.26,4l6.26,5.9a.19.19,0,0,0,.29,0l3.13-2.21c.16-.11.21-.08.32.06l5.72,7.35a.74.74,0,0,0,.41.28c1.75.43,3.49.89,5.24,1.33ZM62.42,39.31h0c0-.34,0-.67,0-1,0-.15,0-.21-.19-.22L60.93,38l-4.86-.31c-.12,0-.18,0-.18.15,0,.48,0,1,0,1.44,0,.11,0,.16.14.18a3.39,3.39,0,0,1,.78.25.84.84,0,0,1,.55.87c0,1.28,0,2.56,0,3.83,0,.19-.06.22-.23.22-1,0-2-.07-3-.09-.17,0-.22-.05-.22-.22,0-1.34,0-2.67,0-4a2.6,2.6,0,0,1,0-.39.32.32,0,0,1,.27-.31,3.67,3.67,0,0,1,1-.17c.12,0,.18-.05.18-.19,0-.46,0-.93,0-1.4,0-.13,0-.18-.17-.19L53,37.56c-1.29-.05-2.58-.06-3.87-.08-.16,0-.22,0-.22.2,0,.47,0,.94,0,1.4,0,.12,0,.18.16.19a2.06,2.06,0,0,1,.64.15c.6.21.71.36.71,1q0,5.43,0,10.86a4.55,4.55,0,0,1,0,.53c0,.32-.12.39-.44.47a8.81,8.81,0,0,1-.88.11c-.12,0-.15,0-.15.16q0,.74,0,1.47c0,.13,0,.17.16.17H55.2c.13,0,.16,0,.16-.17,0-.47,0-.95,0-1.42,0-.15-.06-.19-.2-.2a2.41,2.41,0,0,1-.65-.12c-.49-.15-.61-.29-.61-.81,0-1.56,0-3.11,0-4.67,0-.15.05-.19.19-.18,1,0,2,.06,3,.07.19,0,.22.07.22.25,0,1.5,0,3,0,4.51,0,.15,0,.3,0,.45a.42.42,0,0,1-.44.41l-.79.1c-.15,0-.22.06-.21.23,0,.44,0,.88,0,1.31,0,.2,0,.25.24.25h6c.07,0,.19,0,.2-.1a11.24,11.24,0,0,0,0-1.64h.1c-.08.09,0,.2-.06.3a11.86,11.86,0,0,1,0,1.33c0,.09,0,.11.12.11l.57,0,5.61,0c1.34,0,2.67,0,4,0,.14,0,.2,0,.21-.19,0-.37.05-.74.07-1.11.07-1.28.13-2.56.21-3.84,0-.12,0-.16-.14-.16-.35,0-.7,0-1-.05-.17,0-.22.05-.27.19a12.69,12.69,0,0,1-1.25,2.82.63.63,0,0,1-.39.3,6.31,6.31,0,0,1-2.21.07.44.44,0,0,1-.38-.38,3.13,3.13,0,0,1-.07-.75c0-.85,0-1.7,0-2.56,0-.44,0-.89,0-1.33,0-.12,0-.18.16-.17l.64.07a.91.91,0,0,1,.75.62,6.67,6.67,0,0,1,.4,1.81c0,.15,0,.23.22.23.35,0,.71,0,1.06.06.16,0,.2,0,.2-.19,0-.43,0-.87,0-1.31,0-1.61,0-3.22.06-4.82v-.29a.25.25,0,0,1,.06.13.28.28,0,0,0,.31.28c.33,0,.66.07,1,.11.13,0,.17,0,.17-.16,0-1.4,0-2.8,0-4.2,0-.14,0-.17-.18-.19-1.92-.29-3.84-.53-5.77-.74l-3.87-.4c-.16,0-.23,0-.22.2S62.42,39,62.42,39.31Zm-14,17.78H91.79c.13,0,.23,0,.21-.18s0-.53,0-.8,0-.25-.25-.25H5.05c-.13,0-.19,0-.18.17s0,.57,0,.85,0,.2.2.2Zm22.74,9.44-.75.31a2.52,2.52,0,0,0-1.56,1.65c0,.13-.1.12-.19.05L68,68.07c-.11-.08-.18-.08-.25.06a6.4,6.4,0,0,1-.54.85,1.69,1.69,0,0,1-2.71,0,2.92,2.92,0,0,1-.43-.93,5.88,5.88,0,0,1,0-2.29,2.92,2.92,0,0,1,.46-1.24.85.85,0,0,1,.63-.37c.12,0,.15,0,.12.13s-.11.36-.15.54a1.48,1.48,0,0,0,1.11,1.85,2.62,2.62,0,0,0,1.47,0,1.34,1.34,0,0,0,.69-.46,2,2,0,0,0,.2-2,2.34,2.34,0,0,0-1.52-1.34,5.68,5.68,0,0,0-3-.22,4.66,4.66,0,0,0-2.92,1.69,4.53,4.53,0,0,0-.94,3.7,4,4,0,0,0,2.42,3.23,5.47,5.47,0,0,0,1.78.44,4.56,4.56,0,0,0,3.51-1,5.4,5.4,0,0,0,.86-1,2.33,2.33,0,0,0,1.84,1.9,3.8,3.8,0,0,0,3.26-.6c.14-.09.2-.08.31,0a1.82,1.82,0,0,0,1,.56,5.34,5.34,0,0,0,1.87.06,7.84,7.84,0,0,1,1.21-.21c2,.12,4-.11,6,.13.31,0,.62,0,.94,0,.15,0,.24,0,.28-.18s.11-.15.25-.1a6,6,0,0,0,2.37.44,5.31,5.31,0,0,0,2.47-.61,2.84,2.84,0,0,0,.85-4.32,3.19,3.19,0,0,0-.76-.63h.86c.15,0,.18-.06.17-.19-.06-1.08-.11-2.16-.16-3.24,0-.18-.06-.21-.22-.21h-1c-.14,0-.24,0-.27.18s-.09.14-.21.11a6.61,6.61,0,0,0-1.6-.27,5,5,0,0,0-2.7.56A2.73,2.73,0,0,0,84.41,67a3.38,3.38,0,0,0,.66.78c-.39,0-.73,0-1.07,0-.17,0-.21,0-.2.21,0,.63,0,1.26.08,1.89,0,.15,0,.19-.17.17s-.33,0-.49-.09c-.4-.1-.44-.16-.44-.58,0-3.38,0-6.76,0-10.15a1,1,0,0,0-.38-.7s-.09,0-.14,0l-3.38.16-.93,0c-.16,0-.23.06-.22.24q0,.53,0,1c0,.16,0,.22.21.22a2.25,2.25,0,0,1,.72.11c.45.15.55.28.55.75v8.6c0,.1,0,.21-.12.25s-.39.16-.51,0-.2-.1-.32-.11-.5,0-.75,0a.31.31,0,0,1-.34-.32,1,1,0,0,1,0-.25c0-1.23.06-2.46.07-3.69a2.64,2.64,0,0,0-2.16-2.77,7.4,7.4,0,0,0-3.71.07,3.86,3.86,0,0,0-1.81,1,1.56,1.56,0,0,0,.62,2.57A2.65,2.65,0,0,0,71.19,66.53ZM47.12,32.68h-1c-1.77.06-3.55.13-5.33.26-1.43.1-2.86.22-4.29.37s-3.09.35-4.64.56-3.28.46-4.92.73-3.52.61-5.28,1-3.51.72-5.25,1.12c-.14,0-.2.08-.16.24a8,8,0,0,1,.21.81c0,.19.11.19.25.15l1.28-.3q4.06-.91,8.18-1.6c2.11-.36,4.21-.68,6.33-1,1.44-.19,2.89-.37,4.35-.51s3-.28,4.47-.38c1.89-.13,3.79-.21,5.69-.23,1.41,0,2.83,0,4.25.05,1.22,0,2.44.08,3.66.16,1.9.12,3.8.27,5.7.47,1.57.16,3.15.35,4.72.56s2.93.41,4.39.65,3,.5,4.51.78c2.11.4,4.22.84,6.31,1.34.12,0,.16,0,.19-.11A8.59,8.59,0,0,1,81,37c0-.15,0-.21-.15-.25-1.25-.3-2.51-.58-3.77-.83-2.55-.53-5.11-1-7.69-1.4-2.21-.35-4.44-.65-6.66-.91q-2.62-.3-5.25-.51-2.88-.23-5.77-.33C50.19,32.67,48.7,32.65,47.12,32.68ZM36.2,66.53a1.15,1.15,0,0,1-.35.15,2.66,2.66,0,0,0-2.05,2.66c0,.1,0,.13-.13.16a3.94,3.94,0,0,1-1.23.14c-.45,0-.57-.13-.63-.57a2.72,2.72,0,0,1,0-.49V64.84c0-.15,0-.2.19-.2h1.81c.14,0,.19-.05.18-.19V63c0-.14,0-.19-.18-.18H32c-.18,0-.23,0-.23-.22,0-.64,0-1.29,0-1.93,0-.17-.05-.21-.22-.21H28.45c-.18,0-.23,0-.22.22,0,.64,0,1.28,0,1.91,0,.17,0,.24-.22.23H26.94c-.12,0-.17,0-.17.16q0,.74,0,1.47c0,.14.06.17.18.17.34,0,.67,0,1,0s.25.06.25.25c0,1.33,0,2.67,0,4a3.3,3.3,0,0,0,.27,1.42,2.46,2.46,0,0,0,2.27,1.39,6.19,6.19,0,0,0,3-.56c.26-.11.44-.21.36-.53,0,0,0-.08.05-.1a2.48,2.48,0,0,0,1.37,1.07,3.89,3.89,0,0,0,3.42-.53c.14-.09.23-.13.35,0a1.31,1.31,0,0,0,.5.37,3.23,3.23,0,0,0,1.4.29,5.11,5.11,0,0,0,1.9-.33c.05,0,.16-.09.17,0,.07.21.22.12.34.12H60a1.33,1.33,0,0,1,.2,0c.1,0,.14-.05.14-.15V70.18c0-.11,0-.15-.15-.16a2.76,2.76,0,0,1-.64-.1c-.39-.12-.41-.16-.41-.57v-6a.65.65,0,0,0-.65-.63l-.75,0-3.38.18c-.12,0-.16,0-.16.17,0,.38,0,.76,0,1.13,0,.15.05.17.18.18a3.13,3.13,0,0,1,.85.17.52.52,0,0,1,.36.49v4.58a.24.24,0,0,1-.19.26,3.54,3.54,0,0,1-1.65,0,.33.33,0,0,1-.26-.37c0-1,0-2,0-3a8,8,0,0,0,0-1.38,2.59,2.59,0,0,0-1.81-2.31,3.84,3.84,0,0,0-3.48.52s-.07.08-.13,0a.68.68,0,0,0-.73-.64l-1.42.09-2.55.13c-.12,0-.16,0-.15.16s0,.49,0,.73-.08.42,0,.54.35.06.53.09c.43.07.74.18.73.81,0,1.36,0,2.71,0,4.07,0,.57-.11.67-.68.64,0,0-.11,0-.12,0s-.15-.11-.25-.12-.34,0-.51,0c-.63,0-.64-.06-.63-.69,0-1.25.08-2.49.05-3.74a2.58,2.58,0,0,0-2.05-2.59,7.36,7.36,0,0,0-3.67,0,3.87,3.87,0,0,0-2,1.07,1.58,1.58,0,0,0-.14,1.95A1.85,1.85,0,0,0,36.2,66.53ZM91.43,46.38h.06a1.46,1.46,0,0,1,.18.45c0,.12.09.16.21.19.34,0,.67.13,1,.2.17,0,.24,0,.24-.18,0-1,0-2.1,0-3.14a.26.26,0,0,0-.25-.31c-1-.26-2-.54-3-.79q-3.27-.86-6.57-1.56c-.15,0-.19,0-.19.15,0,.41,0,.82,0,1.22a.23.23,0,0,0,.19.25,6.18,6.18,0,0,1,.91.41.69.69,0,0,1,.38.69c0,.73,0,1.46,0,2.18,0,1.83,0,3.65,0,5.48,0,.2,0,.4,0,.6s-.07.38-.36.43l-.56.06c-.19,0-.25,0-.24-.23.07-.9.11-1.8.18-2.71,0-.2,0-.28-.25-.28a6.36,6.36,0,0,1-.87-.06c-.18,0-.25,0-.31.19A11.75,11.75,0,0,1,80.93,52a.86.86,0,0,1-.62.42,8.15,8.15,0,0,1-1.71,0c-.48,0-.59-.15-.63-.62v-.14c0-1.49,0-3,0-4.47s0-3.18.06-4.78a.57.57,0,0,1,0-.13.27.27,0,0,1,.31-.29,9,9,0,0,1,1,0c.15,0,.2,0,.2-.17,0-.43,0-.85,0-1.27,0-.13,0-.18-.17-.2-.78-.14-1.54-.3-2.32-.43l-3.81-.63c-.18,0-.26,0-.25.21,0,.42,0,.83,0,1.25a.2.2,0,0,0,.15.22c.28.1.56.21.83.33a.75.75,0,0,1,.5.8c0,1.22,0,2.44,0,3.67,0,1.79,0,3.58-.06,5.38,0,.26,0,.52,0,.78a.39.39,0,0,1-.39.4c-.31,0-.61.1-.92.12-.15,0-.19.06-.18.2,0,.42,0,.84,0,1.25,0,.2,0,.25.23.25l5.65,0,5.23.05,5.21,0c.16,0,.22,0,.21-.21,0-.37,0-.75,0-1.13,0-.12,0-.17-.16-.18a5.09,5.09,0,0,1-1-.18.39.39,0,0,1-.32-.42c0-.9,0-1.81,0-2.71,0-.49,0-.49.5-.42a1.24,1.24,0,0,1,1.18.92,3.36,3.36,0,0,1,.24,1c0,.12,0,.17.17.18l1,.08c.28,0,.28,0,.28-.25,0-1.24,0-2.48,0-3.72ZM13.51,45v-.89c0-1,0-1.95,0-2.93,0-.13,0-.17-.16-.14l-1,.23C9.17,42,6,42.78,2.93,43.61a.18.18,0,0,0-.15.22v1c0,.81,0,1.61,0,2.41,0,.08-.06.21.13.17.38-.09.76-.17,1.15-.24.1,0,.13-.07.16-.16a9,9,0,0,1,.71-1.62,1.72,1.72,0,0,1,1.23-1c.17,0,.23,0,.23.16,0,.59,0,1.18,0,1.76,0,2,0,4,0,6,0,.36-.06.43-.43.48s-.64.1-1,.13c-.13,0-.16.07-.15.18v1c0,.28,0,.28.29.28l4,0c.71,0,1.43,0,2.14,0,.14,0,.19,0,.18-.19,0-.4,0-.81,0-1.21,0-.14-.06-.16-.18-.18a7.08,7.08,0,0,1-1.12-.19.36.36,0,0,1-.27-.36c0-.33,0-.66,0-1q0-3.52-.05-7.07c0-.64,0-.62.63-.72a.69.69,0,0,1,.76.35,5.9,5.9,0,0,1,.83,1.78c0,.14.08.2.25.16s.54-.08.81-.13.27-.05.22.23a.14.14,0,0,0,0,.07,9,9,0,0,0,.25,4.45,6.43,6.43,0,0,0,2.55,3.38,5.45,5.45,0,0,0,3.49.9,4.86,4.86,0,0,0,2.63-.9,6.56,6.56,0,0,0,2.32-3.32,11.82,11.82,0,0,0,.55-4.54,9,9,0,0,0-.87-3.44,4.76,4.76,0,0,0-6.15-2.57,6.94,6.94,0,0,0-3.77,3.28A12.45,12.45,0,0,0,13.51,45ZM48.39,73.46H91.72c.07,0,.19,0,.2,0a1,1,0,0,0,0-.41c0-.12-.15-.07-.23-.07H5s-.08,0-.08.06a1.18,1.18,0,0,0,0,.42c0,.09.19,0,.29,0ZM48.24,39h-.06c0-.43,0-.86,0-1.29,0-.17-.06-.21-.22-.2a6.42,6.42,0,0,1-.76,0,.53.53,0,0,0-.62.32c-.05.14-.13.11-.24.05a6.65,6.65,0,0,0-.75-.39,4,4,0,0,0-3.69.2,4.61,4.61,0,0,0-2,2.65,6.89,6.89,0,0,0-.25,3.22,5.37,5.37,0,0,0,1.07,2.65,4.88,4.88,0,0,0,1.74,1.31c.66.34,1.35.62,2,1a2,2,0,0,1,1,1.17,3,3,0,0,1-.16,2,1.43,1.43,0,0,1-2.33.43,5.49,5.49,0,0,1-1-1.32,13.78,13.78,0,0,1-1.11-3c0-.16-.1-.21-.26-.2-.36,0-.71,0-1.07,0-.16,0-.2.06-.19.21l0,1.54c0,1.54.07,3.09.1,4.64,0,.15.05.19.19.18a5.08,5.08,0,0,1,.78,0,.5.5,0,0,0,.58-.32c.08-.2.18-.23.38-.1a4.89,4.89,0,0,0,3.68.74,4.37,4.37,0,0,0,3.25-2.75,7.09,7.09,0,0,0,.49-3.64,5.41,5.41,0,0,0-1-2.75,5.53,5.53,0,0,0-2-1.47,21.71,21.71,0,0,1-2-1.06,1.8,1.8,0,0,1-.86-1.19A2.67,2.67,0,0,1,43,40.07a1.2,1.2,0,0,1,2.17-.38,3.65,3.65,0,0,1,.67,1.1,20.27,20.27,0,0,1,.88,2.84c0,.13.09.18.23.18h1c.28,0,.28,0,.28-.29Zm-.05-4.63c-1,0-2,0-3,0-1.93,0-3.85.17-5.77.33-2.09.17-4.16.39-6.23.66s-3.83.54-5.74.87c-2.4.41-4.8.89-7.18,1.42-1.16.26-2.32.53-3.47.83-.15,0-.19.09-.14.23a.37.37,0,0,1,0,.15c0,.15.08.17.24.13,3.35-.85,6.73-1.56,10.14-2.16,2.66-.46,5.33-.86,8-1.18,1.78-.21,3.57-.37,5.36-.51,2.34-.18,4.69-.27,7-.29,1.77,0,3.54,0,5.31.11s3.62.19,5.42.34,3.35.31,5,.51c1.85.23,3.7.48,5.54.78s3.72.64,5.57,1c2,.42,4,.86,6,1.41.28.07.24-.11.3-.24s0-.23-.16-.28c-3-.8-6.07-1.44-9.14-2s-6.1-1-9.17-1.33q-3.27-.37-6.55-.58C53.14,34.4,50.67,34.3,48.19,34.34ZM29.93,57.6H5.21c-.34,0-.33,0-.34.33s0,.2.21.2h49.7c.07,0,.19,0,.2,0a1.29,1.29,0,0,0,0-.44c0-.12-.15,0-.23,0Zm-1.39-3.37v0h3c.12,0,.21,0,.21-.15,0-.48,0-1,0-1.42,0-.12,0-.15-.15-.17a4.13,4.13,0,0,1-.85-.17c-.39-.12-.47-.22-.48-.64-.05-1.21,0-2.43-.05-3.65,0-.15.06-.2.21-.2a6.62,6.62,0,0,0,1.82-.26A4.42,4.42,0,0,0,35.22,45a6.78,6.78,0,0,0,.39-3.93,3.18,3.18,0,0,0-1.34-2.19,4.45,4.45,0,0,0-2.94-.57c-1,.1-2.07.22-3.11.34L25.31,39a.18.18,0,0,0-.18.22c0,.44,0,.88,0,1.31,0,.13.05.16.17.17a4.94,4.94,0,0,1,.94.12.41.41,0,0,1,.38.44c0,.08,0,.15,0,.22,0,1.41,0,2.82,0,4.23,0,1.61,0,3.22.05,4.83,0,.44,0,.89,0,1.33s-.11.45-.44.52a7.55,7.55,0,0,1-.83.13c-.17,0-.22.1-.22.26,0,.4,0,.8,0,1.2,0,.23.07.26.28.26ZM14.37,65a5.57,5.57,0,0,0,.89-.55,2.64,2.64,0,0,0,.27-3.83,3.66,3.66,0,0,0-2-1,14.69,14.69,0,0,0-2.81-.17H5.1c-.18,0-.24.05-.23.24a8.34,8.34,0,0,1,0,1c0,.24.09.3.3.32a5.55,5.55,0,0,1,1.06.22.37.37,0,0,1,.3.42q0,3.87,0,7.74c0,.3-.06.39-.36.43A9.3,9.3,0,0,1,5.09,70c-.19,0-.23.08-.22.25s0,.58,0,.87,0,.42.4.42h6.12a9.34,9.34,0,0,0,3.24-.45,3,3,0,0,0,2.16-3.47,2.89,2.89,0,0,0-1.49-2.14A8,8,0,0,0,14.37,65Zm7.81,6.76a4.65,4.65,0,0,0,.77-.05,5.16,5.16,0,0,0,2.28-.8,4.33,4.33,0,0,0,1.95-3.74,4.25,4.25,0,0,0-2.9-4.23,6.32,6.32,0,0,0-4.14,0A4.27,4.27,0,0,0,17.6,65a4.67,4.67,0,0,0-.49,2.6,4.21,4.21,0,0,0,1.66,3.17A5.31,5.31,0,0,0,22.18,71.76Zm46-14.16H59.36s-.08,0-.09,0a.93.93,0,0,0,0,.44c0,.11.16.05.24.05H76.84c.07,0,.18,0,.2,0a1.09,1.09,0,0,0,0-.44c0-.11-.17,0-.26,0ZM57.1,62.28h.25a1.89,1.89,0,0,0,1.5-2.87,2,2,0,0,0-2.05-.92,1.9,1.9,0,0,0,.3,3.79ZM87.72,57.6h-4c-.06,0-.16,0-.18,0a.82.82,0,0,0,0,.44c0,.12.15.06.23.06h8c.22,0,.23-.09.23-.26s0-.29-.23-.29C90.39,57.61,89.05,57.6,87.72,57.6Z" transform="translate(-2.64 -1.91)" fill="#fdfdfd"/><path d="M47.65,1.91H93c.17,0,.2,0,.2.2V42c-.09,0-.11-.14-.16-.21l-5.16-8.12L77.17,16.76c-.11-.18-.18-.17-.34-.07l-5,3.24c-.11.07-.17.09-.27,0-1.49-1.86-3-3.71-4.5-5.57L62.13,8.22c-.09-.11-.14-.09-.24,0q-2.34,2.08-4.7,4.15c-.23.2-.23.2-.42,0C54,9.16,51.2,6,48.42,2.82A8.41,8.41,0,0,1,47.65,1.91Z" transform="translate(-2.64 -1.91)" fill="#fefefe"/><path d="M47.65,1.91a8.41,8.41,0,0,0,.77.91C51.2,6,54,9.16,56.77,12.33c.19.23.19.23.42,0q2.36-2.07,4.7-4.15c.1-.08.15-.1.24,0l4.93,6.11c1.5,1.86,3,3.71,4.5,5.57.1.12.16.1.27,0l5-3.24c.16-.1.23-.11.34.07L87.92,33.65l5.16,8.12c0,.07.07.16.16.21v0l-3.68-.93c-1.75-.44-3.49-.9-5.24-1.33a.74.74,0,0,1-.41-.28l-5.72-7.35c-.11-.14-.16-.17-.32-.06l-3.13,2.21a.19.19,0,0,1-.29,0l-6.26-5.9c-1.42-1.34-2.85-2.67-4.26-4a.21.21,0,0,0-.32,0L60.15,27a.29.29,0,0,1-.38,0L48.7,20.21a.34.34,0,0,0-.42,0l-19,12.24c-.11.07-.18.09-.29,0l-5.11-5c-.12-.11-.17-.11-.27,0l-6,7-4.14,4.79a.46.46,0,0,1-.22.14L2.81,42H2.66c.36-.38.68-.74,1-1.09L11,33l8.83-9.49,3.77-4.05c.14-.15.22-.15.37,0,1.47,1.22,2.94,2.42,4.41,3.63.12.1.18.1.28,0q4.88-5.47,9.77-10.92,4.52-5,9-10.07s.11-.08.1-.16Zm-43,39,1.82-.45,4-1c.65-.16,1.3-.31,2-.49.27-.07.59,0,.78-.3a5.15,5.15,0,0,1,.47-.56c.62-.71,1.22-1.43,1.83-2.14s1.22-1.39,1.82-2.09L20,30.68l2.13-2.47c.47-.54.92-1.08,1.38-1.62.1-.12.2-.14.31,0l.15.14,2.43,2.34,1.87,1.83.73.72c.11.12.21.17.37,0a3.48,3.48,0,0,1,.51-.34l1.48-.94,1.85-1.19,1.47-.94c.62-.37,1.22-.8,1.83-1.2l2.4-1.52c.77-.5,1.54-1,2.31-1.5l4-2.54,3.12-2a.23.23,0,0,1,.28,0c.41.27.84.52,1.26.78l2.67,1.63c1,.62,2.06,1.26,3.1,1.88L57.73,25c.59.36,1.17.7,1.74,1.07s.41.3.8,0L63.7,23.5c.11-.09.17-.08.26,0l1,.91L66.4,25.8c.72.69,1.45,1.37,2.18,2.05L70,29.16l3.18,3,1.37,1.29c.08.08.16.13.27,0,.28-.23.59-.4.87-.61.79-.58,1.6-1.12,2.39-1.69.1-.07.16-.07.24,0s.28.36.42.54l2,2.59,1.84,2.36c.48.62,1,1.25,1.45,1.87.26.33.5.7,1,.71l.26,0,2.91.77,2.81.7.81.2s0,0,0,0c-.58-.91-1.15-1.83-1.73-2.73s-1.16-1.81-1.73-2.71-1.24-2-1.87-2.95c-.39-.62-.79-1.23-1.19-1.85l-1.43-2.26-.79-1.23-.9-1.46c-.44-.68-.88-1.35-1.31-2s-.78-1.26-1.18-1.88c-.5-.79-1-1.57-1.52-2.36L77,17.64c-.08-.14-.15-.18-.31-.08-.82.54-1.64,1.06-2.46,1.59l-2.47,1.61a.23.23,0,0,1-.34-.05c-.34-.44-.69-.87-1-1.3-.95-1.17-1.9-2.33-2.84-3.51s-1.88-2.35-2.83-3.52S62.92,10.22,62,9.13c-.08-.1-.12-.09-.2,0-.82.71-1.64,1.42-2.45,2.14l-2.16,1.92c-.3.27-.31.27-.58,0-.59-.66-1.18-1.32-1.76-2s-1.21-1.42-1.84-2.1c-.47-.52-.93-1.05-1.39-1.58-.67-.78-1.36-1.54-2-2.32S48.42,3.8,47.83,3.09c-.2-.24-.23-.24-.43,0L46.09,4.56,43.89,7c-.9,1-1.78,2-2.69,3l-1.94,2.17c-.63.72-1.28,1.43-1.92,2.14-1,1.15-2.05,2.29-3.08,3.44-.79.88-1.57,1.76-2.37,2.64L30.48,22c-.58.64-1.15,1.29-1.72,1.94a.21.21,0,0,1-.35,0c-.24-.21-.49-.4-.73-.6L26.09,22,24,20.31c-.13-.11-.22-.12-.35,0L22,22.12c-.78.84-1.54,1.69-2.33,2.53l-1.78,1.91c-.89,1-1.8,1.92-2.69,2.89l-3.44,3.7-2.33,2.5L6.25,39.06c-.5.54-1,1.07-1.52,1.61A.24.24,0,0,0,4.64,40.87Z" transform="translate(-2.64 -1.91)" fill="#1e1f1e"/><path d="M4.87,75.23c0-.34,0-.68,0-1,0-.18.06-.2.22-.2H91.73c.21,0,.27.06.26.28s0,.63,0,1Z" transform="translate(-2.64 -1.91)" fill="#015b2f"/><path d="M48.45,57.09H5.07c-.17,0-.21,0-.2-.2s0-.57,0-.85,0-.19.18-.17h86.7c.2,0,.27,0,.25.25s0,.54,0,.8-.08.18-.21.18H48.45Z" transform="translate(-2.64 -1.91)" fill="#015b2f"/><path d="M71.19,66.53a2.65,2.65,0,0,1-1-.11,1.56,1.56,0,0,1-.62-2.57,3.86,3.86,0,0,1,1.81-1,7.4,7.4,0,0,1,3.71-.07,2.64,2.64,0,0,1,2.16,2.77c0,1.23,0,2.46-.07,3.69a1,1,0,0,0,0,.25.31.31,0,0,0,.34.32c.25,0,.5,0,.75,0s.21,0,.32.11.34,0,.51,0,.12-.15.12-.25v-8.6c0-.47-.1-.6-.55-.75a2.25,2.25,0,0,0-.72-.11c-.18,0-.22-.06-.21-.22q0-.53,0-1c0-.18.06-.23.22-.24l.93,0,3.38-.16s.1,0,.14,0a1,1,0,0,1,.38.7c0,3.39,0,6.77,0,10.15,0,.42,0,.48.44.58.16,0,.33.06.49.09s.17,0,.17-.17c0-.63,0-1.26-.08-1.89,0-.16,0-.22.2-.21.34,0,.68,0,1.07,0a3.38,3.38,0,0,1-.66-.78,2.73,2.73,0,0,1,1.07-3.8,5,5,0,0,1,2.7-.56,6.61,6.61,0,0,1,1.6.27c.12,0,.19,0,.21-.11s.13-.18.27-.18h1c.16,0,.22,0,.22.21.05,1.08.1,2.16.16,3.24,0,.13,0,.19-.17.19h-.86a3.19,3.19,0,0,1,.76.63,2.84,2.84,0,0,1-.85,4.32,5.31,5.31,0,0,1-2.47.61,6,6,0,0,1-2.37-.44c-.14,0-.22-.06-.25.1s-.13.19-.28.18c-.32,0-.63,0-.94,0-2-.24-4,0-6-.13a7.84,7.84,0,0,0-1.21.21,5.34,5.34,0,0,1-1.87-.06,1.82,1.82,0,0,1-1-.56c-.11-.11-.17-.12-.31,0a3.8,3.8,0,0,1-3.26.6,2.33,2.33,0,0,1-1.84-1.9,5.4,5.4,0,0,1-.86,1,4.56,4.56,0,0,1-3.51,1,5.47,5.47,0,0,1-1.78-.44,4,4,0,0,1-2.42-3.23,4.53,4.53,0,0,1,.94-3.7,4.66,4.66,0,0,1,2.92-1.69,5.68,5.68,0,0,1,3,.22,2.34,2.34,0,0,1,1.52,1.34,2,2,0,0,1-.2,2,1.34,1.34,0,0,1-.69.46,2.62,2.62,0,0,1-1.47,0,1.48,1.48,0,0,1-1.11-1.85c0-.18.1-.36.15-.54s0-.14-.12-.13a.85.85,0,0,0-.63.37,2.92,2.92,0,0,0-.46,1.24,5.88,5.88,0,0,0,0,2.29,2.92,2.92,0,0,0,.43.93,1.69,1.69,0,0,0,2.71,0,6.4,6.4,0,0,0,.54-.85c.07-.14.14-.14.25-.06l.68.47c.09.07.15.08.19-.05a2.52,2.52,0,0,1,1.56-1.65Zm14.12,1.4a0,0,0,0,0,0,0h0a.4.4,0,0,0,0,.11,3.31,3.31,0,0,0,1.84,2,1.78,1.78,0,0,0,1.14,0,.49.49,0,0,0,.39-.46.48.48,0,0,0-.25-.52,3.38,3.38,0,0,0-.74-.3A9.84,9.84,0,0,1,85.31,67.93Zm-8.54-1.86h0c0-.2,0-.4,0-.6a2.13,2.13,0,0,0-1.63-2.17,6.57,6.57,0,0,0-3.52,0,3.39,3.39,0,0,0-1.66.88A1.07,1.07,0,0,0,70.44,66a2.15,2.15,0,0,0,1.18,0,.94.94,0,0,0,.69-.86,1.67,1.67,0,0,0-.11-.66c-.17-.51-.14-.56.39-.71l0,0c.72-.11,1.31,0,1.47.93a6.66,6.66,0,0,1,.07,1.26.23.23,0,0,1-.18.26,11.43,11.43,0,0,1-1.29.42,13.81,13.81,0,0,0-2.34.82,2,2,0,0,0,.92,3.86,3.41,3.41,0,0,0,2.77-1c.11-.1.16-.08.21,0a1.44,1.44,0,0,0,1.12.89A4.53,4.53,0,0,0,77.86,71c.16-.06.23-.14.2-.31a.29.29,0,0,1,0-.13c0-.16-.06-.21-.2-.22h-.44a.71.71,0,0,1-.7-.63,1.54,1.54,0,0,1,0-.37C76.71,68.22,76.74,67.14,76.77,66.07Zm11.07,5.22a4.53,4.53,0,0,0,2.71-.73,2.32,2.32,0,0,0,0-3.8,6.16,6.16,0,0,0-1.7-.7,6.35,6.35,0,0,1-1.46-.52.89.89,0,0,1-.46-.94.82.82,0,0,1,.61-.74,2,2,0,0,1,1.22,0,2.8,2.8,0,0,1,1.73,1.63.42.42,0,0,0,.49.3c.14,0,.18,0,.17-.18,0-.42,0-.85,0-1.27s0-.71-.07-1.06c0-.06,0-.14-.06-.15a2,2,0,0,0-.49,0c-.1,0-.1.16-.12.25s-.1.2-.27.13a4.21,4.21,0,0,0-.63-.2,5.17,5.17,0,0,0-3.36.16,2.21,2.21,0,0,0-1.49,1.78,2.25,2.25,0,0,0,1.08,2.32,6.26,6.26,0,0,0,1.66.66,5.72,5.72,0,0,1,1.4.51.93.93,0,0,1,.48.93.94.94,0,0,1-.69.91,2.29,2.29,0,0,1-1.59-.07,3.73,3.73,0,0,1-1.94-2c-.08-.17-.16-.26-.36-.23h-.15c-.12,0-.15,0-.15.16,0,.71,0,1.42.08,2.13,0,.16,0,.33,0,.49s0,.12.07.12a2.66,2.66,0,0,0,.49,0c.12,0,.11-.18.17-.27a.19.19,0,0,0,0-.08c0-.14.13-.14.26-.08A5.19,5.19,0,0,0,87.84,71.29Zm-5.55-6.88V59.27c0-.27,0-.31-.31-.3L81,59l-2.55.14c-.06,0-.15,0-.16.06a1.69,1.69,0,0,0,0,.45c0,.12.18,0,.28.08s.27.08.4.12A1,1,0,0,1,79.71,61v8.69a.67.67,0,0,1-.65.78l-.18,0c-.35,0-.34,0-.34.41,0,.16.06.2.21.19h4.49c.08,0,.18,0,.22-.09.08-.3,0-.45-.32-.54-.67-.19-.86-.35-.85-1ZM65,71.28a3.9,3.9,0,0,0,3.35-1.72c.33-.46.33-.46-.12-.77,0,0,0,0,0,0s-.16-.08-.23,0a3.47,3.47,0,0,1-.74.88,2.25,2.25,0,0,1-2.45.17,2.72,2.72,0,0,1-1.15-1.73,6.35,6.35,0,0,1,0-2.34,3.29,3.29,0,0,1,.6-1.59,1.3,1.3,0,0,1,1.32-.5.36.36,0,0,1,.32.51c-.06.22-.14.43-.19.66a1.05,1.05,0,0,0,.88,1.38,1.12,1.12,0,0,0,.31,0c1,.06,1.61-.41,1.44-1.56A1.76,1.76,0,0,0,67,63.4a5,5,0,0,0-2.79-.25,4.21,4.21,0,0,0-2.34,1.14,4,4,0,0,0-1.16,3.83,3.52,3.52,0,0,0,2,2.68A4.91,4.91,0,0,0,65,71.28ZM90.13,66a2.67,2.67,0,0,0-1-1.42,1.54,1.54,0,0,0-1.4-.29.43.43,0,0,0-.32.67.71.71,0,0,0,.34.25C88.51,65.54,89.34,65.64,90.13,66Zm-17.82.2.55-.16.7-.22c.11,0,.13-.09.13-.2a4.74,4.74,0,0,0,0-.84c-.06-.49-.33-.67-.82-.6-.13,0-.17.07-.13.2A1.65,1.65,0,0,1,72.31,66.2Z" transform="translate(-2.64 -1.91)" fill="#888784"/><path d="M47.12,32.68c1.58,0,3.07,0,4.56,0q2.9.1,5.77.33,2.63.21,5.25.51c2.22.26,4.45.56,6.66.91,2.58.41,5.14.87,7.69,1.4,1.26.25,2.52.53,3.77.83.18,0,.19.1.15.25a8.59,8.59,0,0,0-.21.84c0,.11-.07.14-.19.11-2.09-.5-4.2-.94-6.31-1.34-1.5-.28-3-.54-4.51-.78s-2.92-.46-4.39-.65-3.15-.4-4.72-.56c-1.9-.2-3.8-.35-5.7-.47C53.72,34,52.5,34,51.28,34c-1.42-.06-2.84-.07-4.25-.05-1.9,0-3.8.1-5.69.23-1.49.1-3,.23-4.47.38s-2.91.32-4.35.51c-2.12.28-4.22.6-6.33,1q-4.11.69-8.18,1.6l-1.28.3c-.14,0-.22,0-.25-.15a8,8,0,0,0-.21-.81c0-.16,0-.2.16-.24q2.61-.6,5.25-1.12t5.28-1c1.64-.27,3.28-.51,4.92-.73s3.09-.4,4.64-.56,2.86-.27,4.29-.37c1.78-.13,3.56-.2,5.33-.26Z" transform="translate(-2.64 -1.91)" fill="#045c31"/><path d="M36.2,66.53a1.85,1.85,0,0,1-1.76-.7,1.58,1.58,0,0,1,.14-1.95,3.87,3.87,0,0,1,2-1.07,7.36,7.36,0,0,1,3.67,0,2.58,2.58,0,0,1,2.05,2.59c0,1.25,0,2.49-.05,3.74,0,.63,0,.66.63.69.17,0,.34,0,.51,0s.22,0,.25.12.07,0,.12,0c.57,0,.68-.07.68-.64,0-1.36,0-2.71,0-4.07,0-.63-.3-.74-.73-.81-.18,0-.42,0-.53-.09s0-.36,0-.54,0-.49,0-.73,0-.15.15-.16l2.55-.13,1.42-.09a.68.68,0,0,1,.73.64c.06,0,.09,0,.13,0a3.84,3.84,0,0,1,3.48-.52,2.59,2.59,0,0,1,1.81,2.31,8,8,0,0,1,0,1.38c0,1,0,2,0,3a.33.33,0,0,0,.26.37,3.54,3.54,0,0,0,1.65,0,.24.24,0,0,0,.19-.26V65.08a.52.52,0,0,0-.36-.49,3.13,3.13,0,0,0-.85-.17c-.13,0-.18,0-.18-.18,0-.37,0-.75,0-1.13,0-.13,0-.17.16-.17l3.38-.18.75,0a.65.65,0,0,1,.65.63v6c0,.41,0,.45.41.57a2.76,2.76,0,0,0,.64.1c.11,0,.15,0,.15.16v1.18c0,.1,0,.15-.14.15a1.33,1.33,0,0,0-.2,0H43.55c-.12,0-.27.09-.34-.12,0,0-.12,0-.17,0a5.11,5.11,0,0,1-1.9.33,3.23,3.23,0,0,1-1.4-.29,1.31,1.31,0,0,1-.5-.37c-.12-.16-.21-.12-.35,0a3.89,3.89,0,0,1-3.42.53,2.48,2.48,0,0,1-1.37-1.07c-.06,0-.06.06-.05.1.08.32-.1.42-.36.53a6.19,6.19,0,0,1-3,.56,2.46,2.46,0,0,1-2.27-1.39,3.3,3.3,0,0,1-.27-1.42c0-1.34,0-2.68,0-4,0-.19,0-.26-.25-.25s-.66,0-1,0c-.12,0-.18,0-.18-.17q0-.73,0-1.47c0-.13.05-.17.17-.16H28c.18,0,.22-.06.22-.23,0-.63,0-1.27,0-1.91,0-.18,0-.23.22-.22h3.09c.17,0,.22,0,.22.21,0,.64,0,1.29,0,1.93,0,.18.05.23.23.22h1.78c.14,0,.19,0,.18.18v1.43c0,.14,0,.19-.18.19H32c-.16,0-.19,0-.19.2v3.74a2.72,2.72,0,0,0,0,.49c.06.44.18.57.63.57a3.94,3.94,0,0,0,1.23-.14c.09,0,.13-.06.13-.16a2.66,2.66,0,0,1,2.05-2.66A1.15,1.15,0,0,0,36.2,66.53Zm11.27-2.06c0-.36,0-.67,0-1s-.08-.28-.28-.27l-1.44.08-2,.1c-.06,0-.12,0-.14.1-.08.33,0,.46.32.52a1.09,1.09,0,0,1,1,1.17v3.43c0,.36,0,.72,0,1.09a.61.61,0,0,1-.57.69l-.22,0c-.38,0-.38,0-.37.43v0c0,.11,0,.15.15.15h4.45c.06,0,.14,0,.15-.06a1.77,1.77,0,0,0,0-.46c0-.09-.16-.08-.25-.1-.59-.14-.76-.34-.76-.94v-4a.38.38,0,0,1,.07-.25,2,2,0,0,1,1.3-.86c.74-.12,1.25.07,1.45.9a1.83,1.83,0,0,1,.07.46c0,1.33,0,2.66,0,4,0,.49-.17.63-.66.7-.33,0-.32,0-.33.4,0,.16,0,.22.21.22.37,0,.73,0,1.09,0h3.21c.08,0,.2,0,.21-.09a.94.94,0,0,0,0-.44c0-.09-.19-.07-.3-.09-.67-.14-.83-.33-.83-1V65.87a4.71,4.71,0,0,0,0-.75,2.35,2.35,0,0,0-.9-1.58,2.46,2.46,0,0,0-1.29-.44,3.28,3.28,0,0,0-2.4.67C48,64,47.78,64.22,47.47,64.47Zm-9.12-1.4a6.24,6.24,0,0,0-1.82.24,3.55,3.55,0,0,0-1.46.77,1.07,1.07,0,0,0-.37,1.16,1,1,0,0,0,.82.76,2.24,2.24,0,0,0,1,0,1,1,0,0,0,.8-.87,1.62,1.62,0,0,0-.13-.72c-.15-.45-.14-.52.32-.64.81-.24,1.5,0,1.62,1,.05.39,0,.77,0,1.16a.25.25,0,0,1-.19.29c-.47.18-1,.32-1.44.46a11.87,11.87,0,0,0-2.25.82A2,2,0,0,0,35.24,71a3.11,3.11,0,0,0,2.16.24,3.21,3.21,0,0,0,1.67-.91c.12-.11.18-.12.25,0a1.32,1.32,0,0,0,.92.81A4.22,4.22,0,0,0,42.75,71c.39-.14.39-.14.36-.55,0-.09,0-.13-.13-.13l-.53,0a.7.7,0,0,1-.69-.59,1.23,1.23,0,0,1,0-.33c0-1.32.1-2.63.05-4A2.15,2.15,0,0,0,40,63.25,7.27,7.27,0,0,0,38.35,63.07ZM28.68,66.8V68c0,.4,0,.81,0,1.22a1.9,1.9,0,0,0,1.56,1.9,5.09,5.09,0,0,0,3.21-.44.14.14,0,0,0,.1-.13c0-.12,0-.24,0-.36s0-.18-.18-.16a6.07,6.07,0,0,1-1.13.06.87.87,0,0,1-.86-.67,2.8,2.8,0,0,1-.13-.86V64.34c0-.16.06-.19.2-.19H32.9c.56,0,.55,0,.56-.57,0-.21-.07-.27-.25-.27-.58,0-1.15,0-1.72,0-.17,0-.23,0-.23-.21,0-.64,0-1.29,0-1.93,0-.17,0-.22-.21-.22H29c-.19,0-.24.06-.24.24,0,.64,0,1.27,0,1.91,0,.16-.07.2-.22.2a5.42,5.42,0,0,0-.57,0c-.22,0-.5-.06-.62,0s0,.41,0,.62,0,.18.18.18h1c.18,0,.22.06.22.23C28.68,65.19,28.68,66,28.68,66.8Zm29.92-.26v-3c0-.29,0-.33-.33-.32l-1.4.08-2.07.11c-.06,0-.15,0-.15.07a1.18,1.18,0,0,0,0,.46c0,.08.18.06.28.09l.17,0A1.08,1.08,0,0,1,56,65.28c0,.91,0,1.83,0,2.74,0,.56,0,1.11,0,1.67a.63.63,0,0,1-.53.69,4.5,4.5,0,0,1-.51.08s-.12,0-.14.05a.9.9,0,0,0,0,.46c0,.13.18.07.27.07h4.32c.42,0,.36.06.37-.38,0-.14,0-.2-.18-.21a2.14,2.14,0,0,1-.34-.09.82.82,0,0,1-.68-1Zm-8.73,1.21V65.91a1.88,1.88,0,0,0-.12-.7.5.5,0,0,0-.48-.36,1.49,1.49,0,0,0-1.24.57.29.29,0,0,0-.07.22v3.89c0,.24.1.34.31.41a3.61,3.61,0,0,0,1.35,0c.19,0,.26-.1.26-.3C49.87,69,49.87,68.39,49.87,67.75ZM37.35,66.21l1.25-.39a.16.16,0,0,0,.11-.17,5.8,5.8,0,0,0-.05-.93c-.08-.44-.31-.6-.77-.54-.17,0-.21.06-.16.23A1.69,1.69,0,0,1,37.35,66.21Z" transform="translate(-2.64 -1.91)" fill="#888784"/><path d="M91.43,46.38v1c0,1.24,0,2.48,0,3.72,0,.28,0,.28-.28.25l-1-.08c-.13,0-.17-.06-.17-.18a3.36,3.36,0,0,0-.24-1,1.24,1.24,0,0,0-1.18-.92c-.48-.07-.49-.07-.5.42,0,.9,0,1.81,0,2.71a.39.39,0,0,0,.32.42,5.09,5.09,0,0,0,1,.18c.12,0,.16.06.16.18,0,.38,0,.76,0,1.13,0,.18,0,.21-.21.21l-5.21,0-5.23-.05-5.65,0c-.2,0-.24,0-.23-.25,0-.41,0-.83,0-1.25,0-.14,0-.18.18-.2.31,0,.61-.08.92-.12a.39.39,0,0,0,.39-.4c0-.26,0-.52,0-.78,0-1.8,0-3.59.06-5.38,0-1.23,0-2.45,0-3.67a.75.75,0,0,0-.5-.8c-.27-.12-.55-.23-.83-.33a.2.2,0,0,1-.15-.22c0-.42,0-.83,0-1.25,0-.19.07-.24.25-.21l3.81.63c.78.13,1.54.29,2.32.43.13,0,.17.07.17.2,0,.42,0,.84,0,1.27,0,.15-.05.18-.2.17a9,9,0,0,0-1,0,.27.27,0,0,0-.31.29.57.57,0,0,0,0,.13c0,1.6,0,3.19-.06,4.78s0,3,0,4.47v.14c0,.47.15.58.63.62a8.15,8.15,0,0,0,1.71,0,.86.86,0,0,0,.62-.42,11.75,11.75,0,0,0,1.17-2.42c.06-.17.13-.22.31-.19a6.36,6.36,0,0,0,.87.06c.22,0,.26.08.25.28-.07.91-.11,1.81-.18,2.71,0,.21.05.26.24.23l.56-.06c.29,0,.36-.14.36-.43s0-.4,0-.6c0-1.83,0-3.65,0-5.48,0-.72,0-1.45,0-2.18a.69.69,0,0,0-.38-.69,6.18,6.18,0,0,0-.91-.41.23.23,0,0,1-.19-.25c0-.4,0-.81,0-1.22,0-.15,0-.18.19-.15q3.3.7,6.57,1.56c1,.25,2,.53,3,.79a.26.26,0,0,1,.25.31c0,1,0,2.09,0,3.14,0,.19-.07.22-.24.18-.33-.07-.66-.15-1-.2-.12,0-.18-.07-.21-.19a1.46,1.46,0,0,0-.18-.45Zm-13.86-3c0-.37,0-.64,0-.92,0-.68.24-.9.92-.9h.13c.55,0,.54,0,.52-.55,0-.11,0-.15-.15-.17-1.62-.3-3.25-.59-4.88-.84-.17,0-.4-.15-.51,0s0,.35,0,.53a.2.2,0,0,0,.15.23c.2.07.39.16.57.24A1.2,1.2,0,0,1,75,42.22c0,1,0,2.08,0,3.11,0,1.33,0,2.66,0,4,0,.81,0,1.62,0,2.43s-.21,1.08-1,1.22c-.16,0-.37,0-.46.1s0,.32,0,.48.06.24.24.24c1.14,0,2.28,0,3.43,0,1.84,0,3.67,0,5.51,0,.13,0,.18,0,.19-.17,0-.53.07-1.07.1-1.6l.12-2c0-.06,0-.12-.05-.16a.41.41,0,0,0-.54.2,12.4,12.4,0,0,1-1.12,2.21,1.29,1.29,0,0,1-.94.57,7.39,7.39,0,0,1-1.88,0c-.58-.05-.85-.27-.94-.74a2.33,2.33,0,0,1-.06-.53c0-1.34,0-2.68,0-4S77.53,44.76,77.57,43.4Zm10,7.18h0c0-.62,0-1.23,0-1.85,0-.13,0-.19.18-.17.38.06.76.09,1.12.16a1.48,1.48,0,0,1,1.1.72,3.77,3.77,0,0,1,.44,1.23c0,.12.07.17.19.16h.24c.09,0,.13,0,.13-.12,0-1.29,0-2.58,0-3.87,0-.35,0-.34-.34-.41-.15,0-.2,0-.23.15a2.93,2.93,0,0,1-.22.65A1.16,1.16,0,0,1,89,48c-.46,0-.9-.11-1.35-.15-.11,0-.12-.09-.12-.17,0-.23,0-.46,0-.69,0-1.11,0-2.23,0-3.34,0-.14,0-.23.19-.18.82.21,1.65.36,2.45.64a1.6,1.6,0,0,1,.73.49,5.91,5.91,0,0,1,1,1.68.49.49,0,0,0,.43.36c.19,0,.22,0,.22-.18,0-.7,0-1.41,0-2.11,0-.25-.08-.34-.31-.4-2.73-.74-5.47-1.43-8.23-2-.49-.1-.48-.11-.48.4a.21.21,0,0,0,.14.21l.59.27A1.2,1.2,0,0,1,85.08,44c0,.62,0,1.25,0,1.88,0,1.7,0,3.4,0,5.1,0,.43,0,.86,0,1.29a.75.75,0,0,1-.72.81l-.33,0c-.45,0-.45,0-.45.5,0,.16,0,.22.2.22l4.91,0c.37,0,.37,0,.38-.38a.2.2,0,0,0-.19-.24,3.87,3.87,0,0,1-.59-.13.79.79,0,0,1-.66-.89C87.53,51.71,87.54,51.14,87.54,50.58Zm3.82-4.49a4.38,4.38,0,0,0-1-1.4.85.85,0,0,0-.19-.1,14.8,14.8,0,0,0-2-.53c-.09,0-.14,0-.14.09,0,1,0,2.06,0,3.09,0,.06,0,.15.1.17a3.56,3.56,0,0,0,1,.08.59.59,0,0,0,.47-.31A2.43,2.43,0,0,0,90,46.07c0-.22.09-.24.27-.2C90.6,46,91,46,91.36,46.09Z" transform="translate(-2.64 -1.91)" fill="#888784"/><path d="M62.28,52.45a10,10,0,0,1,0,1.64c0,.14-.13.1-.2.1h-6c-.2,0-.25,0-.24-.25,0-.43,0-.87,0-1.31,0-.17.06-.22.21-.23l.79-.1a.42.42,0,0,0,.44-.41c0-.15,0-.3,0-.45,0-1.5,0-3,0-4.51,0-.18,0-.24-.22-.25-1,0-2,0-3-.07-.14,0-.19,0-.19.18,0,1.56,0,3.11,0,4.67,0,.52.12.66.61.81a2.41,2.41,0,0,0,.65.12c.14,0,.2,0,.2.2,0,.47,0,.95,0,1.42,0,.12,0,.17-.16.17H49.05c-.12,0-.16,0-.16-.17q0-.73,0-1.47c0-.11,0-.15.15-.16a8.81,8.81,0,0,0,.88-.11c.32-.08.4-.15.44-.47a4.55,4.55,0,0,0,0-.53q0-5.43,0-10.86c0-.63-.11-.78-.71-1a2.06,2.06,0,0,0-.64-.15c-.13,0-.16-.07-.16-.19,0-.46,0-.93,0-1.4,0-.17.06-.2.22-.2,1.29,0,2.58,0,3.87.08l2.26.08c.15,0,.18.06.17.19,0,.47,0,.94,0,1.4,0,.14-.06.18-.18.19a3.67,3.67,0,0,0-1,.17.32.32,0,0,0-.27.31,2.6,2.6,0,0,0,0,.39c0,1.34,0,2.67,0,4,0,.17,0,.22.22.22,1,0,2,0,3,.09.17,0,.23,0,.23-.22,0-1.27,0-2.55,0-3.83a.84.84,0,0,0-.55-.87,3.39,3.39,0,0,0-.78-.25c-.11,0-.14-.07-.14-.18,0-.48,0-1,0-1.44,0-.14.06-.16.18-.15l4.86.31,1.28.11c.17,0,.19.07.19.22,0,.33,0,.66,0,1,0,.11,0,.23,0,.35s0,.2-.18.19a2.81,2.81,0,0,0-.82.06c-.43.1-.49.17-.51.62v.06c0,2.09,0,4.18-.05,6.27,0,1.28,0,2.57,0,3.85a7.22,7.22,0,0,0,0,1,.56.56,0,0,0,.44.52A4.46,4.46,0,0,0,62.28,52.45ZM52.11,53.68h2.56c.08,0,.2,0,.2-.11a1.64,1.64,0,0,0,0-.7c-.06-.1-.31-.1-.47-.14l-.09,0a1,1,0,0,1-.85-1c-.06-.69,0-1.39,0-2.08,0-1.09,0-2.18,0-3.27,0-.19.07-.22.23-.22l1.71,0,2.22.05c.16,0,.22,0,.22.21,0,1.28,0,2.56,0,3.85,0,.52,0,1,0,1.58a.94.94,0,0,1-.86.94c-.2,0-.47,0-.57.12s0,.41,0,.61,0,.17.17.17c1.72,0,3.44,0,5.16,0,.13,0,.19,0,.19-.18a4.34,4.34,0,0,1,0-.51c0-.11,0-.15-.14-.17a3.9,3.9,0,0,1-.67-.18.89.89,0,0,1-.63-.71,4.83,4.83,0,0,1,0-.93c0-2.27,0-4.54.05-6.81,0-.84,0-1.67,0-2.51a10.56,10.56,0,0,1,0-1.49.78.78,0,0,1,.69-.76,2.28,2.28,0,0,1,.63-.09c.12,0,.16,0,.16-.16a4.68,4.68,0,0,1,0-.53c0-.12,0-.16-.15-.16-.38,0-.75-.07-1.13-.09-1.24-.09-2.47-.18-3.7-.25-.55,0-.54,0-.56.54a.32.32,0,0,0,.25.36c1,.34,1.24.62,1.23,1.68,0,1.36,0,2.72,0,4.07,0,.22-.07.25-.26.25L53.68,45c-.19,0-.25,0-.25-.24,0-1.21,0-2.42,0-3.63a10.28,10.28,0,0,1,0-1.24.83.83,0,0,1,.65-.78,4.12,4.12,0,0,1,.59-.12c.15,0,.22-.07.21-.24a2.67,2.67,0,0,1,0-.49c0-.12,0-.16-.14-.16l-.79,0L50.06,38c-.71,0-.7,0-.67.7a.16.16,0,0,0,.14.19,3.35,3.35,0,0,1,.69.25,1,1,0,0,1,.63.8,2.5,2.5,0,0,1,0,.55c0,.83,0,1.66,0,2.49,0,1.16,0,2.33,0,3.49s0,2.13,0,3.2c0,.68,0,1.37,0,2a1,1,0,0,1-1,1.07c-.52.08-.52.08-.53.62v.11c0,.16,0,.2.2.2Z" transform="translate(-2.64 -1.91)" fill="#888784"/><path d="M13.51,45a12.45,12.45,0,0,1,.84-1.9,6.94,6.94,0,0,1,3.77-3.28,4.76,4.76,0,0,1,6.15,2.57,9,9,0,0,1,.87,3.44,11.82,11.82,0,0,1-.55,4.54,6.56,6.56,0,0,1-2.32,3.32,4.86,4.86,0,0,1-2.63.9,5.45,5.45,0,0,1-3.49-.9,6.43,6.43,0,0,1-2.55-3.38,9,9,0,0,1-.25-4.45.14.14,0,0,1,0-.07c.05-.28.05-.27-.22-.23s-.55.07-.81.13-.21,0-.25-.16a5.9,5.9,0,0,0-.83-1.78.69.69,0,0,0-.76-.35c-.63.1-.64.08-.63.72q0,3.54.05,7.07c0,.34,0,.67,0,1a.36.36,0,0,0,.27.36,7.08,7.08,0,0,0,1.12.19c.12,0,.18,0,.18.18,0,.4,0,.81,0,1.21,0,.14,0,.19-.18.19-.71,0-1.43,0-2.14,0l-4,0c-.29,0-.29,0-.29-.28v-1c0-.11,0-.17.15-.18.33,0,.65-.08,1-.13s.44-.12.43-.48c0-2,0-4,0-6,0-.58,0-1.17,0-1.76,0-.19-.06-.19-.23-.16a1.72,1.72,0,0,0-1.23,1A9,9,0,0,0,4.23,47c0,.09-.06.14-.16.16-.39.07-.77.15-1.15.24-.19,0-.13-.09-.13-.17,0-.8,0-1.6,0-2.41v-1a.18.18,0,0,1,.15-.22C6,42.78,9.17,42,12.31,41.31l1-.23c.14,0,.16,0,.16.14,0,1,0,2,0,2.93Zm11.17,1.69a9.06,9.06,0,0,0-.08-1.47,7.08,7.08,0,0,0-1.34-3.53,4,4,0,0,0-4.12-1.63A6,6,0,0,0,15,43a8.41,8.41,0,0,0-1.13,6.53,5.71,5.71,0,0,0,3.2,4.15,4.78,4.78,0,0,0,4.31,0,5.12,5.12,0,0,0,2.32-2.41A10,10,0,0,0,24.68,46.73ZM9.43,47H9.37c0-1.2,0-2.4,0-3.6,0-.15,0-.22.2-.25a6.07,6.07,0,0,0,.85-.16,1.05,1.05,0,0,1,1.22.54A6.05,6.05,0,0,1,12.42,45c.07.23.2.2.37.19s.24-.11.24-.3c0-.59,0-1.17,0-1.76,0-.42,0-.84,0-1.27,0-.15,0-.19-.21-.16-1.72.38-3.42.78-5.13,1.21-1.4.35-2.79.72-4.19,1.08-.09,0-.2,0-.2.15v2.59c0,.06,0,.11.09.12a.5.5,0,0,0,.53-.33,8.66,8.66,0,0,1,.92-1.79,1.38,1.38,0,0,1,.68-.58c.38-.13.76-.24,1.15-.35.21,0,.24,0,.24.21,0,1.14,0,2.28,0,3.42,0,1.68,0,3.36,0,5a.76.76,0,0,1-.68.79c-.21,0-.44.06-.66.09s-.24.06-.22.44c0,.21.15.15.25.15l5-.05c.44,0,.43,0,.44-.43,0-.16-.06-.22-.21-.24l-.67-.13a.78.78,0,0,1-.69-.87c0-.56,0-1.13,0-1.69C9.41,49.33,9.43,48.15,9.43,47Z" transform="translate(-2.64 -1.91)" fill="#888784"/><path d="M62.42,39.31c0-.34,0-.67,0-1s.06-.21.22-.2l3.87.4c1.93.21,3.85.45,5.77.74.13,0,.18,0,.18.19,0,1.4,0,2.8,0,4.2,0,.13,0,.18-.17.16-.33,0-.66-.09-1-.11a.28.28,0,0,1-.31-.28.25.25,0,0,0-.06-.13v.29c0,1.6,0,3.21-.06,4.82,0,.44,0,.88,0,1.31,0,.16,0,.21-.2.19-.35,0-.71-.06-1.06-.06-.18,0-.21-.08-.22-.23a6.67,6.67,0,0,0-.4-1.81.91.91,0,0,0-.75-.62l-.64-.07c-.13,0-.16,0-.16.17,0,.44,0,.89,0,1.33,0,.86,0,1.71,0,2.56a3.13,3.13,0,0,0,.07.75.44.44,0,0,0,.38.38A6.31,6.31,0,0,0,70,52.22a.63.63,0,0,0,.39-.3,12.69,12.69,0,0,0,1.25-2.82c0-.14.1-.2.27-.19.34,0,.69,0,1,.05.11,0,.14,0,.14.16C73,50.4,73,51.68,72.89,53c0,.37-.06.74-.07,1.11,0,.16-.07.19-.21.19-1.34,0-2.67,0-4,0l-5.61,0-.57,0c-.08,0-.14,0-.12-.11a11.86,11.86,0,0,0,0-1.33c0-.1,0-.21.06-.3a3.82,3.82,0,0,0,.68-.07c.74-.1.75-.16.77-.92,0-2.09,0-4.17,0-6.25,0-1.3,0-2.6,0-3.89,0-.94-.06-1.06-1-1.32C62.57,39.87,62.34,39.74,62.42,39.31Zm4.43,9.21h.05V46.78c0-.13,0-.19.17-.18.34,0,.68,0,1,.06a1.49,1.49,0,0,1,1.34,1.07,8.27,8.27,0,0,1,.35,1.47c0,.13.06.17.19.17.34,0,.34,0,.37-.3a.66.66,0,0,0,0-.14c0-1.75,0-3.51.06-5.27,0-.2-.09-.24-.26-.26s-.3,0-.33.22a5,5,0,0,1-.39,1.32,1.26,1.26,0,0,1-1.22.78c-.36,0-.72,0-1.08,0-.17,0-.21-.07-.21-.23,0-.55,0-1.1,0-1.64,0-1.21,0-2.42,0-3.63,0-.13,0-.23.19-.2.6.08,1.21.16,1.83.22a1.9,1.9,0,0,1,1.51.95,6.81,6.81,0,0,1,.82,1.75c.07.25.17.35.42.36s.22,0,.22-.19c0-1,0-2.09,0-3.14,0-.18,0-.28-.24-.27a3.56,3.56,0,0,1-.44-.06L68,39.17q-1.5-.18-3-.33c-.65-.08-1.31-.13-2-.2-.06,0-.14,0-.14.08a2,2,0,0,0,0,.7c0,.13.28.13.43.19l.24.11A1.2,1.2,0,0,1,64.4,41c0,1.73,0,3.46,0,5.18,0,1.11,0,2.21,0,3.32,0,.78,0,1.56,0,2.33a.91.91,0,0,1-.86,1l-.5.08c-.07,0-.13,0-.13.12s0,.32,0,.48.06.25.25.25c1.37,0,2.75,0,4.12,0l5,0c.11,0,.22,0,.22-.16,0-.57.06-1.15.09-1.73,0-.74.09-1.49.13-2.24,0-.07,0-.15,0-.21a.44.44,0,0,0-.53.16A16.84,16.84,0,0,1,71,52a1.33,1.33,0,0,1-1,.77,6.71,6.71,0,0,1-2.19,0,.88.88,0,0,1-.84-.86,4.55,4.55,0,0,1-.07-.9C66.85,50.18,66.85,49.35,66.85,48.52Zm.6-5.06h0c0,.53,0,1,0,1.58,0,.13,0,.19.17.18l.43,0a.89.89,0,0,0,1-.63,5.58,5.58,0,0,0,.38-1.55c0-.18.08-.21.23-.19l1,.1c.17,0,.21,0,.15-.17A7.39,7.39,0,0,0,70,41.32a1.27,1.27,0,0,0-.94-.61c-.46-.05-.92-.1-1.38-.18-.21,0-.26,0-.25.22Z" transform="translate(-2.64 -1.91)" fill="#888784"/><path d="M48.39,73.46H5.17c-.1,0-.25.05-.29,0a1.18,1.18,0,0,1,0-.42s0-.06.08-.06H91.7c.08,0,.21,0,.23.07a1,1,0,0,1,0,.41c0,.07-.13,0-.2,0H48.39Z" transform="translate(-2.64 -1.91)" fill="#045b2f"/><path d="M48.24,39v4.54c0,.29,0,.29-.28.29h-1c-.14,0-.19-.05-.23-.18a20.27,20.27,0,0,0-.88-2.84,3.65,3.65,0,0,0-.67-1.1,1.2,1.2,0,0,0-2.17.38,2.67,2.67,0,0,0-.12,1.58,1.8,1.8,0,0,0,.86,1.19,21.71,21.71,0,0,0,2,1.06,5.53,5.53,0,0,1,2,1.47,5.41,5.41,0,0,1,1,2.75,7.09,7.09,0,0,1-.49,3.64A4.37,4.37,0,0,1,45,54.51a4.89,4.89,0,0,1-3.68-.74c-.2-.13-.3-.1-.38.1a.5.5,0,0,1-.58.32,5.08,5.08,0,0,0-.78,0c-.14,0-.19,0-.19-.18,0-1.55-.06-3.1-.1-4.64l0-1.54c0-.15,0-.21.19-.21.36,0,.71,0,1.07,0,.16,0,.22,0,.26.2a13.78,13.78,0,0,0,1.11,3,5.49,5.49,0,0,0,1,1.32,1.43,1.43,0,0,0,2.33-.43,3,3,0,0,0,.16-2,2,2,0,0,0-1-1.17c-.63-.39-1.32-.67-2-1a4.88,4.88,0,0,1-1.74-1.31,5.37,5.37,0,0,1-1.07-2.65,6.89,6.89,0,0,1,.25-3.22,4.61,4.61,0,0,1,2-2.65,4,4,0,0,1,3.69-.2,6.65,6.65,0,0,1,.75.39c.11.06.19.09.24-.05a.53.53,0,0,1,.62-.32,6.42,6.42,0,0,0,.76,0c.16,0,.22,0,.22.2,0,.43,0,.86,0,1.29Zm-.49.48h0c0-.44,0-.87,0-1.31,0-.14-.05-.16-.18-.18a.58.58,0,0,0-.69.36l-.1.17c-.06.11-.12.13-.23,0s-.42-.28-.63-.41a3.62,3.62,0,0,0-2.5-.49A3.76,3.76,0,0,0,40.49,40a6.19,6.19,0,0,0-.3,4,4.2,4.2,0,0,0,2.42,3c.56.25,1.12.53,1.66.81A2.83,2.83,0,0,1,45.61,49a3.2,3.2,0,0,1,0,2.95,1.88,1.88,0,0,1-2.75.71,3.71,3.71,0,0,1-1-1.07,11.4,11.4,0,0,1-1.35-3.15c-.12-.4-.12-.39-.53-.39-.16,0-.2.06-.19.21q0,.6,0,1.2c0,1.25,0,2.5.07,3.75,0,.47,0,.47.48.45a.22.22,0,0,0,.22-.11c.09-.17.21-.33.3-.49s.13-.15.26-.05a5.12,5.12,0,0,0,1.22.71,4.21,4.21,0,0,0,3.08.15,4.06,4.06,0,0,0,2.5-2.58,6.64,6.64,0,0,0,.35-3,4.37,4.37,0,0,0-2.45-3.83c-.63-.32-1.27-.62-1.89-1a2.68,2.68,0,0,1-1.41-1.36,2.93,2.93,0,0,1,.31-2.82,1.6,1.6,0,0,1,2.23-.4,3.15,3.15,0,0,1,1,1.3,15.58,15.58,0,0,1,1,2.74c.09.32.09.31.42.32s.28,0,.27-.27C47.74,41.85,47.75,40.65,47.75,39.45Z" transform="translate(-2.64 -1.91)" fill="#888784"/><path d="M62.42,39.31c-.08.43.15.56.54.68.9.26,1,.38,1,1.32,0,1.29,0,2.59,0,3.89,0,2.08,0,4.16,0,6.25,0,.76,0,.82-.77.92a3.82,3.82,0,0,1-.68.07h-.1a4.45,4.45,0,0,1-1-.18.56.56,0,0,1-.44-.52,7.22,7.22,0,0,1,0-1c.05-1.28,0-2.57,0-3.85,0-2.09,0-4.18.05-6.27v-.06c0-.45.08-.52.51-.62a2.81,2.81,0,0,1,.82-.06c.14,0,.19,0,.18-.19s0-.24,0-.35Z" transform="translate(-2.64 -1.91)" fill="#fdfdfd"/><path d="M48.19,34.34c2.48,0,5,.06,7.43.21q3.29.21,6.55.58c3.07.34,6.13.79,9.17,1.33s6.12,1.2,9.14,2c.19,0,.22.12.16.28s0,.31-.3.24c-2-.55-4-1-6-1.41-1.85-.37-3.7-.71-5.57-1s-3.69-.55-5.54-.78c-1.67-.2-3.34-.37-5-.51s-3.61-.26-5.42-.34-3.54-.12-5.31-.11c-2.35,0-4.7.11-7,.29-1.79.14-3.58.3-5.36.51-2.68.32-5.35.72-8,1.18-3.41.6-6.79,1.31-10.14,2.16-.16,0-.22,0-.24-.13a.37.37,0,0,0,0-.15c-.05-.14,0-.19.14-.23,1.15-.3,2.31-.57,3.47-.83,2.38-.53,4.78-1,7.18-1.42q2.87-.5,5.74-.87c2.07-.27,4.14-.49,6.23-.66,1.92-.16,3.84-.28,5.77-.33C46.18,34.32,47.18,34.34,48.19,34.34Z" transform="translate(-2.64 -1.91)" fill="#095e33"/><path d="M29.93,57.6H54.77c.08,0,.21-.07.23,0a1.29,1.29,0,0,1,0,.44c0,.06-.13,0-.2,0H5.08c-.16,0-.22,0-.21-.2s0-.33.34-.33Z" transform="translate(-2.64 -1.91)" fill="#095e33"/><path d="M28.54,54.23h-3c-.21,0-.29,0-.28-.26,0-.4,0-.8,0-1.2,0-.16,0-.24.22-.26a7.55,7.55,0,0,0,.83-.13c.33-.07.43-.17.44-.52s0-.89,0-1.33c0-1.61,0-3.22-.05-4.83,0-1.41,0-2.82,0-4.23,0-.07,0-.14,0-.22a.41.41,0,0,0-.38-.44,4.94,4.94,0,0,0-.94-.12c-.12,0-.17,0-.17-.17,0-.43,0-.87,0-1.31a.18.18,0,0,1,.18-.22l2.91-.36c1-.12,2.07-.24,3.11-.34a4.45,4.45,0,0,1,2.94.57,3.18,3.18,0,0,1,1.34,2.19A6.78,6.78,0,0,1,35.22,45a4.42,4.42,0,0,1-2.95,2.56,6.62,6.62,0,0,1-1.82.26c-.15,0-.21,0-.21.2,0,1.22,0,2.44.05,3.65,0,.42.09.52.48.64a4.13,4.13,0,0,0,.85.17c.11,0,.15.05.15.17,0,.47,0,.94,0,1.42,0,.16-.09.15-.21.15h-3Zm0-.49H30.7c.59,0,.59,0,.59-.59,0-.16,0-.25-.21-.27a2.11,2.11,0,0,1-.48-.12,1,1,0,0,1-.8-1c0-1.39,0-2.79-.05-4.18,0-.14,0-.18.18-.18a11.44,11.44,0,0,0,1.55-.13,4.06,4.06,0,0,0,3.27-2.38A6.05,6.05,0,0,0,35,40.74,2.46,2.46,0,0,0,33.54,39a4.63,4.63,0,0,0-2.21-.24c-1,.1-2.08.22-3.12.34l-2.47.31s-.11,0-.11.07a2.36,2.36,0,0,0,0,.65c0,.09.09.08.15.08a3.45,3.45,0,0,1,.8.18.7.7,0,0,1,.49.56,3.51,3.51,0,0,1,.07.72c0,1.65,0,3.3.05,4.94,0,.38,0,.76,0,1.14,0,1.34,0,2.68,0,4a.92.92,0,0,1-.44.94,1.8,1.8,0,0,1-.5.15c-.53.09-.52.09-.53.63,0,.2.07.23.25.23Z" transform="translate(-2.64 -1.91)" fill="#888784"/><path d="M14.37,65a8,8,0,0,1,.93.44,2.89,2.89,0,0,1,1.49,2.14,3,3,0,0,1-2.16,3.47,9.34,9.34,0,0,1-3.24.45H5.27c-.4,0-.4,0-.4-.42s0-.58,0-.87,0-.24.22-.25a9.3,9.3,0,0,0,1.06-.13c.3,0,.36-.13.36-.43q0-3.87,0-7.74a.37.37,0,0,0-.3-.42A5.55,5.55,0,0,0,5.16,61c-.21,0-.31-.08-.3-.32a8.34,8.34,0,0,0,0-1c0-.19,0-.24.23-.24h5.61a14.69,14.69,0,0,1,2.81.17,3.66,3.66,0,0,1,2,1,2.64,2.64,0,0,1-.27,3.83A5.57,5.57,0,0,1,14.37,65ZM8.78,60h-3c-.43,0-.43,0-.42.44,0,.13,0,.17.17.19a6.43,6.43,0,0,1,.76.17c.57.17.71.37.71,1v7.74a.76.76,0,0,1-.66.84,5.62,5.62,0,0,1-.57.09c-.41,0-.4,0-.41.44,0,.2.07.22.23.21,2.05,0,4.09,0,6.14,0a9.28,9.28,0,0,0,2.41-.33,3.13,3.13,0,0,0,1.72-1A2.61,2.61,0,0,0,15.24,66,5.63,5.63,0,0,0,13,65.17c-.07,0-.18,0-.18-.09S12.9,65,13,65a6.45,6.45,0,0,0,1.3-.45,2.38,2.38,0,0,0,1.37-1.41,2.13,2.13,0,0,0-1.37-2.72A6.82,6.82,0,0,0,11.9,60C10.86,60,9.82,60,8.78,60Z" transform="translate(-2.64 -1.91)" fill="#888784"/><path d="M22.18,71.76a5.31,5.31,0,0,1-3.41-1,4.21,4.21,0,0,1-1.66-3.17A4.67,4.67,0,0,1,17.6,65a4.27,4.27,0,0,1,2.54-2.08,6.32,6.32,0,0,1,4.14,0,4.25,4.25,0,0,1,2.9,4.23,4.33,4.33,0,0,1-1.95,3.74,5.16,5.16,0,0,1-2.28.8A4.65,4.65,0,0,1,22.18,71.76Zm-.1-.48a6.83,6.83,0,0,0,1.11-.09,4,4,0,0,0,3.5-4,3.77,3.77,0,0,0-2.52-3.8,5.79,5.79,0,0,0-4,0,3.69,3.69,0,0,0-2.09,1.71,4.18,4.18,0,0,0-.48,2.43,3.73,3.73,0,0,0,1.54,2.86A4.74,4.74,0,0,0,22.08,71.28Z" transform="translate(-2.64 -1.91)" fill="#888784"/><path d="M68.18,57.6h8.61c.09,0,.23-.06.26,0a1.09,1.09,0,0,1,0,.44c0,.08-.13,0-.2,0H59.5c-.08,0-.21.06-.24-.05a.93.93,0,0,1,0-.44s.06,0,.09,0h8.82Z" transform="translate(-2.64 -1.91)" fill="#095e33"/><path d="M57.1,62.28a1.9,1.9,0,0,1-.3-3.79,2,2,0,0,1,2.05.92,1.89,1.89,0,0,1-1.5,2.87Zm0-.49h.24A1.46,1.46,0,0,0,58.51,61a1.25,1.25,0,0,0-.11-1.34,1.62,1.62,0,0,0-2-.51,1.37,1.37,0,0,0-.83,1.13A1.42,1.42,0,0,0,57.08,61.79Z" transform="translate(-2.64 -1.91)" fill="#888784"/><path d="M87.72,57.6c1.33,0,2.67,0,4,0,.26,0,.22.13.23.29s0,.26-.23.26h-8c-.08,0-.2.06-.23-.06a.82.82,0,0,1,0-.44c0-.06.12,0,.18,0Z" transform="translate(-2.64 -1.91)" fill="#095e33"/><path d="M4.64,40.87a.24.24,0,0,1,.09-.2c.51-.54,1-1.07,1.52-1.61l3.18-3.41,2.33-2.5,3.44-3.7c.89-1,1.8-1.92,2.69-2.89l1.78-1.91c.79-.84,1.55-1.69,2.33-2.53l1.69-1.79c.13-.14.22-.13.35,0L26.09,22l1.59,1.32c.24.2.49.39.73.6a.21.21,0,0,0,.35,0c.57-.65,1.14-1.3,1.72-1.94l1.41-1.55c.8-.88,1.58-1.76,2.37-2.64,1-1.15,2.06-2.29,3.08-3.44.64-.71,1.29-1.42,1.92-2.14L41.2,10c.91-1,1.79-2,2.69-3l2.2-2.46L47.4,3.08c.2-.23.23-.23.43,0,.59.71,1.21,1.37,1.81,2.07s1.35,1.54,2,2.32c.46.53.92,1.06,1.39,1.58.63.68,1.22,1.4,1.84,2.1s1.17,1.33,1.76,2c.27.3.28.3.58,0l2.16-1.92c.81-.72,1.63-1.43,2.45-2.14.08-.08.12-.09.2,0,.88,1.09,1.77,2.16,2.64,3.25s1.88,2.35,2.83,3.52,1.89,2.34,2.84,3.51c.35.43.7.86,1,1.3a.23.23,0,0,0,.34.05l2.47-1.61c.82-.53,1.64-1,2.46-1.59.16-.1.23-.06.31.08l1.18,1.85c.5.79,1,1.57,1.52,2.36.4.62.78,1.26,1.18,1.88s.87,1.35,1.31,2l.9,1.46.79,1.23,1.43,2.26c.4.62.8,1.23,1.19,1.85.63,1,1.24,2,1.87,2.95s1.16,1.8,1.73,2.71S91.22,40,91.8,41c0,0,0,0,0,0L91,40.8l-2.81-.7-2.91-.77-.26,0c-.5,0-.74-.38-1-.71-.49-.62-1-1.25-1.45-1.87l-1.84-2.36-2-2.59c-.14-.18-.29-.35-.42-.54s-.14-.1-.24,0c-.79.57-1.6,1.11-2.39,1.69-.28.21-.59.38-.87.61-.11.08-.19,0-.27,0l-1.37-1.29-3.18-3-1.38-1.31c-.73-.68-1.46-1.36-2.18-2.05l-1.47-1.38-1-.91c-.09-.09-.15-.1-.26,0l-3.43,2.56c-.39.29-.37.27-.8,0s-1.15-.71-1.74-1.07l-2.08-1.26c-1-.62-2.07-1.26-3.1-1.88l-2.67-1.63c-.42-.26-.85-.51-1.26-.78a.23.23,0,0,0-.28,0l-3.12,2-4,2.54c-.77.49-1.54,1-2.31,1.5L36.53,27c-.61.4-1.21.83-1.83,1.2l-1.47.94-1.85,1.19-1.48.94a3.48,3.48,0,0,0-.51.34c-.16.14-.26.09-.37,0l-.73-.72-1.87-1.83L24,26.71l-.15-.14c-.11-.12-.21-.1-.31,0-.46.54-.91,1.08-1.38,1.62L20,30.68l-2.73,3.17c-.6.7-1.21,1.39-1.82,2.09s-1.21,1.43-1.83,2.14a5.15,5.15,0,0,0-.47.56c-.19.27-.51.23-.78.3-.65.18-1.3.33-2,.49l-4,1Z" transform="translate(-2.64 -1.91)" fill="#293b6e"/><path d="M76.77,66.07c0,1.07-.06,2.15-.08,3.22a1.54,1.54,0,0,0,0,.37.71.71,0,0,0,.7.63h.44c.14,0,.23.06.2.22a.29.29,0,0,0,0,.13c0,.17,0,.25-.2.31a4.53,4.53,0,0,1-2.47.23,1.44,1.44,0,0,1-1.12-.89c0-.13-.1-.15-.21,0a3.41,3.41,0,0,1-2.77,1,2,2,0,0,1-.92-3.86,13.81,13.81,0,0,1,2.34-.82A11.43,11.43,0,0,0,74,66.17a.23.23,0,0,0,.18-.26,6.66,6.66,0,0,0-.07-1.26c-.16-.89-.75-1-1.47-.93l0,0c-.53.15-.56.2-.39.71a1.67,1.67,0,0,1,.11.66.94.94,0,0,1-.69.86,2.15,2.15,0,0,1-1.18,0A1.07,1.07,0,0,1,70,64.17a3.39,3.39,0,0,1,1.66-.88,6.57,6.57,0,0,1,3.52,0,2.13,2.13,0,0,1,1.63,2.17c0,.2,0,.4,0,.6Zm-2.6,1.26V67c0-.13,0-.16-.15-.11a8.8,8.8,0,0,0-1,.42A1.7,1.7,0,0,0,72,69.11a.92.92,0,0,0,.81.94,1.4,1.4,0,0,0,1.32-.53.26.26,0,0,0,0-.19C74.14,68.66,74.14,68,74.17,67.33Z" transform="translate(-2.64 -1.91)" fill="#1d1d1b"/><path d="M87.84,71.29a5.19,5.19,0,0,1-2.42-.6c-.13-.06-.21-.06-.26.08a.19.19,0,0,1,0,.08c-.06.09,0,.25-.17.27a2.66,2.66,0,0,1-.49,0c-.07,0-.06-.07-.07-.12s0-.33,0-.49c0-.71,0-1.42-.08-2.13,0-.12,0-.17.15-.16h.15c.2,0,.28.06.36.23a3.73,3.73,0,0,0,1.94,2,2.29,2.29,0,0,0,1.59.07.94.94,0,0,0,.69-.91.93.93,0,0,0-.48-.93,5.72,5.72,0,0,0-1.4-.51,6.26,6.26,0,0,1-1.66-.66,2.25,2.25,0,0,1-1.08-2.32,2.21,2.21,0,0,1,1.49-1.78,5.17,5.17,0,0,1,3.36-.16,4.21,4.21,0,0,1,.63.2c.17.07.23,0,.27-.13s0-.23.12-.25a2,2,0,0,1,.49,0c.08,0,.06.09.06.15,0,.35,0,.71.07,1.06s0,.85,0,1.27c0,.13,0,.17-.17.18a.42.42,0,0,1-.49-.3,2.8,2.8,0,0,0-1.73-1.63,2,2,0,0,0-1.22,0,.82.82,0,0,0-.61.74.89.89,0,0,0,.46.94,6.35,6.35,0,0,0,1.46.52,6.16,6.16,0,0,1,1.7.7,2.32,2.32,0,0,1,0,3.8A4.53,4.53,0,0,1,87.84,71.29Z" transform="translate(-2.64 -1.91)" fill="#1d1d1b"/><path d="M82.29,64.41v5c0,.69.18.85.85,1,.3.09.4.24.32.54,0,.13-.14.09-.22.09H78.75c-.15,0-.21,0-.21-.19,0-.36,0-.36.34-.41l.18,0a.67.67,0,0,0,.65-.78V61a1,1,0,0,0-.79-1.08c-.13,0-.27-.07-.4-.12s-.25,0-.28-.08a1.69,1.69,0,0,1,0-.45c0-.09.1-.06.16-.06L81,59,82,59c.27,0,.31,0,.31.3Z" transform="translate(-2.64 -1.91)" fill="#1d1d1b"/><path d="M65,71.28a4.91,4.91,0,0,1-2.24-.48,3.52,3.52,0,0,1-2-2.68,4,4,0,0,1,1.16-3.83,4.21,4.21,0,0,1,2.34-1.14A5,5,0,0,1,67,63.4a1.76,1.76,0,0,1,1.23,1.35c.17,1.15-.42,1.62-1.44,1.56a1.12,1.12,0,0,1-.31,0,1.05,1.05,0,0,1-.88-1.38c0-.23.13-.44.19-.66a.36.36,0,0,0-.32-.51,1.3,1.3,0,0,0-1.32.5,3.29,3.29,0,0,0-.6,1.59,6.35,6.35,0,0,0,0,2.34,2.72,2.72,0,0,0,1.15,1.73,2.25,2.25,0,0,0,2.45-.17,3.47,3.47,0,0,0,.74-.88c.07-.13.13-.15.23,0s0,0,0,0c.45.31.45.31.12.77A3.9,3.9,0,0,1,65,71.28Z" transform="translate(-2.64 -1.91)" fill="#1d1d1b"/><path d="M85.31,67.93a9.84,9.84,0,0,0,2.39.89,3.38,3.38,0,0,1,.74.3.48.48,0,0,1,.25.52.49.49,0,0,1-.39.46,1.78,1.78,0,0,1-1.14,0,3.31,3.31,0,0,1-1.84-2,.4.4,0,0,1,0-.11Z" transform="translate(-2.64 -1.91)" fill="#fdfdfd"/><path d="M90.13,66c-.79-.36-1.62-.46-2.37-.79a.71.71,0,0,1-.34-.25.43.43,0,0,1,.32-.67,1.54,1.54,0,0,1,1.4.29A2.67,2.67,0,0,1,90.13,66Z" transform="translate(-2.64 -1.91)" fill="#fdfdfd"/><path d="M72.31,66.2a1.65,1.65,0,0,0,.38-1.82c0-.13,0-.18.13-.2.49-.07.76.11.82.6a4.74,4.74,0,0,1,0,.84c0,.11,0,.17-.13.2l-.7.22Z" transform="translate(-2.64 -1.91)" fill="#fdfdfd"/><path d="M85.32,67.93h0a0,0,0,0,1,0,0Z" transform="translate(-2.64 -1.91)" fill="#fdfdfd"/><path d="M47.47,64.47c.31-.25.57-.48.85-.7a3.28,3.28,0,0,1,2.4-.67,2.46,2.46,0,0,1,1.29.44,2.35,2.35,0,0,1,.9,1.58,4.71,4.71,0,0,1,0,.75v3.54c0,.68.16.87.83,1,.11,0,.27,0,.3.09a.94.94,0,0,1,0,.44c0,.14-.13.09-.21.09H50.67c-.36,0-.72,0-1.09,0-.17,0-.21-.06-.21-.22,0-.35,0-.35.33-.4.49-.07.65-.21.66-.7,0-1.32,0-2.65,0-4a1.83,1.83,0,0,0-.07-.46c-.2-.83-.71-1-1.45-.9a2,2,0,0,0-1.3.86.38.38,0,0,0-.07.25v4c0,.6.17.8.76.94.09,0,.23,0,.25.1a1.77,1.77,0,0,1,0,.46c0,.07-.09.06-.15.06H43.88c-.12,0-.16,0-.15-.15v0c0-.38,0-.38.37-.43l.22,0a.61.61,0,0,0,.57-.69c0-.37,0-.73,0-1.09V65.18a1.09,1.09,0,0,0-1-1.17c-.32-.06-.4-.19-.32-.52,0-.1.08-.09.14-.1l2-.1,1.44-.08c.2,0,.29.07.28.27S47.47,64.11,47.47,64.47Z" transform="translate(-2.64 -1.91)" fill="#1d1d1b"/><path d="M38.35,63.07a7.27,7.27,0,0,1,1.68.18,2.15,2.15,0,0,1,1.75,2.17c0,1.32-.06,2.63-.05,4a1.23,1.23,0,0,0,0,.33.7.7,0,0,0,.69.59l.53,0c.09,0,.12,0,.13.13,0,.41,0,.41-.36.55a4.22,4.22,0,0,1-2.51.14,1.32,1.32,0,0,1-.92-.81c-.07-.17-.13-.16-.25,0a3.21,3.21,0,0,1-1.67.91A3.11,3.11,0,0,1,35.24,71a2,2,0,0,1,.08-3.49,11.87,11.87,0,0,1,2.25-.82c.48-.14,1-.28,1.44-.46a.25.25,0,0,0,.19-.29c0-.39,0-.77,0-1.16-.12-1-.81-1.2-1.62-1-.46.12-.47.19-.32.64a1.62,1.62,0,0,1,.13.72,1,1,0,0,1-.8.87,2.24,2.24,0,0,1-1,0,1,1,0,0,1-.82-.76,1.07,1.07,0,0,1,.37-1.16,3.55,3.55,0,0,1,1.46-.77A6.24,6.24,0,0,1,38.35,63.07Zm.83,5.09h0V67c0-.15,0-.18-.18-.12l-.9.37A1.7,1.7,0,0,0,37,68.79a1.15,1.15,0,0,0,.4,1.1,1.33,1.33,0,0,0,1.75-.4.34.34,0,0,0,0-.22Z" transform="translate(-2.64 -1.91)" fill="#1d1d1b"/><path d="M28.68,66.8c0-.81,0-1.61,0-2.42,0-.17,0-.24-.22-.23h-1c-.13,0-.19,0-.18-.18s-.09-.5,0-.62.4,0,.62,0a5.42,5.42,0,0,1,.57,0c.15,0,.21,0,.22-.2,0-.64,0-1.27,0-1.91,0-.18.05-.24.24-.24h2.11c.17,0,.21.05.21.22,0,.64,0,1.29,0,1.93,0,.19.06.21.23.21.57,0,1.14,0,1.72,0,.18,0,.26.06.25.27,0,.57,0,.57-.56.57H31.47c-.14,0-.2,0-.2.19v4.25a2.8,2.8,0,0,0,.13.86.87.87,0,0,0,.86.67,6.07,6.07,0,0,0,1.13-.06c.14,0,.2,0,.18.16s0,.24,0,.36a.14.14,0,0,1-.1.13,5.09,5.09,0,0,1-3.21.44,1.9,1.9,0,0,1-1.56-1.9c0-.41,0-.82,0-1.22Z" transform="translate(-2.64 -1.91)" fill="#1d1d1b"/><path d="M58.6,66.54v2.87a.82.82,0,0,0,.68,1,2.14,2.14,0,0,0,.34.09c.15,0,.19.07.18.21,0,.44.05.38-.37.38H55.11c-.09,0-.24.06-.27-.07a.9.9,0,0,1,0-.46c0-.06.1,0,.14-.05a4.5,4.5,0,0,0,.51-.08.63.63,0,0,0,.53-.69c0-.56,0-1.11,0-1.67,0-.91,0-1.83,0-2.74a1.08,1.08,0,0,0-.91-1.22L55,64c-.1,0-.26,0-.28-.09a1.18,1.18,0,0,1,0-.46c0-.1.09-.07.15-.07l2.07-.11,1.4-.08c.3,0,.33,0,.33.32Z" transform="translate(-2.64 -1.91)" fill="#1d1d1b"/><path d="M49.87,67.75c0,.64,0,1.28,0,1.91,0,.2-.07.29-.26.3a3.61,3.61,0,0,1-1.35,0c-.21-.07-.32-.17-.31-.41V65.64a.29.29,0,0,1,.07-.22,1.49,1.49,0,0,1,1.24-.57.5.5,0,0,1,.48.36,1.88,1.88,0,0,1,.12.7Z" transform="translate(-2.64 -1.91)" fill="#fdfdfd"/><path d="M37.35,66.21a1.69,1.69,0,0,0,.38-1.8c0-.17,0-.21.16-.23.46-.06.69.1.77.54a5.8,5.8,0,0,1,.05.93.16.16,0,0,1-.11.17Z" transform="translate(-2.64 -1.91)" fill="#fdfdfd"/><path d="M77.57,43.4c0,1.36,0,2.81,0,4.27s0,2.68,0,4a2.33,2.33,0,0,0,.06.53c.09.47.36.69.94.74a7.39,7.39,0,0,0,1.88,0,1.29,1.29,0,0,0,.94-.57,12.4,12.4,0,0,0,1.12-2.21A.41.41,0,0,1,83,50c.07,0,.05.1.05.16l-.12,2c0,.53-.07,1.07-.1,1.6,0,.14-.06.17-.19.17-1.84-.06-3.67,0-5.51,0-1.15,0-2.29,0-3.43,0-.18,0-.28,0-.24-.24s0-.37,0-.48.3-.07.46-.1c.82-.14,1-.38,1-1.22s0-1.62,0-2.43c0-1.32,0-2.65,0-4,0-1,0-2.07,0-3.11A1.2,1.2,0,0,0,74.28,41c-.18-.08-.37-.17-.57-.24a.2.2,0,0,1-.15-.23c0-.18-.07-.42,0-.53s.34,0,.51,0c1.63.25,3.26.54,4.88.84.11,0,.14.06.15.17,0,.55,0,.55-.52.55h-.13c-.68,0-.9.22-.92.9C77.56,42.76,77.57,43,77.57,43.4Z" transform="translate(-2.64 -1.91)" fill="#1d1d1b"/><path d="M87.54,50.58c0,.56,0,1.13,0,1.69a.79.79,0,0,0,.66.89,3.87,3.87,0,0,0,.59.13.2.2,0,0,1,.19.24c0,.38,0,.38-.38.38l-4.91,0c-.18,0-.21-.06-.2-.22,0-.46,0-.46.45-.5l.33,0A.75.75,0,0,0,85,52.3c0-.43,0-.86,0-1.29,0-1.7,0-3.4,0-5.1,0-.63,0-1.26,0-1.88a1.2,1.2,0,0,0-.74-1.25l-.59-.27a.21.21,0,0,1-.14-.21c0-.51,0-.5.48-.4,2.76.61,5.5,1.3,8.23,2,.23.06.32.15.31.4,0,.7,0,1.41,0,2.11,0,.17,0,.21-.22.18a.49.49,0,0,1-.43-.36,5.91,5.91,0,0,0-1-1.68,1.6,1.6,0,0,0-.73-.49c-.8-.28-1.63-.43-2.45-.64-.17-.05-.19,0-.19.18,0,1.11,0,2.23,0,3.34,0,.23,0,.46,0,.69,0,.08,0,.16.12.17.45,0,.89.15,1.35.15a1.16,1.16,0,0,0,1.15-.75,2.93,2.93,0,0,0,.22-.65c0-.13.08-.18.23-.15.34.07.34.06.34.41,0,1.29,0,2.58,0,3.87,0,.11,0,.13-.13.12h-.24c-.12,0-.17,0-.19-.16A3.77,3.77,0,0,0,90,49.44a1.48,1.48,0,0,0-1.1-.72c-.36-.07-.74-.1-1.12-.16-.14,0-.18,0-.18.17,0,.62,0,1.23,0,1.85Z" transform="translate(-2.64 -1.91)" fill="#1d1d1b"/><path d="M91.36,46.09c-.4-.08-.76-.13-1.11-.22-.18,0-.26,0-.27.2a2.43,2.43,0,0,1-.33,1.11.59.59,0,0,1-.47.31,3.56,3.56,0,0,1-1-.08c-.12,0-.1-.11-.1-.17,0-1,0-2.06,0-3.09,0-.12.05-.11.14-.09a14.8,14.8,0,0,1,2,.53.85.85,0,0,1,.19.1A4.38,4.38,0,0,1,91.36,46.09Z" transform="translate(-2.64 -1.91)" fill="#fdfdfd"/><path d="M52.11,53.68H49.58c-.16,0-.23,0-.2-.2v-.11c0-.54,0-.54.53-.62a1,1,0,0,0,1-1.07c0-.68,0-1.37,0-2,0-1.07,0-2.13,0-3.2s0-2.33,0-3.49c0-.83,0-1.66,0-2.49a2.5,2.5,0,0,0,0-.55,1,1,0,0,0-.63-.8,3.35,3.35,0,0,0-.69-.25.16.16,0,0,1-.14-.19c0-.71,0-.71.67-.7l3.94.1.79,0c.12,0,.16,0,.14.16a2.67,2.67,0,0,0,0,.49c0,.17-.06.22-.21.24a4.12,4.12,0,0,0-.59.12.83.83,0,0,0-.65.78,10.28,10.28,0,0,0,0,1.24c0,1.21,0,2.42,0,3.63,0,.2.06.24.25.24l3.87.1c.19,0,.26,0,.26-.25,0-1.35,0-2.71,0-4.07,0-1.06-.27-1.34-1.23-1.68a.32.32,0,0,1-.25-.36c0-.55,0-.57.56-.54,1.23.07,2.46.16,3.7.25.38,0,.75.06,1.13.09.11,0,.16,0,.15.16a4.68,4.68,0,0,0,0,.53c0,.12,0,.16-.16.16a2.28,2.28,0,0,0-.63.09.78.78,0,0,0-.69.76,10.56,10.56,0,0,0,0,1.49c0,.84,0,1.67,0,2.51-.05,2.27,0,4.54-.05,6.81a4.83,4.83,0,0,0,0,.93.89.89,0,0,0,.63.71,3.9,3.9,0,0,0,.67.18c.11,0,.15.06.14.17a4.34,4.34,0,0,0,0,.51c0,.15-.06.18-.19.18-1.72,0-3.44,0-5.16,0-.13,0-.17,0-.17-.17s-.06-.45,0-.61.37-.09.57-.12a.94.94,0,0,0,.86-.94c.05-.53,0-1.06,0-1.58,0-1.29,0-2.57,0-3.85,0-.18-.06-.21-.22-.21l-2.22-.05-1.71,0c-.16,0-.23,0-.23.22,0,1.09,0,2.18,0,3.27,0,.69-.05,1.39,0,2.08a1,1,0,0,0,.85,1l.09,0c.16,0,.41,0,.47.14a1.64,1.64,0,0,1,0,.7c0,.15-.12.11-.2.11H52.11Z" transform="translate(-2.64 -1.91)" fill="#1d1d1b"/><path d="M24.68,46.73a10,10,0,0,1-1,4.54,5.12,5.12,0,0,1-2.32,2.41,4.78,4.78,0,0,1-4.31,0,5.71,5.71,0,0,1-3.2-4.15A8.41,8.41,0,0,1,15,43a6,6,0,0,1,4.13-2.9,4,4,0,0,1,4.12,1.63,7.08,7.08,0,0,1,1.34,3.53A9.06,9.06,0,0,1,24.68,46.73Zm-8.15.4c0,.49,0,1,0,1.47a14,14,0,0,0,.18,1.45,6.14,6.14,0,0,0,.83,2.28,1.87,1.87,0,0,0,2.52.7,2.63,2.63,0,0,0,1.1-1.45,10.14,10.14,0,0,0,.55-2.68,20.31,20.31,0,0,0-.2-5,5.34,5.34,0,0,0-.75-2.05,1.71,1.71,0,0,0-2.59-.41,3.36,3.36,0,0,0-1.15,1.76A11.93,11.93,0,0,0,16.53,47.13Z" transform="translate(-2.64 -1.91)" fill="#1d1d1b"/><path d="M9.43,47c0,1.18,0,2.36,0,3.54,0,.56,0,1.13,0,1.69a.78.78,0,0,0,.69.87l.67.13c.15,0,.21.08.21.24,0,.43,0,.43-.44.43l-5,.05c-.1,0-.25.06-.25-.15,0-.38,0-.41.22-.44s.45,0,.66-.09a.76.76,0,0,0,.68-.79c0-1.67,0-3.35,0-5,0-1.14,0-2.28,0-3.42,0-.2,0-.26-.24-.21-.39.11-.77.22-1.15.35a1.38,1.38,0,0,0-.68.58,8.66,8.66,0,0,0-.92,1.79.5.5,0,0,1-.53.33c-.09,0-.09-.06-.09-.12V44.13c0-.14.11-.13.2-.15,1.4-.36,2.79-.73,4.19-1.08,1.71-.43,3.41-.83,5.13-1.21.17,0,.19,0,.21.16,0,.43,0,.85,0,1.27,0,.59,0,1.17,0,1.76,0,.19,0,.28-.24.3s-.3,0-.37-.19a6.05,6.05,0,0,0-.78-1.49A1.05,1.05,0,0,0,10.42,43a6.07,6.07,0,0,1-.85.16c-.16,0-.2.1-.2.25,0,1.2,0,2.4,0,3.6Z" transform="translate(-2.64 -1.91)" fill="#1d1d1b"/><path d="M66.85,48.52c0,.83,0,1.66,0,2.49a4.55,4.55,0,0,0,.07.9.88.88,0,0,0,.84.86,6.71,6.71,0,0,0,2.19,0A1.33,1.33,0,0,0,71,52,16.84,16.84,0,0,0,72,49.59a.44.44,0,0,1,.53-.16c.07.06,0,.14,0,.21,0,.75-.08,1.5-.13,2.24,0,.58-.07,1.16-.09,1.73,0,.18-.11.16-.22.16l-5,0c-1.37,0-2.75,0-4.12,0-.19,0-.27,0-.25-.25s0-.32,0-.48.06-.11.13-.12l.5-.08a.91.91,0,0,0,.86-1c0-.77,0-1.55,0-2.33,0-1.11,0-2.21,0-3.32,0-1.72,0-3.45,0-5.18a1.2,1.2,0,0,0-.78-1.24l-.24-.11c-.15-.06-.39-.06-.43-.19a2,2,0,0,1,0-.7c0-.11.08-.08.14-.08.66.07,1.32.12,2,.2q1.5.15,3,.33l3.26.43a3.56,3.56,0,0,0,.44.06c.21,0,.24.09.24.27,0,1,0,2.09,0,3.14,0,.17,0,.2-.22.19s-.35-.11-.42-.36a6.81,6.81,0,0,0-.82-1.75A1.9,1.9,0,0,0,69,40.2c-.62-.06-1.23-.14-1.83-.22-.19,0-.19.07-.19.2,0,1.21,0,2.42,0,3.63,0,.54,0,1.09,0,1.64,0,.16,0,.22.21.23.36,0,.72,0,1.08,0a1.26,1.26,0,0,0,1.22-.78,5,5,0,0,0,.39-1.32c0-.24.16-.23.33-.22s.26.06.26.26c0,1.76,0,3.52-.06,5.27a.66.66,0,0,1,0,.14c0,.32,0,.31-.37.3-.13,0-.18,0-.19-.17a8.27,8.27,0,0,0-.35-1.47,1.49,1.49,0,0,0-1.34-1.07c-.34,0-.68,0-1-.06-.14,0-.18,0-.17.18v1.74Z" transform="translate(-2.64 -1.91)" fill="#1d1d1b"/><path d="M67.45,43.46V40.75c0-.19,0-.26.25-.22.46.08.92.13,1.38.18a1.27,1.27,0,0,1,.94.61,7.39,7.39,0,0,1,.76,1.48c.06.17,0,.2-.15.17l-1-.1c-.15,0-.22,0-.23.19A5.58,5.58,0,0,1,69,44.61a.89.89,0,0,1-1,.63l-.43,0c-.13,0-.17,0-.17-.18,0-.53,0-1,0-1.58Z" transform="translate(-2.64 -1.91)" fill="#fdfdfd"/><path d="M47.75,39.45c0,1.2,0,2.4,0,3.6,0,.22,0,.29-.27.27s-.33,0-.42-.32a15.58,15.58,0,0,0-1-2.74,3.15,3.15,0,0,0-1-1.3,1.6,1.6,0,0,0-2.23.4,2.93,2.93,0,0,0-.31,2.82,2.68,2.68,0,0,0,1.41,1.36c.62.33,1.26.63,1.89,1a4.37,4.37,0,0,1,2.45,3.83,6.64,6.64,0,0,1-.35,3,4.06,4.06,0,0,1-2.5,2.58,4.21,4.21,0,0,1-3.08-.15A5.12,5.12,0,0,1,41.13,53c-.13-.1-.18-.08-.26.05s-.21.32-.3.49a.22.22,0,0,1-.22.11c-.46,0-.47,0-.48-.45,0-1.25,0-2.5-.07-3.75q0-.6,0-1.2c0-.15,0-.21.19-.21.41,0,.41,0,.53.39a11.4,11.4,0,0,0,1.35,3.15,3.71,3.71,0,0,0,1,1.07A1.88,1.88,0,0,0,45.61,52a3.2,3.2,0,0,0,0-2.95,2.83,2.83,0,0,0-1.34-1.17c-.54-.28-1.1-.56-1.66-.81a4.2,4.2,0,0,1-2.42-3,6.19,6.19,0,0,1,.3-4,3.76,3.76,0,0,1,2.88-2.4,3.62,3.62,0,0,1,2.5.49c.21.13.43.26.63.41s.17.06.23,0l.1-.17a.58.58,0,0,1,.69-.36c.13,0,.18,0,.18.18,0,.44,0,.87,0,1.31Z" transform="translate(-2.64 -1.91)" fill="#1d1d1b"/><path d="M28.52,53.74H26c-.18,0-.25,0-.25-.23,0-.54,0-.54.53-.63a1.8,1.8,0,0,0,.5-.15.92.92,0,0,0,.44-.94c0-1.34,0-2.68,0-4,0-.38,0-.76,0-1.14,0-1.64,0-3.29-.05-4.94a3.51,3.51,0,0,0-.07-.72.7.7,0,0,0-.49-.56,3.45,3.45,0,0,0-.8-.18c-.06,0-.13,0-.15-.08a2.36,2.36,0,0,1,0-.65c0-.07.06-.06.11-.07l2.47-.31c1-.12,2.08-.24,3.12-.34a4.63,4.63,0,0,1,2.21.24A2.46,2.46,0,0,1,35,40.74a6.05,6.05,0,0,1-.28,4.11,4.06,4.06,0,0,1-3.27,2.38,11.44,11.44,0,0,1-1.55.13c-.14,0-.18,0-.18.18,0,1.39,0,2.79.05,4.18a1,1,0,0,0,.8,1,2.11,2.11,0,0,0,.48.12c.17,0,.21.11.21.27,0,.59,0,.59-.59.59H28.52Zm1.19-10.19c0,.87,0,1.74,0,2.6,0,.18,0,.25.23.24a2.23,2.23,0,0,0,2.27-1.79,6.91,6.91,0,0,0,0-3.47A1.53,1.53,0,0,0,31,39.85a4.07,4.07,0,0,0-1.1,0c-.17,0-.21.06-.2.23l0,2.24Z" transform="translate(-2.64 -1.91)" fill="#1d1d1b"/><path d="M8.78,60c1,0,2.08,0,3.12,0a6.82,6.82,0,0,1,2.37.4,2.13,2.13,0,0,1,1.37,2.72,2.38,2.38,0,0,1-1.37,1.41A6.45,6.45,0,0,1,13,65c-.07,0-.18,0-.17.13s.11.08.18.09a5.63,5.63,0,0,1,2.26.81,2.61,2.61,0,0,1,.62,3.66,3.13,3.13,0,0,1-1.72,1,9.28,9.28,0,0,1-2.41.33c-2.05,0-4.09,0-6.14,0-.16,0-.24,0-.23-.21,0-.4,0-.41.41-.44a5.62,5.62,0,0,0,.57-.09A.76.76,0,0,0,7,69.46V61.72c0-.59-.14-.79-.71-1a6.43,6.43,0,0,0-.76-.17c-.13,0-.17-.06-.17-.19,0-.44,0-.44.42-.44h3Zm1,7.67c0,.57,0,1.15,0,1.73a.75.75,0,0,0,.48.77,2.09,2.09,0,0,0,2.65-.78,2.84,2.84,0,0,0,.33-1.69,2.09,2.09,0,0,0-1.7-2A5.09,5.09,0,0,0,10,65.56c-.15,0-.2,0-.2.21C9.78,66.39,9.77,67,9.77,67.64Zm0-4.87c0,.61,0,1.23,0,1.84,0,.17.05.21.21.21a6.35,6.35,0,0,0,.87,0,2.08,2.08,0,0,0,1.37-.7,2.3,2.3,0,0,0,.41-2,1.63,1.63,0,0,0-1.4-1.36,6.46,6.46,0,0,0-1.24,0c-.17,0-.22.06-.22.22C9.78,61.52,9.78,62.14,9.78,62.77Z" transform="translate(-2.64 -1.91)" fill="#1d1d1b"/><path d="M22.08,71.28a4.74,4.74,0,0,1-2.94-.88,3.73,3.73,0,0,1-1.54-2.86,4.18,4.18,0,0,1,.48-2.43,3.69,3.69,0,0,1,2.09-1.71,5.79,5.79,0,0,1,4,0,3.77,3.77,0,0,1,2.52,3.8,4,4,0,0,1-3.5,4A6.83,6.83,0,0,1,22.08,71.28Zm-1.63-4.09v.69a4.75,4.75,0,0,0,.37,1.86,1.35,1.35,0,0,0,1.16.91,1.34,1.34,0,0,0,1.4-.77,2.72,2.72,0,0,0,.27-.77,10.07,10.07,0,0,0,.13-3,4.76,4.76,0,0,0-.27-1.35,1.38,1.38,0,0,0-1.34-1,1.36,1.36,0,0,0-1.39,1,2,2,0,0,0-.11.32A7.1,7.1,0,0,0,20.45,67.19Z" transform="translate(-2.64 -1.91)" fill="#1d1d1b"/><path d="M57.08,61.79a1.42,1.42,0,0,1-1.51-1.55,1.37,1.37,0,0,1,.83-1.13,1.62,1.62,0,0,1,2,.51A1.25,1.25,0,0,1,58.51,61a1.46,1.46,0,0,1-1.19.83Z" transform="translate(-2.64 -1.91)" fill="#1d1d1b"/><path d="M74.17,67.33c0,.67,0,1.33,0,2a.26.26,0,0,1,0,.19,1.4,1.4,0,0,1-1.32.53.92.92,0,0,1-.81-.94A1.7,1.7,0,0,1,73,67.27a8.8,8.8,0,0,1,1-.42c.12,0,.16,0,.15.11Zm-.49.48c0-.31,0-.32-.26-.2l-.24.12a1.26,1.26,0,0,0-.73,1.36.48.48,0,0,0,.4.49.9.9,0,0,0,.65-.18.4.4,0,0,0,.16-.32A10.66,10.66,0,0,1,73.68,67.81Z" transform="translate(-2.64 -1.91)" fill="#888784"/><path d="M39.18,68.16v1.11a.34.34,0,0,1,0,.22,1.33,1.33,0,0,1-1.75.4,1.15,1.15,0,0,1-.4-1.1,1.7,1.7,0,0,1,1.13-1.56l.9-.37c.14-.06.19,0,.18.12v1.18Zm-.48.22h0V68c0-.58,0-.58-.51-.29a1.24,1.24,0,0,0-.69,1.44.43.43,0,0,0,.36.38.91.91,0,0,0,.58-.1A.46.46,0,0,0,38.7,69C38.69,68.79,38.7,68.58,38.7,68.38Z" transform="translate(-2.64 -1.91)" fill="#888784"/><path d="M16.53,47.13a11.93,11.93,0,0,1,.54-4,3.36,3.36,0,0,1,1.15-1.76,1.71,1.71,0,0,1,2.59.41,5.34,5.34,0,0,1,.75,2.05,20.31,20.31,0,0,1,.2,5,10.14,10.14,0,0,1-.55,2.68A2.63,2.63,0,0,1,20.11,53a1.87,1.87,0,0,1-2.52-.7,6.14,6.14,0,0,1-.83-2.28,14,14,0,0,1-.18-1.45C16.54,48.11,16.53,47.62,16.53,47.13Zm.49.07A13.72,13.72,0,0,0,17.25,50,5.22,5.22,0,0,0,18,52.12a1.37,1.37,0,0,0,2,.34,2.53,2.53,0,0,0,.64-1A8.67,8.67,0,0,0,21.26,49,18.75,18.75,0,0,0,21,43.69a4,4,0,0,0-.79-1.82,1,1,0,0,0-1-.39,1.51,1.51,0,0,0-.94.44,3.55,3.55,0,0,0-.91,1.68A12,12,0,0,0,17,47.2Z" transform="translate(-2.64 -1.91)" fill="#888784"/><path d="M29.71,43.55v-1.2l0-2.24c0-.17,0-.22.2-.23a4.07,4.07,0,0,1,1.1,0,1.53,1.53,0,0,1,1.24,1.28,6.91,6.91,0,0,1,0,3.47A2.23,2.23,0,0,1,30,46.39c-.2,0-.23-.06-.23-.24C29.71,45.29,29.73,44.42,29.71,43.55Zm.45.27h.07c0,.61,0,1.22,0,1.83,0,.24.1.23.26.19a1.69,1.69,0,0,0,1.27-1.24,6.14,6.14,0,0,0,0-3.45,1.08,1.08,0,0,0-1.33-.84c-.2,0-.22.1-.22.26C30.17,41.66,30.16,42.74,30.16,43.82Z" transform="translate(-2.64 -1.91)" fill="#888784"/><path d="M9.77,67.64c0-.63,0-1.25,0-1.87,0-.16.05-.2.2-.21a5.09,5.09,0,0,1,1.56.09,2.09,2.09,0,0,1,1.7,2,2.84,2.84,0,0,1-.33,1.69,2.09,2.09,0,0,1-2.65.78.75.75,0,0,1-.48-.77C9.79,68.79,9.77,68.21,9.77,67.64Zm.49.18c0,.51,0,1,0,1.53a.34.34,0,0,0,.21.35,1.64,1.64,0,0,0,1.73-.25,2.11,2.11,0,0,0,.51-2,1.57,1.57,0,0,0-1.19-1.32A3.8,3.8,0,0,0,10.46,66c-.15,0-.2,0-.2.2C10.27,66.75,10.26,67.29,10.26,67.82Z" transform="translate(-2.64 -1.91)" fill="#888784"/><path d="M9.78,62.77c0-.63,0-1.25,0-1.87,0-.16.05-.22.22-.22a6.46,6.46,0,0,1,1.24,0,1.63,1.63,0,0,1,1.4,1.36,2.3,2.3,0,0,1-.41,2,2.08,2.08,0,0,1-1.37.7,6.35,6.35,0,0,1-.87,0c-.16,0-.21,0-.21-.21C9.78,64,9.78,63.38,9.78,62.77Zm.48,0c0,.46,0,.93,0,1.4,0,.07,0,.18.09.17a1.85,1.85,0,0,0,1.48-.57,1.83,1.83,0,0,0,.29-1.64,1.11,1.11,0,0,0-.85-.88,3.29,3.29,0,0,0-.83-.08c-.16,0-.19.06-.19.2C10.27,61.81,10.26,62.28,10.26,62.75Z" transform="translate(-2.64 -1.91)" fill="#888784"/><path d="M20.45,67.19a7.1,7.1,0,0,1,.22-2.2,2,2,0,0,1,.11-.32,1.36,1.36,0,0,1,1.39-1,1.38,1.38,0,0,1,1.34,1,4.76,4.76,0,0,1,.27,1.35,10.07,10.07,0,0,1-.13,3,2.72,2.72,0,0,1-.27.77,1.34,1.34,0,0,1-1.4.77,1.35,1.35,0,0,1-1.16-.91,4.75,4.75,0,0,1-.37-1.86Zm.49,0a8.2,8.2,0,0,0,0,1.31,2.78,2.78,0,0,0,.42,1.29.87.87,0,0,0,1.44,0,2,2,0,0,0,.32-.77,9.44,9.44,0,0,0,.11-3A3.93,3.93,0,0,0,23,64.69a.9.9,0,0,0-1.6-.06,2.38,2.38,0,0,0-.23.55A7.53,7.53,0,0,0,20.94,67.19Z" transform="translate(-2.64 -1.91)" fill="#888784"/><path d="M73.68,67.81a10.66,10.66,0,0,0,0,1.27.4.4,0,0,1-.16.32.9.9,0,0,1-.65.18.48.48,0,0,1-.4-.49,1.26,1.26,0,0,1,.73-1.36l.24-.12C73.69,67.49,73.69,67.5,73.68,67.81Z" transform="translate(-2.64 -1.91)" fill="#fdfdfd"/><path d="M38.7,68.38c0,.2,0,.41,0,.62a.46.46,0,0,1-.26.47.91.91,0,0,1-.58.1.43.43,0,0,1-.36-.38,1.24,1.24,0,0,1,.69-1.44c.52-.29.52-.29.51.29v.34Z" transform="translate(-2.64 -1.91)" fill="#fdfdfd"/><path d="M17,47.2a12,12,0,0,1,.41-3.6,3.55,3.55,0,0,1,.91-1.68,1.51,1.51,0,0,1,.94-.44,1,1,0,0,1,1,.39A4,4,0,0,1,21,43.69,18.75,18.75,0,0,1,21.26,49a8.67,8.67,0,0,1-.54,2.51,2.53,2.53,0,0,1-.64,1,1.37,1.37,0,0,1-2-.34A5.22,5.22,0,0,1,17.25,50,13.72,13.72,0,0,1,17,47.2Z" transform="translate(-2.64 -1.91)" fill="#fdfdfd"/><path d="M30.16,43.82c0-1.08,0-2.16,0-3.25,0-.16,0-.24.22-.26a1.08,1.08,0,0,1,1.33.84,6.14,6.14,0,0,1,0,3.45,1.69,1.69,0,0,1-1.27,1.24c-.16,0-.27,0-.26-.19,0-.61,0-1.22,0-1.83Z" transform="translate(-2.64 -1.91)" fill="#fdfdfd"/><path d="M10.26,67.82c0-.53,0-1.07,0-1.6,0-.16.05-.2.2-.2a3.8,3.8,0,0,1,1.06.13,1.57,1.57,0,0,1,1.19,1.32,2.11,2.11,0,0,1-.51,2,1.64,1.64,0,0,1-1.73.25.34.34,0,0,1-.21-.35C10.27,68.84,10.26,68.33,10.26,67.82Z" transform="translate(-2.64 -1.91)" fill="#fdfdfd"/><path d="M10.26,62.75c0-.47,0-.94,0-1.4,0-.14,0-.2.19-.2a3.29,3.29,0,0,1,.83.08,1.11,1.11,0,0,1,.85.88,1.83,1.83,0,0,1-.29,1.64,1.85,1.85,0,0,1-1.48.57c-.13,0-.09-.1-.09-.17C10.26,63.68,10.26,63.21,10.26,62.75Z" transform="translate(-2.64 -1.91)" fill="#fdfdfd"/><path d="M20.94,67.19a7.53,7.53,0,0,1,.18-2,2.38,2.38,0,0,1,.23-.55.9.9,0,0,1,1.6.06A3.93,3.93,0,0,1,23.28,66a9.44,9.44,0,0,1-.11,3,2,2,0,0,1-.32.77.87.87,0,0,1-1.44,0A2.78,2.78,0,0,1,21,68.5,8.2,8.2,0,0,1,20.94,67.19Z" transform="translate(-2.64 -1.91)" fill="#fdfdfd"/></svg>