<?xml version="1.0" encoding="utf-8"?>
<!-- Generator: Adobe Illustrator 16.0.0, SVG Export Plug-In . SVG Version: 6.00 Build 0)  -->
<!DOCTYPE svg PUBLIC "-//W3C//DTD SVG 1.1//EN" "http://www.w3.org/Graphics/SVG/1.1/DTD/svg11.dtd">
<svg version="1.1" id="ico_x5F_ebook" xmlns="http://www.w3.org/2000/svg" xmlns:xlink="http://www.w3.org/1999/xlink" x="0px"
	 y="0px" width="50px" height="50px" viewBox="0 0 50 50" enable-background="new 0 0 50 50" xml:space="preserve">
<circle fill="#FFFFFF" stroke="#333333" cx="25" cy="25" r="19.5"/>
<g>
	<path fill="#4FB353" d="M20.549,28.5c-0.572,0-1.042-0.466-1.049-1.038V18.5h11v8.955c-0.006,0.578-0.477,1.045-1.049,1.045H20.549
		z"/>
	<path fill="#333333" d="M30,19v8.455C29.997,27.757,29.752,28,29.451,28c-0.002,0-0.004,0-0.006,0c-0.001,0-0.001,0-0.001,0h-8.888
		c-0.002,0-0.005,0-0.007,0c-0.3,0-0.545-0.242-0.549-0.544c0-0.001,0-0.001,0-0.001V19H30 M31,18h-1H20h-1v1v8.455
		C19.01,28.313,19.705,29,20.549,29h8.896c0.853,0,1.548-0.688,1.556-1.535V19V18L31,18z"/>
</g>
<g>
	<path fill="#228AE5" d="M19.5,19.5v-8.955C19.506,9.966,19.978,9.5,20.551,9.5h8.895c0.578,0,1.049,0.467,1.055,1.04v8.96H19.5z"/>
	<path fill="#333333" d="M20.551,10c0.002,0,0.003,0,0.005,0h8.889c0.001,0,0.002,0,0.004,0c0.302,0,0.548,0.242,0.551,0.545V19H20
		v-8.455C20.003,10.243,20.25,10,20.551,10 M20.551,9C19.705,9,19.01,9.688,19,10.534V19v1h1h10h1v-1v-8.455
		C30.992,9.688,30.296,9,29.449,9h-8.893H20.551L20.551,9z"/>
</g>
<path fill="none" stroke="#333333" stroke-linecap="round" stroke-miterlimit="10" d="M23,26.5h4"/>
<g>
	<path fill="#FFFFFF" d="M24.636,23.343c-0.541-0.574-1.304-0.905-2.093-0.909H18.5V12.5h4.045c0.891,0.017,1.746,0.306,2.455,0.821
		c0.709-0.516,1.563-0.805,2.446-0.821H31.5v9.934h-4.045c-0.787,0.003-1.55,0.334-2.091,0.909L25,23.729L24.636,23.343z"/>
	<path fill="#333333" d="M31,13v8.934h-3.545C26.525,21.938,25.638,22.323,25,23c-0.638-0.677-1.525-1.062-2.455-1.066H19V13h3.545
		c0.907,0.017,1.778,0.359,2.455,0.963c0.677-0.604,1.548-0.946,2.455-0.963H31 M32,12h-1h-3.545
		c-0.881,0.016-1.726,0.267-2.455,0.719c-0.729-0.452-1.57-0.703-2.436-0.719H19h-1v1v8.934v1h1h3.545
		c0.648,0.003,1.28,0.277,1.727,0.751L25,24.458l0.728-0.772c0.448-0.475,1.079-0.749,1.731-0.751H31h1v-1V13V12L32,12z"/>
</g>
<path fill="none" stroke="#EBEBEB" stroke-linecap="round" stroke-miterlimit="10" d="M25,15.25v5.5"/>
<g enable-background="new    ">
	<path fill="#333333" d="M16.663,35.035h-3.085c0.05,0.786,0.495,1.178,1.336,1.178c0.513,0,0.97-0.134,1.371-0.404v0.932
		c-0.428,0.25-0.977,0.374-1.648,0.374c-0.718,0-1.276-0.208-1.677-0.624c-0.399-0.416-0.6-0.998-0.6-1.744
		c0-0.732,0.214-1.328,0.644-1.787c0.429-0.458,0.966-0.688,1.611-0.688s1.147,0.197,1.507,0.594c0.36,0.395,0.541,0.938,0.541,1.63
		V35.035z M15.507,34.231c0-0.732-0.302-1.099-0.905-1.099c-0.252,0-0.474,0.1-0.666,0.299s-0.311,0.466-0.358,0.8H15.507z"/>
	<path fill="#333333" d="M17.267,37v-6.469h2.202c0.665,0,1.185,0.133,1.56,0.397c0.375,0.266,0.563,0.636,0.563,1.11
		c0,0.346-0.11,0.65-0.33,0.916c-0.22,0.265-0.516,0.455-0.888,0.568v0.014c0.457,0.059,0.82,0.229,1.09,0.51
		s0.404,0.63,0.404,1.046c0,0.58-0.208,1.043-0.624,1.389S20.271,37,19.574,37H17.267z M18.52,31.494v1.695h0.681
		c0.337,0,0.601-0.079,0.791-0.239c0.19-0.159,0.286-0.384,0.286-0.675c0-0.521-0.372-0.781-1.116-0.781H18.52z M18.52,34.156v1.881
		h0.861c0.369,0,0.656-0.084,0.861-0.254s0.308-0.406,0.308-0.708c0-0.612-0.404-0.919-1.213-0.919H18.52z"/>
	<path fill="#333333" d="M22.144,34.719c0-0.756,0.223-1.353,0.668-1.79c0.445-0.438,1.049-0.657,1.811-0.657
		c0.735,0,1.316,0.215,1.742,0.644c0.427,0.43,0.64,1.005,0.64,1.726c0,0.75-0.221,1.35-0.661,1.799
		c-0.441,0.45-1.038,0.675-1.791,0.675c-0.738,0-1.324-0.216-1.758-0.648C22.36,36.034,22.144,35.452,22.144,34.719z M23.383,34.701
		c0,0.971,0.403,1.455,1.208,1.455c0.776,0,1.165-0.496,1.165-1.49c0-0.96-0.39-1.441-1.169-1.441c-0.381,0-0.677,0.132-0.888,0.394
		C23.488,33.881,23.383,34.242,23.383,34.701z"/>
	<path fill="#333333" d="M27.27,34.719c0-0.756,0.223-1.353,0.668-1.79c0.445-0.438,1.049-0.657,1.811-0.657
		c0.736,0,1.316,0.215,1.742,0.644c0.428,0.43,0.641,1.005,0.641,1.726c0,0.75-0.221,1.35-0.662,1.799
		c-0.441,0.45-1.037,0.675-1.791,0.675c-0.738,0-1.324-0.216-1.758-0.648C27.486,36.034,27.27,35.452,27.27,34.719z M28.51,34.701
		c0,0.971,0.402,1.455,1.208,1.455c0.776,0,1.165-0.496,1.165-1.49c0-0.96-0.391-1.441-1.17-1.441c-0.381,0-0.676,0.132-0.887,0.394
		C28.615,33.881,28.51,34.242,28.51,34.701z"/>
	<path fill="#333333" d="M37.072,37h-1.516l-1.639-2.271h-0.014V37h-1.227v-6.834h1.227v4.347h0.014l1.542-2.132h1.481l-1.798,2.189
		L37.072,37z"/>
</g>
</svg>
