<?xml version="1.0" encoding="utf-8"?>
<!-- Generator: Adobe Illustrator 16.0.0, SVG Export Plug-In . SVG Version: 6.00 Build 0)  -->
<!DOCTYPE svg PUBLIC "-//W3C//DTD SVG 1.1//EN" "http://www.w3.org/Graphics/SVG/1.1/DTD/svg11.dtd">
<svg version="1.1" id="Ellipse_1_1_" xmlns="http://www.w3.org/2000/svg" xmlns:xlink="http://www.w3.org/1999/xlink" x="0px"
	 y="0px" width="28px" height="24px" viewBox="0 0 28 24" enable-background="new 0 0 28 24" xml:space="preserve">
<path d="M26,6c0,2.21-1.79,4-4,4c-0.42,0-0.82-0.08-1.2-0.21C21.55,11.02,22,12.46,22,14c0,4.42-3.58,8-8,8s-8-3.58-8-8
	c0-1.54,0.44-2.98,1.2-4.21C6.82,9.92,6.42,10,6,10c-2.21,0-4-1.79-4-4s1.79-4,4-4s4,1.79,4,4c0,0.42-0.08,0.82-0.21,1.2
	C11.02,6.44,12.46,6,14,6s2.98,0.44,4.21,1.2C18.08,6.82,18,6.42,18,6c0-2.21,1.79-4,4-4S26,3.79,26,6z"/>
</svg>
