<?xml version="1.0" encoding="utf-8"?>
<!-- Generator: Adobe Illustrator 16.0.3, SVG Export Plug-In . SVG Version: 6.00 Build 0)  -->
<!DOCTYPE svg PUBLIC "-//W3C//DTD SVG 1.1 Tiny//EN" "http://www.w3.org/Graphics/SVG/1.1/DTD/svg11-tiny.dtd">
<svg version="1.1" baseProfile="tiny" id="Layer_1" xmlns="http://www.w3.org/2000/svg" xmlns:xlink="http://www.w3.org/1999/xlink"
	 x="0px" y="0px" width="200px" height="103px" viewBox="0 0 200 103" xml:space="preserve">
<g>
	<polygon fill="#8C9FA9" points="32.5,43.419 36.971,43.419 39.318,47.669 43.125,43.373 47.509,43.373 40.69,51.121 39.405,58.916 
		35.643,58.916 37.016,51.033 	"/>
	<polygon fill="#8C9FA9" points="49.237,43.373 46.801,59.004 55.656,58.959 56.1,55.816 51.227,55.816 51.67,52.716 56.498,52.805 
		57.072,49.571 52.204,49.571 52.735,46.606 57.826,46.606 58.224,43.373 	"/>
	<path fill="#8C9FA9" d="M69.159,46.871c0,0-0.042-0.974-2.522-1.152c0,0-1.859,0.045-2.213,1.507c0,0-0.619,1.992,2.966,2.522
		c0,0,2.924,0.621,2.924,3.851c0,0-0.222,2.744-2.082,4.074c0,0-1.729,1.506-4.737,1.551c0,0-2.437,0.398-5.314-1.508l2.035-3.056
		c0,0,1.508,2.169,3.721,1.683c0,0,2.036-0.221,2.435-2.122c0,0,0.486-1.772-3.101-2.039c0,0-3.1-0.35-2.966-3.895
		c0,0,0.31-2.924,1.992-3.896c0,0,1.328-1.371,4.118-1.417c0,0,1.993-0.31,4.606,1.24L69.159,46.871z"/>
	<path fill="#D71921" d="M85.986,29.912c0,0,0.752-3.363,2.835-3.408c0,0,2.786-0.234,2.035,3.363c0,0-1.007,3-1.462,4.698
		c0,0-0.828,2.646-0.932,2.934c0,0-0.209,1.022-1.909,0.996c0,0-2.25,0-2.175-2.331c0.301-1.796,0.357-1.768,0.656-2.983
		L85.986,29.912z"/>
	<path fill="#D71921" d="M96.758,29.935c0,0,0.753-3.368,2.835-3.408c0,0,2.785-0.235,2.038,3.361c0,0-1.008,3-1.462,4.696
		c0,0-0.829,2.65-0.934,2.937c0,0-0.209,1.024-1.91,0.998c0,0-2.251-0.003-2.171-2.331c0.298-1.801,0.355-1.768,0.653-2.985
		L96.758,29.935z"/>
	<path fill="#231F20" d="M77.025,48.732l4.107,0.022c0,0-0.34-2.667,2.225-2.667c0,0,1.756-0.208,1.834,2.224
		c0,0-0.025,1.861-1.834,3.404l-3.455,3.455l-4.633,4.107h12.094h0.523l0.234-3.061h-5.26c0,0,2.775-2.277,3.849-3.531
		c0,0,2.435-1.887,2.33-4.452c0,0,0.104-1.938-1.126-3.481c0,0-0.97-1.73-4.086-1.704c0,0-3.218,0.027-4.868,2.198
		C78.96,45.246,77.86,46.66,77.025,48.732z"/>
	<path fill="#8C9FA9" d="M108.316,57.523c0,0,0-2.782,2.577-2.731c0,0,1.962-0.105,2.09,1.958c0,0-0.311,2.578-2.652,2.578
		C110.331,59.328,108.599,59.457,108.316,57.523z"/>
	<path fill="#8C9FA9" d="M127.642,54.326l-0.722,4.305c0,0-1.646,0.746-3.785,0.721c0,0-3.558,0-5.62-2.576
		c0,0-1.518-1.985-1.547-4.304c0,0,0.104-4.301,2.966-6.722c0,0,1.055-1.187,2.73-1.959c0,0,1.706-0.901,3.505-0.848
		c0,0,2.319-0.075,3.915,1.027l-0.538,3.688c0,0-1.135-1.47-3.58-1.47c0,0-2.118-0.024-3.894,2.008c0,0-1.546,1.599-1.416,3.637
		c0,0-0.209,1.904,1.184,3.115c0,0,0.646,0.697,2.734,0.824C123.574,55.771,126.817,55.898,127.642,54.326z"/>
	<polygon fill="#8C9FA9" points="147.788,58.992 151.346,58.969 154.488,49.587 156.913,58.969 158.327,58.969 163.892,49.459 
		163.892,58.992 167.475,58.992 167.5,43.329 163.869,43.329 158.949,52.061 156.731,43.355 153.355,43.355 	"/>
	<path fill="#005AA9" d="M68.506,65.367c0,0-1.411-1.82,1.059-3.113c0,0,1.703-1.176,2.996,0.703c0,0,1.879,3.352,4.701,5.762
		c0,0,3.289,2.934,11.399,3.23c0,0,8.639,0.705,13.401-3.701c0,0,2.465-1.881,4.698-5.76c0,0,1.234-1.355,2.995-0.059
		c0,0,1.882,1.354,0.118,3.703c0,0-2.111,3.289-6.051,6.287c0,0-4.993,4.113-15.043,4.055c0,0-6.522,0.527-12.75-3.291
		C76.03,73.184,71.623,71.127,68.506,65.367z"/>
	<path fill="#231F20" d="M101.596,53.195l1.52-9.457h-4.953l-8.135,9.923l-0.386,2.47h7.652l-0.36,3.273h3.656l0.388-3.273
		l2.138-0.049l0.361-2.887H101.596z M97.874,53.238l-3.511-0.043l4.858-6.389L97.874,53.238z"/>
	<path fill="#8C9FA9" d="M147.741,49.151c-0.185-1.911-1.162-3.119-1.162-3.119c-1.467-2.189-3.761-2.858-3.761-2.858
		c-2.628-0.849-5.153,0-5.153,0c-3.528,0.643-6.339,4.814-6.339,4.814c-1.365,1.754-1.365,4.537-1.365,4.537
		c-0.024,2.578,1.856,4.508,1.856,4.508c1.7,2.578,5.896,2.295,5.896,2.295c3.173-0.025,5.416-1.598,5.416-1.598
		c1.673-1.08,3.271-3.634,3.271-3.634C148.053,51.389,147.741,49.151,147.741,49.151z M142.02,54.198c0,0-1.65,1.729-3.814,1.729
		c0,0-2.703,0.18-3.813-2.191c0,0-0.335-0.49-0.386-2.238c0,0-0.075-1.575,1.442-3.453c0,0,1.729-2.064,4.176-1.935
		c0,0,2.396,0.025,3.633,1.878c0,0,0.593,1.084,0.617,2.247C143.874,50.235,144.129,52.166,142.02,54.198z"/>
</g>
</svg>
